; NON-PLATED HOLES START AT T1
; THROUGH (PLATED) HOLES START AT T100
M48
INCH
T100C0.031555
T101C0.015748
T102C0.035000
T103C0.031496
T104C0.027559
T105C0.038000
%
T100
X018073Y010189
T101
X003145Y011481
X024740Y003953
X019651Y012231
X007118Y011631
X002562Y010142
X020407Y011831
X003712Y010831
X019518Y001981
X007240Y002647
X002140Y016942
X023051Y015314
X025573Y004481
X008045Y000425
X010657Y004814
X004406Y009075
X026907Y005425
X019518Y002675
X002540Y010875
X026462Y005897
X004073Y008120
X027051Y011875
X026629Y012297
X020073Y004981
X026018Y006370
X012073Y004175
X025295Y013564
X003190Y009592
X006451Y012186
X016607Y012653
T102
X025073Y014430
X023073Y014430
X021073Y014430
X024073Y014430
X022073Y014430
X007073Y008430
X008073Y008430
X006073Y008430
X009073Y008430
X007073Y014430
X008073Y014430
X006073Y014430
X010073Y008430
X009073Y014430
X017073Y008430
X015073Y008430
X013073Y008430
X011073Y008430
X018073Y008430
X016073Y008430
X014073Y008430
X012073Y008430
X010073Y014430
X019073Y008430
X017073Y014430
X015073Y014430
X013073Y014430
X011073Y014430
X018073Y014430
X016073Y014430
X014073Y014430
X012073Y014430
X020073Y008430
X019073Y014430
X025073Y008430
X023073Y008430
X021073Y008430
X024073Y008430
X022073Y008430
X020073Y014430
T103
X018073Y012120
T104
X015073Y013391
X016073Y009392
X015073Y009392
X016073Y013391
T105
X013073Y006120
X012073Y017120
X006073Y018120
X002073Y012120
X012073Y001120
X021073Y017120
X015073Y018120
X001073Y004120
X021073Y001120
X007073Y006120
X009073Y018120
X019073Y007120
X015073Y017120
X001073Y003120
X018073Y018120
X015073Y001120
X024073Y001120
X023073Y017036
X010073Y018120
X001073Y002120
X020073Y007120
X018073Y017120
X018073Y001120
X011073Y006120
X026073Y017036
X010073Y017120
X013073Y018120
X010073Y001120
X023073Y007120
X001073Y016120
X005073Y006120
X014073Y006120
X013073Y017120
X007073Y018120
X017073Y007120
X016073Y018120
X002073Y004120
X013073Y001120
X001073Y015120
X022073Y001120
X025073Y018120
X008073Y006120
X016073Y017120
X002073Y003120
X019073Y018120
X001073Y014120
X025073Y001120
X024073Y017036
X011073Y018120
X002073Y002120
X021073Y007120
X019073Y017120
X001073Y013120
X020073Y018120
X019073Y001120
X012073Y006120
X001073Y009120
X011073Y017120
X014073Y018120
X001073Y012120
X011073Y001120
X024073Y007120
X020073Y017120
X020073Y001120
X002073Y016120
X006073Y006120
X001073Y008120
X015073Y006120
X014073Y017120
X008073Y018120
X018073Y007120
X005073Y001120
X014073Y001120
X017073Y018120
X002073Y015120
X001073Y007120
X023073Y001120
X001073Y010120
X017073Y017120
X002073Y014120
X001073Y006120
X017073Y001120
X010073Y006120
X025073Y017036
X003073Y018120
X012073Y018120
X022073Y007120
X002073Y013120
X021073Y018120
T00
M30
