G04 MADE WITH FRITZING*
G04 WWW.FRITZING.ORG*
G04 DOUBLE SIDED*
G04 HOLES PLATED*
G04 CONTOUR ON CENTER OF CONTOUR VECTOR*
%ASAXBY*%
%FSLAX23Y23*%
%MOIN*%
%OFA0B0*%
%SFA1.0B1.0*%
%ADD10C,0.039370*%
%ADD11C,0.075000*%
%ADD12C,0.078000*%
%ADD13C,0.065000*%
%ADD14C,0.070925*%
%ADD15C,0.070866*%
%ADD16R,0.075000X0.075000*%
%ADD17C,0.024000*%
%ADD18C,0.032000*%
%LNCOPPER1*%
G90*
G70*
G54D10*
X1965Y1223D03*
X407Y812D03*
X805Y43D03*
X1661Y1265D03*
X256Y1014D03*
X319Y959D03*
X371Y1083D03*
X441Y908D03*
X254Y1088D03*
X315Y1148D03*
X214Y1694D03*
X2041Y1183D03*
X2530Y1356D03*
X2305Y1531D03*
X712Y1163D03*
X645Y1219D03*
X2663Y1230D03*
X2705Y1188D03*
X2474Y395D03*
X2557Y448D03*
X2602Y637D03*
X2646Y590D03*
X2691Y543D03*
X2007Y498D03*
X1066Y481D03*
X1207Y418D03*
X724Y265D03*
X1952Y268D03*
X1952Y198D03*
G54D11*
X607Y843D03*
X607Y1443D03*
X707Y843D03*
X707Y1443D03*
X807Y843D03*
X807Y1443D03*
X907Y843D03*
X907Y1443D03*
X1007Y843D03*
X1007Y1443D03*
X1107Y843D03*
X1107Y1443D03*
X1207Y843D03*
X1207Y1443D03*
X1307Y843D03*
X1307Y1443D03*
X1407Y843D03*
X1407Y1443D03*
X1507Y843D03*
X1507Y1443D03*
X1607Y843D03*
X1607Y1443D03*
X1707Y843D03*
X1707Y1443D03*
X1807Y843D03*
X1807Y1443D03*
X1907Y843D03*
X1907Y1443D03*
X2007Y843D03*
X2007Y1443D03*
X2107Y843D03*
X2107Y1443D03*
X2207Y843D03*
X2207Y1443D03*
X2307Y843D03*
X2307Y1443D03*
X2407Y843D03*
X2407Y1443D03*
X2507Y843D03*
X2507Y1443D03*
G54D12*
X207Y1612D03*
X207Y1512D03*
X207Y1412D03*
X207Y1312D03*
X207Y1212D03*
X307Y1812D03*
X2507Y1812D03*
X2507Y112D03*
X507Y112D03*
X107Y1612D03*
X107Y1512D03*
X107Y1412D03*
X107Y1312D03*
X107Y1212D03*
X107Y612D03*
X107Y712D03*
X107Y812D03*
X207Y412D03*
X107Y412D03*
X207Y312D03*
X107Y312D03*
X207Y212D03*
X107Y212D03*
X607Y1812D03*
X707Y1812D03*
X807Y1812D03*
X907Y1812D03*
X2107Y1812D03*
X2007Y1812D03*
X1907Y1812D03*
X1807Y1812D03*
X1707Y1812D03*
X1607Y1812D03*
X1507Y1812D03*
X1407Y1812D03*
X1307Y1812D03*
X1207Y1812D03*
X1107Y1812D03*
X1007Y1812D03*
X1007Y1712D03*
X1107Y1712D03*
X1207Y1712D03*
X1307Y1712D03*
X1407Y1712D03*
X1507Y1712D03*
X1607Y1712D03*
X1707Y1712D03*
X1807Y1712D03*
X1907Y1712D03*
X2007Y1712D03*
X2107Y1712D03*
X2307Y1704D03*
X2407Y1704D03*
X2507Y1704D03*
X2607Y1704D03*
X107Y1012D03*
X107Y912D03*
X1707Y712D03*
X1807Y712D03*
X1907Y712D03*
X2007Y712D03*
X2107Y712D03*
X2207Y712D03*
X2307Y712D03*
X2407Y712D03*
X1707Y112D03*
X1807Y112D03*
X1907Y112D03*
X2007Y112D03*
X2107Y112D03*
X2207Y112D03*
X2307Y112D03*
X2407Y112D03*
X1507Y112D03*
X1407Y112D03*
X1307Y112D03*
X1207Y112D03*
X1107Y112D03*
X1007Y112D03*
X1507Y612D03*
X1407Y612D03*
X1307Y612D03*
X1207Y612D03*
X1107Y612D03*
X1007Y612D03*
X507Y612D03*
X607Y612D03*
X707Y612D03*
X807Y612D03*
G54D13*
X1607Y939D03*
X1507Y939D03*
X1607Y939D03*
X1507Y939D03*
X1507Y1339D03*
X1607Y1339D03*
X1507Y1339D03*
X1607Y1339D03*
G54D14*
X1807Y1019D03*
G54D15*
X1807Y1212D03*
G54D16*
X607Y843D03*
G54D17*
X1277Y1812D02*
X1237Y1812D01*
D02*
X1177Y1812D02*
X1137Y1812D01*
D02*
X1077Y1812D02*
X1037Y1812D01*
D02*
X918Y1883D02*
X783Y1881D01*
D02*
X783Y1881D02*
X730Y1832D01*
D02*
X984Y1831D02*
X918Y1883D01*
D02*
X207Y1242D02*
X207Y1282D01*
D02*
X207Y1342D02*
X207Y1382D01*
D02*
X283Y1512D02*
X707Y1734D01*
D02*
X707Y1734D02*
X707Y1782D01*
D02*
X237Y1512D02*
X283Y1512D01*
D02*
X2298Y1808D02*
X2137Y1811D01*
D02*
X2386Y1724D02*
X2298Y1808D01*
D02*
X2077Y1812D02*
X2037Y1812D01*
D02*
X1977Y1812D02*
X1937Y1812D01*
D02*
X1877Y1812D02*
X1837Y1812D01*
D02*
X1777Y1812D02*
X1737Y1812D01*
D02*
X1677Y1812D02*
X1637Y1812D01*
D02*
X1607Y1812D02*
X1537Y1812D01*
D02*
X1477Y1812D02*
X1437Y1812D01*
D02*
X1377Y1812D02*
X1337Y1812D01*
D02*
X610Y529D02*
X205Y534D01*
D02*
X205Y534D02*
X131Y593D01*
D02*
X608Y582D02*
X610Y529D01*
D02*
X1607Y914D02*
X1607Y872D01*
D02*
X1507Y914D02*
X1507Y872D01*
D02*
X1607Y1414D02*
X1607Y1364D01*
D02*
X1507Y1364D02*
X1507Y1414D01*
D02*
X388Y812D02*
X137Y812D01*
D02*
X107Y712D02*
X478Y619D01*
D02*
X36Y688D02*
X87Y634D01*
D02*
X36Y945D02*
X36Y688D01*
D02*
X85Y991D02*
X36Y945D01*
D02*
X856Y692D02*
X703Y692D01*
D02*
X981Y626D02*
X856Y692D01*
D02*
X703Y692D02*
X630Y631D01*
D02*
X1498Y1268D02*
X1661Y1265D01*
D02*
X1504Y1314D02*
X1498Y1268D01*
G54D18*
D02*
X1372Y41D02*
X1331Y86D01*
D02*
X1643Y39D02*
X1372Y41D01*
D02*
X1684Y85D02*
X1643Y39D01*
D02*
X1232Y41D02*
X1281Y88D01*
D02*
X829Y42D02*
X1232Y41D01*
G54D17*
D02*
X34Y1161D02*
X32Y1234D01*
D02*
X132Y1088D02*
X34Y1161D01*
D02*
X32Y1234D02*
X86Y1290D01*
D02*
X235Y1088D02*
X132Y1088D01*
D02*
X167Y1143D02*
X127Y1189D01*
D02*
X296Y1147D02*
X167Y1143D01*
D02*
X1383Y994D02*
X1403Y871D01*
D02*
X1316Y1045D02*
X1383Y994D01*
D02*
X390Y1082D02*
X1316Y1045D01*
D02*
X32Y1668D02*
X32Y1488D01*
D02*
X45Y1703D02*
X32Y1668D01*
D02*
X32Y1488D02*
X86Y1433D01*
D02*
X101Y1725D02*
X45Y1703D01*
D02*
X196Y1699D02*
X101Y1725D01*
D02*
X2059Y1186D02*
X2625Y1279D01*
D02*
X2678Y1381D02*
X2614Y1674D01*
D02*
X2625Y1279D02*
X2678Y1381D01*
D02*
X2581Y1528D02*
X2519Y1676D01*
D02*
X1984Y1226D02*
X2558Y1305D01*
D02*
X2621Y1368D02*
X2581Y1528D01*
D02*
X2558Y1305D02*
X2621Y1368D01*
D02*
X1086Y862D02*
X1036Y903D01*
D02*
X1036Y903D02*
X460Y907D01*
D02*
X1176Y910D02*
X1195Y869D01*
D02*
X1096Y950D02*
X1176Y910D01*
D02*
X338Y959D02*
X1096Y950D01*
D02*
X1270Y963D02*
X1299Y870D01*
D02*
X1203Y1001D02*
X1270Y963D01*
D02*
X275Y1014D02*
X1203Y1001D01*
D02*
X1707Y1373D02*
X1631Y1347D01*
D02*
X2118Y1081D02*
X1402Y1090D01*
D02*
X1402Y1090D02*
X731Y1161D01*
D02*
X2077Y1123D02*
X1463Y1129D01*
D02*
X1463Y1129D02*
X664Y1217D01*
D02*
X2644Y1226D02*
X2077Y1123D01*
D02*
X2686Y1184D02*
X2118Y1081D01*
D02*
X2305Y1550D02*
X2307Y1674D01*
D02*
X2511Y1357D02*
X1707Y1373D01*
D02*
X1196Y492D02*
X1402Y404D01*
D02*
X1402Y404D02*
X2455Y395D01*
D02*
X1457Y440D02*
X2538Y448D01*
D02*
X1270Y536D02*
X1457Y440D01*
D02*
X1227Y589D02*
X1270Y536D01*
D02*
X1125Y588D02*
X1196Y492D01*
D02*
X1730Y692D02*
X1898Y543D01*
D02*
X1898Y543D02*
X2672Y543D01*
D02*
X1830Y692D02*
X1947Y585D01*
D02*
X1947Y585D02*
X2627Y590D01*
D02*
X1929Y692D02*
X1998Y628D01*
D02*
X1998Y628D02*
X2583Y637D01*
D02*
X187Y485D02*
X1047Y482D01*
D02*
X130Y432D02*
X187Y485D01*
D02*
X237Y412D02*
X1188Y417D01*
D02*
X1625Y496D02*
X1529Y591D01*
D02*
X1988Y498D02*
X1625Y496D01*
D02*
X1965Y323D02*
X514Y321D01*
D02*
X2032Y250D02*
X1965Y323D01*
D02*
X514Y321D02*
X321Y139D01*
D02*
X321Y139D02*
X196Y136D01*
D02*
X196Y136D02*
X130Y193D01*
D02*
X2013Y142D02*
X2032Y250D01*
D02*
X1998Y361D02*
X514Y368D01*
D02*
X2103Y285D02*
X1998Y361D01*
D02*
X514Y368D02*
X310Y285D01*
D02*
X310Y285D02*
X232Y230D01*
D02*
X2107Y142D02*
X2103Y285D01*
D02*
X32Y256D02*
X83Y294D01*
D02*
X34Y163D02*
X32Y256D01*
D02*
X138Y99D02*
X34Y163D01*
D02*
X345Y99D02*
X138Y99D01*
D02*
X461Y205D02*
X345Y99D01*
D02*
X1933Y198D02*
X461Y205D01*
D02*
X743Y265D02*
X1933Y268D01*
G04 End of Copper1*
M02*