G04 MADE WITH FRITZING*
G04 WWW.FRITZING.ORG*
G04 DOUBLE SIDED*
G04 HOLES PLATED*
G04 CONTOUR ON CENTER OF CONTOUR VECTOR*
%ASAXBY*%
%FSLAX23Y23*%
%MOIN*%
%OFA0B0*%
%SFA1.0B1.0*%
%ADD10C,0.039370*%
%ADD11C,0.075000*%
%ADD12C,0.078000*%
%ADD13C,0.065000*%
%ADD14C,0.070925*%
%ADD15C,0.070866*%
%ADD16R,0.075000X0.075000*%
%ADD17C,0.024000*%
%ADD18C,0.032000*%
%LNCOPPER1*%
G90*
G70*
G54D10*
X1981Y1312D03*
X407Y812D03*
X805Y43D03*
X1661Y1265D03*
X256Y1014D03*
X319Y959D03*
X371Y1083D03*
X427Y905D03*
X254Y1088D03*
X315Y1148D03*
X183Y1694D03*
X2043Y1261D03*
X2530Y1356D03*
X2305Y1531D03*
X712Y1163D03*
X645Y1219D03*
X2663Y1230D03*
X2705Y1188D03*
X2474Y395D03*
X2557Y448D03*
X2602Y637D03*
X2646Y590D03*
X2691Y543D03*
X2007Y498D03*
X1066Y481D03*
X1207Y418D03*
X724Y265D03*
X1952Y268D03*
X1952Y198D03*
G54D11*
X607Y843D03*
X607Y1443D03*
X707Y843D03*
X707Y1443D03*
X807Y843D03*
X807Y1443D03*
X907Y843D03*
X907Y1443D03*
X1007Y843D03*
X1007Y1443D03*
X1107Y843D03*
X1107Y1443D03*
X1207Y843D03*
X1207Y1443D03*
X1307Y843D03*
X1307Y1443D03*
X1407Y843D03*
X1407Y1443D03*
X1507Y843D03*
X1507Y1443D03*
X1607Y843D03*
X1607Y1443D03*
X1707Y843D03*
X1707Y1443D03*
X1807Y843D03*
X1807Y1443D03*
X1907Y843D03*
X1907Y1443D03*
X2007Y843D03*
X2007Y1443D03*
X2107Y843D03*
X2107Y1443D03*
X2207Y843D03*
X2207Y1443D03*
X2307Y843D03*
X2307Y1443D03*
X2407Y843D03*
X2407Y1443D03*
X2507Y843D03*
X2507Y1443D03*
G54D12*
X207Y1612D03*
X207Y1512D03*
X207Y1412D03*
X207Y1312D03*
X207Y1212D03*
X257Y1845D03*
X2602Y1834D03*
X2535Y115D03*
X513Y90D03*
X107Y1612D03*
X107Y1512D03*
X107Y1412D03*
X107Y1312D03*
X107Y1212D03*
X107Y612D03*
X107Y712D03*
X107Y812D03*
X207Y412D03*
X107Y412D03*
X207Y312D03*
X107Y312D03*
X207Y212D03*
X107Y212D03*
X607Y1812D03*
X707Y1812D03*
X807Y1812D03*
X907Y1812D03*
X2107Y1812D03*
X2007Y1812D03*
X1907Y1812D03*
X1807Y1812D03*
X1707Y1812D03*
X1607Y1812D03*
X1507Y1812D03*
X1407Y1812D03*
X1307Y1812D03*
X1207Y1812D03*
X1107Y1812D03*
X1007Y1812D03*
X1007Y1712D03*
X1107Y1712D03*
X1207Y1712D03*
X1307Y1712D03*
X1407Y1712D03*
X1507Y1712D03*
X1607Y1712D03*
X1707Y1712D03*
X1807Y1712D03*
X1907Y1712D03*
X2007Y1712D03*
X2107Y1712D03*
X2307Y1704D03*
X2407Y1704D03*
X2507Y1704D03*
X2607Y1704D03*
X107Y1012D03*
X107Y912D03*
X1707Y712D03*
X1807Y712D03*
X1907Y712D03*
X2007Y712D03*
X2107Y712D03*
X2207Y712D03*
X2307Y712D03*
X2407Y712D03*
X1707Y112D03*
X1807Y112D03*
X1907Y112D03*
X2007Y112D03*
X2107Y112D03*
X2207Y112D03*
X2307Y112D03*
X2407Y112D03*
X1507Y112D03*
X1407Y112D03*
X1307Y112D03*
X1207Y112D03*
X1107Y112D03*
X1007Y112D03*
X1507Y612D03*
X1407Y612D03*
X1307Y612D03*
X1207Y612D03*
X1107Y612D03*
X1007Y612D03*
X507Y612D03*
X607Y612D03*
X707Y612D03*
X807Y612D03*
G54D13*
X1607Y939D03*
X1507Y939D03*
X1607Y939D03*
X1507Y939D03*
X1507Y1339D03*
X1607Y1339D03*
X1507Y1339D03*
X1607Y1339D03*
G54D14*
X1807Y1019D03*
G54D15*
X1807Y1212D03*
G54D16*
X607Y843D03*
G54D17*
X1277Y1812D02*
X1237Y1812D01*
D02*
X1177Y1812D02*
X1137Y1812D01*
D02*
X1077Y1812D02*
X1037Y1812D01*
D02*
X1005Y1881D02*
X707Y1879D01*
D02*
X707Y1879D02*
X707Y1842D01*
D02*
X1006Y1842D02*
X1005Y1881D01*
D02*
X207Y1242D02*
X207Y1282D01*
D02*
X207Y1342D02*
X207Y1382D01*
D02*
X283Y1512D02*
X276Y1736D01*
D02*
X276Y1736D02*
X707Y1734D01*
D02*
X707Y1734D02*
X707Y1782D01*
D02*
X237Y1512D02*
X283Y1512D01*
D02*
X2410Y1812D02*
X2137Y1812D01*
D02*
X2408Y1734D02*
X2410Y1812D01*
D02*
X2077Y1812D02*
X2037Y1812D01*
D02*
X1977Y1812D02*
X1937Y1812D01*
D02*
X1877Y1812D02*
X1837Y1812D01*
D02*
X1777Y1812D02*
X1737Y1812D01*
D02*
X1677Y1812D02*
X1637Y1812D01*
D02*
X1607Y1812D02*
X1537Y1812D01*
D02*
X1477Y1812D02*
X1437Y1812D01*
D02*
X1377Y1812D02*
X1337Y1812D01*
D02*
X610Y529D02*
X110Y529D01*
D02*
X110Y529D02*
X108Y582D01*
D02*
X608Y582D02*
X610Y529D01*
D02*
X1607Y914D02*
X1607Y872D01*
D02*
X1507Y914D02*
X1507Y872D01*
D02*
X1607Y1414D02*
X1607Y1364D01*
D02*
X1507Y1364D02*
X1507Y1414D01*
D02*
X388Y812D02*
X137Y812D01*
D02*
X107Y712D02*
X478Y619D01*
D02*
X34Y610D02*
X77Y611D01*
D02*
X32Y1012D02*
X34Y610D01*
D02*
X77Y1012D02*
X32Y1012D01*
D02*
X1007Y712D02*
X607Y712D01*
D02*
X1007Y642D02*
X1007Y712D01*
D02*
X607Y712D02*
X607Y642D01*
D02*
X1498Y1268D02*
X1661Y1265D01*
D02*
X1504Y1314D02*
X1498Y1268D01*
G54D18*
D02*
X1305Y43D02*
X1306Y82D01*
D02*
X1705Y37D02*
X1305Y43D01*
D02*
X1706Y82D02*
X1705Y37D01*
D02*
X1305Y37D02*
X1306Y82D01*
D02*
X824Y42D02*
X1305Y37D01*
G54D17*
D02*
X32Y1083D02*
X32Y1312D01*
D02*
X32Y1312D02*
X77Y1312D01*
D02*
X235Y1087D02*
X32Y1083D01*
D02*
X110Y1143D02*
X108Y1182D01*
D02*
X296Y1148D02*
X110Y1143D01*
D02*
X1405Y1032D02*
X1407Y872D01*
D02*
X390Y1082D02*
X1405Y1032D01*
D02*
X32Y1694D02*
X27Y1414D01*
D02*
X27Y1414D02*
X77Y1413D01*
D02*
X164Y1694D02*
X32Y1694D01*
D02*
X2062Y1261D02*
X2625Y1279D01*
D02*
X2625Y1279D02*
X2609Y1674D01*
D02*
X2503Y1530D02*
X2507Y1674D01*
D02*
X2581Y1528D02*
X2503Y1530D01*
D02*
X2000Y1312D02*
X2583Y1314D01*
D02*
X2583Y1314D02*
X2581Y1528D01*
D02*
X1107Y901D02*
X421Y912D01*
D02*
X1107Y872D02*
X1107Y901D01*
D02*
X421Y912D02*
X414Y919D01*
D02*
X1207Y943D02*
X1207Y872D01*
D02*
X338Y959D02*
X1207Y943D01*
D02*
X1301Y996D02*
X1306Y872D01*
D02*
X275Y1014D02*
X1301Y996D01*
D02*
X1707Y1373D02*
X1631Y1347D01*
D02*
X2118Y1176D02*
X2118Y1081D01*
D02*
X2118Y1081D02*
X1402Y1090D01*
D02*
X1402Y1090D02*
X1405Y1161D01*
D02*
X1405Y1161D02*
X731Y1163D01*
D02*
X2076Y1219D02*
X2077Y1123D01*
D02*
X2077Y1123D02*
X1463Y1129D01*
D02*
X1463Y1129D02*
X1463Y1223D01*
D02*
X1463Y1223D02*
X664Y1219D01*
D02*
X2644Y1229D02*
X2076Y1219D01*
D02*
X2686Y1187D02*
X2118Y1176D01*
D02*
X2305Y1550D02*
X2307Y1674D01*
D02*
X2511Y1357D02*
X1707Y1373D01*
D02*
X1402Y495D02*
X1402Y404D01*
D02*
X1402Y404D02*
X2455Y395D01*
D02*
X1457Y531D02*
X1457Y440D01*
D02*
X1457Y440D02*
X2538Y448D01*
D02*
X1210Y529D02*
X1457Y531D01*
D02*
X1208Y582D02*
X1210Y529D01*
D02*
X1107Y490D02*
X1402Y495D01*
D02*
X1107Y582D02*
X1107Y490D01*
D02*
X1707Y682D02*
X1707Y548D01*
D02*
X1707Y548D02*
X2672Y543D01*
D02*
X1809Y682D02*
X1813Y584D01*
D02*
X1813Y584D02*
X2627Y590D01*
D02*
X1909Y682D02*
X1913Y629D01*
D02*
X1913Y629D02*
X2583Y637D01*
D02*
X99Y487D02*
X1047Y482D01*
D02*
X104Y442D02*
X99Y487D01*
D02*
X237Y412D02*
X1188Y417D01*
D02*
X1513Y493D02*
X1509Y582D01*
D02*
X1988Y498D02*
X1513Y493D01*
D02*
X2007Y318D02*
X368Y323D01*
D02*
X368Y323D02*
X366Y137D01*
D02*
X366Y137D02*
X105Y137D01*
D02*
X105Y137D02*
X106Y182D01*
D02*
X2007Y142D02*
X2007Y318D01*
D02*
X2105Y362D02*
X316Y368D01*
D02*
X316Y368D02*
X318Y215D01*
D02*
X318Y215D02*
X237Y213D01*
D02*
X2107Y142D02*
X2105Y362D01*
D02*
X32Y312D02*
X77Y312D01*
D02*
X38Y104D02*
X32Y312D01*
D02*
X427Y101D02*
X38Y104D01*
D02*
X430Y215D02*
X427Y101D01*
D02*
X1933Y198D02*
X430Y215D01*
D02*
X743Y265D02*
X1933Y268D01*
G04 End of Copper1*
M02*