G04 MADE WITH FRITZING*
G04 WWW.FRITZING.ORG*
G04 DOUBLE SIDED*
G04 HOLES PLATED*
G04 CONTOUR ON CENTER OF CONTOUR VECTOR*
%ASAXBY*%
%FSLAX23Y23*%
%MOIN*%
%OFA0B0*%
%SFA1.0B1.0*%
%ADD10C,0.039370*%
%ADD11C,0.075000*%
%ADD12C,0.078000*%
%ADD13C,0.065000*%
%ADD14C,0.070925*%
%ADD15C,0.070866*%
%ADD16R,0.075000X0.075000*%
%ADD17R,0.035433X0.027559*%
%ADD18C,0.024000*%
%ADD19C,0.032000*%
%LNCOPPER0*%
G90*
G70*
G54D10*
X1965Y1223D03*
X407Y812D03*
X805Y43D03*
X1661Y1265D03*
X256Y1014D03*
X319Y959D03*
X371Y1083D03*
X441Y908D03*
X254Y1088D03*
X315Y1148D03*
X214Y1694D03*
X2041Y1183D03*
X2530Y1356D03*
X2305Y1531D03*
X712Y1163D03*
X645Y1219D03*
X2663Y1230D03*
X2705Y1188D03*
X2474Y395D03*
X2557Y448D03*
X2602Y637D03*
X2646Y590D03*
X2691Y543D03*
X2007Y498D03*
X1066Y481D03*
X1207Y418D03*
X724Y265D03*
X1952Y268D03*
X1952Y198D03*
G54D11*
X607Y843D03*
X607Y1443D03*
X707Y843D03*
X707Y1443D03*
X807Y843D03*
X807Y1443D03*
X907Y843D03*
X907Y1443D03*
X1007Y843D03*
X1007Y1443D03*
X1107Y843D03*
X1107Y1443D03*
X1207Y843D03*
X1207Y1443D03*
X1307Y843D03*
X1307Y1443D03*
X1407Y843D03*
X1407Y1443D03*
X1507Y843D03*
X1507Y1443D03*
X1607Y843D03*
X1607Y1443D03*
X1707Y843D03*
X1707Y1443D03*
X1807Y843D03*
X1807Y1443D03*
X1907Y843D03*
X1907Y1443D03*
X2007Y843D03*
X2007Y1443D03*
X2107Y843D03*
X2107Y1443D03*
X2207Y843D03*
X2207Y1443D03*
X2307Y843D03*
X2307Y1443D03*
X2407Y843D03*
X2407Y1443D03*
X2507Y843D03*
X2507Y1443D03*
G54D12*
X207Y1612D03*
X207Y1512D03*
X207Y1412D03*
X207Y1312D03*
X207Y1212D03*
X307Y1812D03*
X2507Y1812D03*
X2507Y112D03*
X507Y112D03*
X107Y1612D03*
X107Y1512D03*
X107Y1412D03*
X107Y1312D03*
X107Y1212D03*
X107Y612D03*
X107Y712D03*
X107Y812D03*
X207Y412D03*
X107Y412D03*
X207Y312D03*
X107Y312D03*
X207Y212D03*
X107Y212D03*
X607Y1812D03*
X707Y1812D03*
X807Y1812D03*
X907Y1812D03*
X2107Y1812D03*
X2007Y1812D03*
X1907Y1812D03*
X1807Y1812D03*
X1707Y1812D03*
X1607Y1812D03*
X1507Y1812D03*
X1407Y1812D03*
X1307Y1812D03*
X1207Y1812D03*
X1107Y1812D03*
X1007Y1812D03*
X1007Y1712D03*
X1107Y1712D03*
X1207Y1712D03*
X1307Y1712D03*
X1407Y1712D03*
X1507Y1712D03*
X1607Y1712D03*
X1707Y1712D03*
X1807Y1712D03*
X1907Y1712D03*
X2007Y1712D03*
X2107Y1712D03*
X2307Y1704D03*
X2407Y1704D03*
X2507Y1704D03*
X2607Y1704D03*
X107Y1012D03*
X107Y912D03*
X1707Y712D03*
X1807Y712D03*
X1907Y712D03*
X2007Y712D03*
X2107Y712D03*
X2207Y712D03*
X2307Y712D03*
X2407Y712D03*
X1707Y112D03*
X1807Y112D03*
X1907Y112D03*
X2007Y112D03*
X2107Y112D03*
X2207Y112D03*
X2307Y112D03*
X2407Y112D03*
X1507Y112D03*
X1407Y112D03*
X1307Y112D03*
X1207Y112D03*
X1107Y112D03*
X1007Y112D03*
X1507Y612D03*
X1407Y612D03*
X1307Y612D03*
X1207Y612D03*
X1107Y612D03*
X1007Y612D03*
X507Y612D03*
X607Y612D03*
X707Y612D03*
X807Y612D03*
G54D13*
X1607Y939D03*
X1507Y939D03*
X1507Y1339D03*
X1607Y1339D03*
G54D14*
X1807Y1019D03*
G54D15*
X1807Y1212D03*
G54D16*
X607Y843D03*
G54D17*
X609Y1693D03*
X609Y1744D03*
X809Y1693D03*
X809Y1744D03*
X909Y1693D03*
X909Y1744D03*
X1009Y1593D03*
X1009Y1644D03*
X1109Y1593D03*
X1109Y1644D03*
X1209Y1593D03*
X1209Y1644D03*
X1309Y1593D03*
X1309Y1644D03*
X1409Y1593D03*
X1409Y1644D03*
X1509Y1593D03*
X1509Y1644D03*
X1609Y1593D03*
X1609Y1644D03*
X1709Y1593D03*
X1709Y1644D03*
X1809Y1593D03*
X1809Y1644D03*
X1909Y1593D03*
X1909Y1644D03*
X2009Y1593D03*
X2009Y1644D03*
X2109Y1593D03*
X2109Y1644D03*
G54D18*
X1007Y1594D02*
X1009Y1593D01*
D02*
X923Y1467D02*
X1007Y1594D01*
D02*
X609Y1752D02*
X607Y1812D01*
D02*
X809Y1752D02*
X807Y1812D01*
D02*
X909Y1752D02*
X907Y1812D01*
D02*
X1009Y1652D02*
X1007Y1712D01*
D02*
X1109Y1652D02*
X1107Y1712D01*
D02*
X1209Y1652D02*
X1207Y1712D01*
D02*
X1309Y1652D02*
X1307Y1712D01*
D02*
X1409Y1652D02*
X1407Y1712D01*
D02*
X1509Y1652D02*
X1507Y1712D01*
D02*
X1609Y1652D02*
X1607Y1712D01*
D02*
X1709Y1652D02*
X1707Y1712D01*
D02*
X1809Y1652D02*
X1807Y1712D01*
D02*
X1909Y1652D02*
X1907Y1712D01*
D02*
X2109Y1652D02*
X2107Y1712D01*
D02*
X2009Y1652D02*
X2007Y1712D01*
D02*
X207Y1412D02*
X207Y1482D01*
D02*
X1794Y996D02*
X1722Y868D01*
D02*
X1863Y1168D02*
X1887Y1014D01*
D02*
X1887Y1014D02*
X1819Y869D01*
D02*
X1828Y1195D02*
X1863Y1168D01*
G54D19*
D02*
X603Y521D02*
X707Y612D01*
D02*
X390Y521D02*
X603Y521D01*
D02*
X205Y605D02*
X390Y521D01*
D02*
X207Y805D02*
X205Y605D01*
D02*
X132Y886D02*
X207Y805D01*
D02*
X807Y612D02*
X743Y612D01*
G54D18*
D02*
X207Y1212D02*
X121Y1039D01*
D02*
X821Y768D02*
X478Y770D01*
D02*
X478Y770D02*
X424Y802D01*
D02*
X886Y824D02*
X821Y768D01*
D02*
X607Y1412D02*
X607Y1414D01*
D02*
X609Y1684D02*
X607Y1412D01*
D02*
X707Y1412D02*
X707Y1414D01*
D02*
X806Y1684D02*
X707Y1412D01*
D02*
X807Y1412D02*
X807Y1414D01*
D02*
X906Y1684D02*
X807Y1412D01*
D02*
X1107Y1594D02*
X1109Y1593D01*
D02*
X1022Y1593D02*
X1107Y1594D01*
D02*
X1212Y1588D02*
X1209Y1593D01*
D02*
X1157Y1554D02*
X1212Y1588D01*
D02*
X1070Y1523D02*
X1157Y1554D01*
D02*
X1025Y1466D02*
X1070Y1523D01*
D02*
X1307Y1594D02*
X1309Y1593D01*
D02*
X1222Y1593D02*
X1307Y1594D01*
D02*
X1410Y1592D02*
X1409Y1593D01*
D02*
X1346Y1534D02*
X1410Y1592D01*
D02*
X1202Y1520D02*
X1346Y1534D01*
D02*
X1130Y1461D02*
X1202Y1520D01*
D02*
X1503Y1594D02*
X1509Y1593D01*
D02*
X1422Y1593D02*
X1503Y1594D01*
D02*
X1612Y1594D02*
X1692Y1467D01*
D02*
X1609Y1593D02*
X1612Y1594D01*
D02*
X1712Y1588D02*
X1792Y1467D01*
D02*
X1709Y1593D02*
X1712Y1588D01*
D02*
X1910Y1588D02*
X1909Y1593D01*
D02*
X1822Y1592D02*
X1910Y1588D01*
D02*
X2112Y1592D02*
X2109Y1593D01*
D02*
X2022Y1593D02*
X2112Y1592D01*
D02*
X2407Y142D02*
X2407Y682D01*
D02*
X2343Y39D02*
X2387Y89D01*
D02*
X1983Y43D02*
X2343Y39D01*
D02*
X1930Y92D02*
X1983Y43D01*
D02*
X1607Y612D02*
X1607Y814D01*
D02*
X1907Y290D02*
X1607Y612D01*
D02*
X1907Y142D02*
X1907Y290D01*
D02*
X1825Y39D02*
X1007Y40D01*
D02*
X1007Y40D02*
X1007Y82D01*
D02*
X1885Y92D02*
X1825Y39D01*
D02*
X1607Y1312D02*
X1514Y963D01*
D02*
X1607Y1314D02*
X1607Y1312D01*
D02*
X1507Y814D02*
X1507Y642D01*
D02*
X1792Y138D02*
X1507Y612D01*
G54D19*
D02*
X807Y576D02*
X805Y67D01*
G54D18*
D02*
X1658Y1247D02*
X1611Y964D01*
D02*
X383Y1694D02*
X107Y1772D01*
D02*
X107Y1772D02*
X107Y1642D01*
D02*
X439Y926D02*
X383Y1694D01*
D02*
X255Y1069D02*
X256Y1033D01*
D02*
X315Y1129D02*
X319Y978D01*
D02*
X332Y1665D02*
X232Y1690D01*
D02*
X370Y1102D02*
X332Y1665D01*
D02*
X1912Y871D02*
X1962Y1204D01*
D02*
X2010Y872D02*
X2039Y1164D01*
D02*
X2607Y1399D02*
X2610Y1476D01*
D02*
X2541Y1534D02*
X2412Y1545D01*
D02*
X2412Y1545D02*
X2324Y1534D01*
D02*
X2610Y1476D02*
X2541Y1534D01*
D02*
X2546Y1366D02*
X2607Y1399D01*
D02*
X643Y1200D02*
X610Y872D01*
D02*
X708Y872D02*
X712Y1144D01*
D02*
X2710Y1590D02*
X2705Y1207D01*
D02*
X2558Y1636D02*
X2710Y1590D01*
D02*
X2196Y1641D02*
X2558Y1636D01*
D02*
X2122Y1599D02*
X2196Y1641D01*
D02*
X2658Y1541D02*
X2663Y1249D01*
D02*
X1963Y1543D02*
X2165Y1539D01*
D02*
X2165Y1539D02*
X2243Y1581D01*
D02*
X2556Y1581D02*
X2658Y1541D01*
D02*
X2243Y1581D02*
X2556Y1581D01*
D02*
X1918Y1584D02*
X1963Y1543D01*
D02*
X2499Y748D02*
X2427Y822D01*
D02*
X2475Y414D02*
X2499Y748D01*
D02*
X2307Y840D02*
X2307Y814D01*
D02*
X2307Y742D02*
X2307Y840D01*
D02*
X2207Y843D02*
X2207Y814D01*
D02*
X2207Y742D02*
X2207Y843D01*
D02*
X2107Y831D02*
X2107Y814D01*
D02*
X2107Y742D02*
X2107Y831D01*
D02*
X2546Y759D02*
X2519Y817D01*
D02*
X2557Y467D02*
X2546Y759D01*
D02*
X2385Y1005D02*
X2305Y1099D01*
D02*
X2532Y990D02*
X2385Y1005D01*
D02*
X2591Y931D02*
X2532Y990D01*
D02*
X2305Y1099D02*
X2307Y1414D01*
D02*
X2601Y656D02*
X2591Y931D01*
D02*
X2646Y609D02*
X2632Y981D01*
D02*
X2632Y981D02*
X2574Y1034D01*
D02*
X2461Y1041D02*
X2412Y1065D01*
D02*
X2412Y1065D02*
X2408Y1414D01*
D02*
X2574Y1034D02*
X2461Y1041D01*
D02*
X2690Y562D02*
X2682Y1043D01*
D02*
X2682Y1043D02*
X2616Y1094D01*
D02*
X2460Y1384D02*
X2489Y1421D01*
D02*
X2518Y1101D02*
X2461Y1161D01*
D02*
X2461Y1161D02*
X2460Y1384D01*
D02*
X2616Y1094D02*
X2518Y1101D01*
D02*
X2007Y517D02*
X2007Y682D01*
D02*
X1392Y703D02*
X1484Y631D01*
D02*
X499Y704D02*
X1392Y703D01*
D02*
X505Y642D02*
X499Y704D01*
D02*
X705Y267D02*
X237Y309D01*
D02*
X1207Y142D02*
X1207Y399D01*
D02*
X1068Y206D02*
X1066Y462D01*
D02*
X1096Y140D02*
X1068Y206D01*
D02*
X1007Y112D02*
X1007Y582D01*
D02*
X2196Y268D02*
X1971Y268D01*
D02*
X2305Y205D02*
X2196Y268D01*
D02*
X2307Y142D02*
X2305Y205D01*
D02*
X2143Y199D02*
X1971Y198D01*
D02*
X2189Y136D02*
X2143Y199D01*
G04 End of Copper0*
M02*