G04 MADE WITH FRITZING*
G04 WWW.FRITZING.ORG*
G04 DOUBLE SIDED*
G04 HOLES PLATED*
G04 CONTOUR ON CENTER OF CONTOUR VECTOR*
%ASAXBY*%
%FSLAX23Y23*%
%MOIN*%
%OFA0B0*%
%SFA1.0B1.0*%
%ADD10C,0.039370*%
%ADD11C,0.075000*%
%ADD12C,0.078000*%
%ADD13C,0.065000*%
%ADD14C,0.070925*%
%ADD15C,0.070866*%
%ADD16R,0.075000X0.075000*%
%ADD17R,0.035433X0.027559*%
%ADD18C,0.024000*%
%ADD19C,0.032000*%
%LNCOPPER0*%
G90*
G70*
G54D10*
X1981Y1312D03*
X407Y812D03*
X805Y43D03*
X1661Y1265D03*
X256Y1014D03*
X319Y959D03*
X371Y1083D03*
X427Y905D03*
X254Y1088D03*
X315Y1148D03*
X183Y1694D03*
X2043Y1261D03*
X2530Y1356D03*
X2305Y1531D03*
X712Y1163D03*
X645Y1219D03*
X2663Y1230D03*
X2705Y1188D03*
X2474Y395D03*
X2557Y448D03*
X2602Y637D03*
X2646Y590D03*
X2691Y543D03*
X2007Y498D03*
X1066Y481D03*
X1207Y418D03*
X724Y265D03*
X1952Y268D03*
X1952Y198D03*
G54D11*
X607Y843D03*
X607Y1443D03*
X707Y843D03*
X707Y1443D03*
X807Y843D03*
X807Y1443D03*
X907Y843D03*
X907Y1443D03*
X1007Y843D03*
X1007Y1443D03*
X1107Y843D03*
X1107Y1443D03*
X1207Y843D03*
X1207Y1443D03*
X1307Y843D03*
X1307Y1443D03*
X1407Y843D03*
X1407Y1443D03*
X1507Y843D03*
X1507Y1443D03*
X1607Y843D03*
X1607Y1443D03*
X1707Y843D03*
X1707Y1443D03*
X1807Y843D03*
X1807Y1443D03*
X1907Y843D03*
X1907Y1443D03*
X2007Y843D03*
X2007Y1443D03*
X2107Y843D03*
X2107Y1443D03*
X2207Y843D03*
X2207Y1443D03*
X2307Y843D03*
X2307Y1443D03*
X2407Y843D03*
X2407Y1443D03*
X2507Y843D03*
X2507Y1443D03*
G54D12*
X207Y1612D03*
X207Y1512D03*
X207Y1412D03*
X207Y1312D03*
X207Y1212D03*
X257Y1845D03*
X2602Y1834D03*
X2535Y115D03*
X513Y90D03*
X107Y1612D03*
X107Y1512D03*
X107Y1412D03*
X107Y1312D03*
X107Y1212D03*
X107Y612D03*
X107Y712D03*
X107Y812D03*
X207Y412D03*
X107Y412D03*
X207Y312D03*
X107Y312D03*
X207Y212D03*
X107Y212D03*
X607Y1812D03*
X707Y1812D03*
X807Y1812D03*
X907Y1812D03*
X2107Y1812D03*
X2007Y1812D03*
X1907Y1812D03*
X1807Y1812D03*
X1707Y1812D03*
X1607Y1812D03*
X1507Y1812D03*
X1407Y1812D03*
X1307Y1812D03*
X1207Y1812D03*
X1107Y1812D03*
X1007Y1812D03*
X1007Y1712D03*
X1107Y1712D03*
X1207Y1712D03*
X1307Y1712D03*
X1407Y1712D03*
X1507Y1712D03*
X1607Y1712D03*
X1707Y1712D03*
X1807Y1712D03*
X1907Y1712D03*
X2007Y1712D03*
X2107Y1712D03*
X2307Y1704D03*
X2407Y1704D03*
X2507Y1704D03*
X2607Y1704D03*
X107Y1012D03*
X107Y912D03*
X1707Y712D03*
X1807Y712D03*
X1907Y712D03*
X2007Y712D03*
X2107Y712D03*
X2207Y712D03*
X2307Y712D03*
X2407Y712D03*
X1707Y112D03*
X1807Y112D03*
X1907Y112D03*
X2007Y112D03*
X2107Y112D03*
X2207Y112D03*
X2307Y112D03*
X2407Y112D03*
X1507Y112D03*
X1407Y112D03*
X1307Y112D03*
X1207Y112D03*
X1107Y112D03*
X1007Y112D03*
X1507Y612D03*
X1407Y612D03*
X1307Y612D03*
X1207Y612D03*
X1107Y612D03*
X1007Y612D03*
X507Y612D03*
X607Y612D03*
X707Y612D03*
X807Y612D03*
G54D13*
X1607Y939D03*
X1507Y939D03*
X1507Y1339D03*
X1607Y1339D03*
G54D14*
X1807Y1019D03*
G54D15*
X1807Y1212D03*
G54D16*
X607Y843D03*
G54D17*
X609Y1693D03*
X609Y1744D03*
X809Y1693D03*
X809Y1744D03*
X909Y1693D03*
X909Y1744D03*
X1009Y1593D03*
X1009Y1644D03*
X1109Y1593D03*
X1109Y1644D03*
X1209Y1593D03*
X1209Y1644D03*
X1309Y1593D03*
X1309Y1644D03*
X1409Y1593D03*
X1409Y1644D03*
X1509Y1593D03*
X1509Y1644D03*
X1609Y1593D03*
X1609Y1644D03*
X1709Y1593D03*
X1709Y1644D03*
X1809Y1593D03*
X1809Y1644D03*
X1909Y1593D03*
X1909Y1644D03*
X2009Y1593D03*
X2009Y1644D03*
X2109Y1593D03*
X2109Y1644D03*
G54D18*
X609Y1752D02*
X607Y1812D01*
D02*
X809Y1752D02*
X807Y1812D01*
D02*
X909Y1752D02*
X907Y1812D01*
D02*
X1009Y1652D02*
X1007Y1712D01*
D02*
X1109Y1652D02*
X1107Y1712D01*
D02*
X1209Y1652D02*
X1207Y1712D01*
D02*
X1309Y1652D02*
X1307Y1712D01*
D02*
X1409Y1652D02*
X1407Y1712D01*
D02*
X1509Y1652D02*
X1507Y1712D01*
D02*
X1609Y1652D02*
X1607Y1712D01*
D02*
X1709Y1652D02*
X1707Y1712D01*
D02*
X1809Y1652D02*
X1807Y1712D01*
D02*
X1909Y1652D02*
X1907Y1712D01*
D02*
X2109Y1652D02*
X2107Y1712D01*
D02*
X2009Y1652D02*
X2007Y1712D01*
D02*
X207Y1412D02*
X207Y1482D01*
D02*
X1794Y996D02*
X1722Y868D01*
D02*
X1890Y1212D02*
X1887Y1014D01*
D02*
X1887Y1014D02*
X1819Y869D01*
D02*
X1834Y1212D02*
X1890Y1212D01*
G54D19*
D02*
X707Y512D02*
X707Y612D01*
D02*
X207Y512D02*
X707Y512D01*
D02*
X207Y912D02*
X207Y512D01*
D02*
X137Y912D02*
X207Y912D01*
D02*
X807Y612D02*
X737Y612D01*
G54D18*
D02*
X207Y1212D02*
X121Y1039D01*
D02*
X912Y774D02*
X407Y774D01*
D02*
X407Y774D02*
X407Y793D01*
D02*
X907Y812D02*
X912Y774D01*
D02*
X907Y814D02*
X907Y812D01*
D02*
X607Y1412D02*
X607Y1414D01*
D02*
X609Y1684D02*
X607Y1412D01*
D02*
X707Y1412D02*
X707Y1414D01*
D02*
X806Y1684D02*
X707Y1412D01*
D02*
X807Y1412D02*
X807Y1414D01*
D02*
X906Y1684D02*
X807Y1412D01*
D02*
X927Y1587D02*
X997Y1592D01*
D02*
X907Y1412D02*
X927Y1587D01*
D02*
X907Y1414D02*
X907Y1412D01*
D02*
X1107Y1594D02*
X1109Y1593D01*
D02*
X1022Y1593D02*
X1107Y1594D01*
D02*
X1212Y1588D02*
X1209Y1593D01*
D02*
X1157Y1554D02*
X1212Y1588D01*
D02*
X1013Y1523D02*
X1157Y1554D01*
D02*
X1009Y1472D02*
X1013Y1523D01*
D02*
X1307Y1594D02*
X1309Y1593D01*
D02*
X1222Y1593D02*
X1307Y1594D01*
D02*
X1410Y1592D02*
X1409Y1593D01*
D02*
X1346Y1534D02*
X1410Y1592D01*
D02*
X1202Y1520D02*
X1346Y1534D01*
D02*
X1130Y1461D02*
X1202Y1520D01*
D02*
X1503Y1594D02*
X1509Y1593D01*
D02*
X1422Y1593D02*
X1503Y1594D01*
D02*
X1612Y1594D02*
X1692Y1467D01*
D02*
X1609Y1593D02*
X1612Y1594D01*
D02*
X1712Y1588D02*
X1792Y1467D01*
D02*
X1709Y1593D02*
X1712Y1588D01*
D02*
X1910Y1588D02*
X1909Y1593D01*
D02*
X1822Y1592D02*
X1910Y1588D01*
D02*
X2112Y1592D02*
X2109Y1593D01*
D02*
X2022Y1593D02*
X2112Y1592D01*
D02*
X2407Y142D02*
X2407Y682D01*
D02*
X2413Y40D02*
X2410Y82D01*
D02*
X1907Y43D02*
X2413Y40D01*
D02*
X1907Y82D02*
X1907Y43D01*
D02*
X1607Y612D02*
X1607Y814D01*
D02*
X1907Y612D02*
X1607Y612D01*
D02*
X1907Y142D02*
X1907Y612D01*
D02*
X1907Y45D02*
X1007Y40D01*
D02*
X1007Y40D02*
X1007Y82D01*
D02*
X1907Y82D02*
X1907Y45D01*
D02*
X1607Y1312D02*
X1514Y963D01*
D02*
X1607Y1314D02*
X1607Y1312D01*
D02*
X1507Y812D02*
X1507Y642D01*
D02*
X1507Y814D02*
X1507Y812D01*
D02*
X1792Y138D02*
X1507Y612D01*
G54D19*
D02*
X807Y582D02*
X805Y62D01*
G54D18*
D02*
X1658Y1247D02*
X1611Y964D01*
D02*
X423Y1770D02*
X107Y1772D01*
D02*
X107Y1772D02*
X107Y1642D01*
D02*
X427Y924D02*
X423Y1770D01*
D02*
X255Y1069D02*
X256Y1033D01*
D02*
X315Y1129D02*
X319Y978D01*
D02*
X367Y1696D02*
X202Y1694D01*
D02*
X371Y1102D02*
X367Y1696D01*
D02*
X1912Y871D02*
X1978Y1293D01*
D02*
X2010Y872D02*
X2041Y1242D01*
D02*
X2610Y1362D02*
X2605Y1518D01*
D02*
X2605Y1518D02*
X2324Y1531D01*
D02*
X2549Y1358D02*
X2610Y1362D01*
D02*
X643Y1200D02*
X610Y872D01*
D02*
X708Y872D02*
X712Y1144D01*
D02*
X2710Y1590D02*
X2705Y1207D01*
D02*
X2201Y1596D02*
X2199Y1620D01*
D02*
X2199Y1620D02*
X2710Y1590D01*
D02*
X2122Y1593D02*
X2201Y1596D01*
D02*
X2663Y1554D02*
X2663Y1249D01*
D02*
X1907Y1541D02*
X2235Y1526D01*
D02*
X2235Y1526D02*
X2243Y1581D01*
D02*
X2243Y1581D02*
X2663Y1554D01*
D02*
X1909Y1584D02*
X1907Y1541D01*
D02*
X2499Y748D02*
X2427Y822D01*
D02*
X2475Y414D02*
X2499Y748D01*
D02*
X2307Y840D02*
X2307Y814D01*
D02*
X2307Y742D02*
X2307Y840D01*
D02*
X2207Y843D02*
X2207Y814D01*
D02*
X2207Y742D02*
X2207Y843D01*
D02*
X2107Y831D02*
X2107Y814D01*
D02*
X2107Y742D02*
X2107Y831D01*
D02*
X2546Y759D02*
X2519Y817D01*
D02*
X2557Y467D02*
X2546Y759D01*
D02*
X2591Y931D02*
X2318Y937D01*
D02*
X2318Y937D02*
X2308Y1414D01*
D02*
X2601Y656D02*
X2591Y931D01*
D02*
X2646Y609D02*
X2632Y981D01*
D02*
X2632Y981D02*
X2413Y987D01*
D02*
X2413Y987D02*
X2408Y1414D01*
D02*
X2690Y562D02*
X2682Y1043D01*
D02*
X2682Y1043D02*
X2463Y1045D01*
D02*
X2460Y1384D02*
X2489Y1421D01*
D02*
X2463Y1045D02*
X2460Y1384D01*
D02*
X2007Y517D02*
X2007Y682D01*
D02*
X1507Y706D02*
X1507Y642D01*
D02*
X499Y704D02*
X1507Y706D01*
D02*
X505Y642D02*
X499Y704D01*
D02*
X705Y267D02*
X237Y309D01*
D02*
X1207Y142D02*
X1207Y399D01*
D02*
X1068Y206D02*
X1066Y462D01*
D02*
X1096Y140D02*
X1068Y206D01*
D02*
X1007Y112D02*
X1007Y582D01*
D02*
X2305Y268D02*
X1971Y268D01*
D02*
X2307Y142D02*
X2305Y268D01*
D02*
X2210Y195D02*
X1971Y198D01*
D02*
X2208Y142D02*
X2210Y195D01*
G04 End of Copper0*
M02*