G04 MADE WITH FRITZING*
G04 WWW.FRITZING.ORG*
G04 DOUBLE SIDED*
G04 HOLES PLATED*
G04 CONTOUR ON CENTER OF CONTOUR VECTOR*
%ASAXBY*%
%FSLAX23Y23*%
%MOIN*%
%OFA0B0*%
%SFA1.0B1.0*%
%ADD10R,0.001000X0.001000*%
%LNSILK0*%
G90*
G70*
G54D10*
X0Y1909D02*
X2741Y1909D01*
X0Y1908D02*
X2741Y1908D01*
X0Y1907D02*
X2741Y1907D01*
X0Y1906D02*
X2741Y1906D01*
X0Y1905D02*
X2741Y1905D01*
X0Y1904D02*
X2741Y1904D01*
X0Y1903D02*
X2741Y1903D01*
X0Y1902D02*
X2741Y1902D01*
X0Y1901D02*
X7Y1901D01*
X2734Y1901D02*
X2741Y1901D01*
X0Y1900D02*
X7Y1900D01*
X2734Y1900D02*
X2741Y1900D01*
X0Y1899D02*
X7Y1899D01*
X2734Y1899D02*
X2741Y1899D01*
X0Y1898D02*
X7Y1898D01*
X2734Y1898D02*
X2741Y1898D01*
X0Y1897D02*
X7Y1897D01*
X2734Y1897D02*
X2741Y1897D01*
X0Y1896D02*
X7Y1896D01*
X2734Y1896D02*
X2741Y1896D01*
X0Y1895D02*
X7Y1895D01*
X2734Y1895D02*
X2741Y1895D01*
X0Y1894D02*
X7Y1894D01*
X2734Y1894D02*
X2741Y1894D01*
X0Y1893D02*
X7Y1893D01*
X2734Y1893D02*
X2741Y1893D01*
X0Y1892D02*
X7Y1892D01*
X2734Y1892D02*
X2741Y1892D01*
X0Y1891D02*
X7Y1891D01*
X2734Y1891D02*
X2741Y1891D01*
X0Y1890D02*
X7Y1890D01*
X2734Y1890D02*
X2741Y1890D01*
X0Y1889D02*
X7Y1889D01*
X2734Y1889D02*
X2741Y1889D01*
X0Y1888D02*
X7Y1888D01*
X2734Y1888D02*
X2741Y1888D01*
X0Y1887D02*
X7Y1887D01*
X2734Y1887D02*
X2741Y1887D01*
X0Y1886D02*
X7Y1886D01*
X2734Y1886D02*
X2741Y1886D01*
X0Y1885D02*
X7Y1885D01*
X2734Y1885D02*
X2741Y1885D01*
X0Y1884D02*
X7Y1884D01*
X2734Y1884D02*
X2741Y1884D01*
X0Y1883D02*
X7Y1883D01*
X2734Y1883D02*
X2741Y1883D01*
X0Y1882D02*
X7Y1882D01*
X2734Y1882D02*
X2741Y1882D01*
X0Y1881D02*
X7Y1881D01*
X2734Y1881D02*
X2741Y1881D01*
X0Y1880D02*
X7Y1880D01*
X2734Y1880D02*
X2741Y1880D01*
X0Y1879D02*
X7Y1879D01*
X2734Y1879D02*
X2741Y1879D01*
X0Y1878D02*
X7Y1878D01*
X2734Y1878D02*
X2741Y1878D01*
X0Y1877D02*
X7Y1877D01*
X2734Y1877D02*
X2741Y1877D01*
X0Y1876D02*
X7Y1876D01*
X2734Y1876D02*
X2741Y1876D01*
X0Y1875D02*
X7Y1875D01*
X2734Y1875D02*
X2741Y1875D01*
X0Y1874D02*
X7Y1874D01*
X2734Y1874D02*
X2741Y1874D01*
X0Y1873D02*
X7Y1873D01*
X2734Y1873D02*
X2741Y1873D01*
X0Y1872D02*
X7Y1872D01*
X2734Y1872D02*
X2741Y1872D01*
X0Y1871D02*
X7Y1871D01*
X2734Y1871D02*
X2741Y1871D01*
X0Y1870D02*
X7Y1870D01*
X2734Y1870D02*
X2741Y1870D01*
X0Y1869D02*
X7Y1869D01*
X2734Y1869D02*
X2741Y1869D01*
X0Y1868D02*
X7Y1868D01*
X2734Y1868D02*
X2741Y1868D01*
X0Y1867D02*
X7Y1867D01*
X2734Y1867D02*
X2741Y1867D01*
X0Y1866D02*
X7Y1866D01*
X2734Y1866D02*
X2741Y1866D01*
X0Y1865D02*
X7Y1865D01*
X2734Y1865D02*
X2741Y1865D01*
X0Y1864D02*
X7Y1864D01*
X2734Y1864D02*
X2741Y1864D01*
X0Y1863D02*
X7Y1863D01*
X2734Y1863D02*
X2741Y1863D01*
X0Y1862D02*
X7Y1862D01*
X2734Y1862D02*
X2741Y1862D01*
X0Y1861D02*
X7Y1861D01*
X2734Y1861D02*
X2741Y1861D01*
X0Y1860D02*
X7Y1860D01*
X2734Y1860D02*
X2741Y1860D01*
X0Y1859D02*
X7Y1859D01*
X2734Y1859D02*
X2741Y1859D01*
X0Y1858D02*
X7Y1858D01*
X2734Y1858D02*
X2741Y1858D01*
X0Y1857D02*
X7Y1857D01*
X2734Y1857D02*
X2741Y1857D01*
X0Y1856D02*
X7Y1856D01*
X2734Y1856D02*
X2741Y1856D01*
X0Y1855D02*
X7Y1855D01*
X2734Y1855D02*
X2741Y1855D01*
X0Y1854D02*
X7Y1854D01*
X2734Y1854D02*
X2741Y1854D01*
X0Y1853D02*
X7Y1853D01*
X2734Y1853D02*
X2741Y1853D01*
X0Y1852D02*
X7Y1852D01*
X2734Y1852D02*
X2741Y1852D01*
X0Y1851D02*
X7Y1851D01*
X2734Y1851D02*
X2741Y1851D01*
X0Y1850D02*
X7Y1850D01*
X2734Y1850D02*
X2741Y1850D01*
X0Y1849D02*
X7Y1849D01*
X2734Y1849D02*
X2741Y1849D01*
X0Y1848D02*
X7Y1848D01*
X2734Y1848D02*
X2741Y1848D01*
X0Y1847D02*
X7Y1847D01*
X2734Y1847D02*
X2741Y1847D01*
X0Y1846D02*
X7Y1846D01*
X2734Y1846D02*
X2741Y1846D01*
X0Y1845D02*
X7Y1845D01*
X2734Y1845D02*
X2741Y1845D01*
X0Y1844D02*
X7Y1844D01*
X2734Y1844D02*
X2741Y1844D01*
X0Y1843D02*
X7Y1843D01*
X2734Y1843D02*
X2741Y1843D01*
X0Y1842D02*
X7Y1842D01*
X2734Y1842D02*
X2741Y1842D01*
X0Y1841D02*
X7Y1841D01*
X2734Y1841D02*
X2741Y1841D01*
X0Y1840D02*
X7Y1840D01*
X2734Y1840D02*
X2741Y1840D01*
X0Y1839D02*
X7Y1839D01*
X2734Y1839D02*
X2741Y1839D01*
X0Y1838D02*
X7Y1838D01*
X2734Y1838D02*
X2741Y1838D01*
X0Y1837D02*
X7Y1837D01*
X2734Y1837D02*
X2741Y1837D01*
X0Y1836D02*
X7Y1836D01*
X2734Y1836D02*
X2741Y1836D01*
X0Y1835D02*
X7Y1835D01*
X2734Y1835D02*
X2741Y1835D01*
X0Y1834D02*
X7Y1834D01*
X2734Y1834D02*
X2741Y1834D01*
X0Y1833D02*
X7Y1833D01*
X2734Y1833D02*
X2741Y1833D01*
X0Y1832D02*
X7Y1832D01*
X2734Y1832D02*
X2741Y1832D01*
X0Y1831D02*
X7Y1831D01*
X2734Y1831D02*
X2741Y1831D01*
X0Y1830D02*
X7Y1830D01*
X2734Y1830D02*
X2741Y1830D01*
X0Y1829D02*
X7Y1829D01*
X2734Y1829D02*
X2741Y1829D01*
X0Y1828D02*
X7Y1828D01*
X2734Y1828D02*
X2741Y1828D01*
X0Y1827D02*
X7Y1827D01*
X2734Y1827D02*
X2741Y1827D01*
X0Y1826D02*
X7Y1826D01*
X2734Y1826D02*
X2741Y1826D01*
X0Y1825D02*
X7Y1825D01*
X2734Y1825D02*
X2741Y1825D01*
X0Y1824D02*
X7Y1824D01*
X2734Y1824D02*
X2741Y1824D01*
X0Y1823D02*
X7Y1823D01*
X2734Y1823D02*
X2741Y1823D01*
X0Y1822D02*
X7Y1822D01*
X2734Y1822D02*
X2741Y1822D01*
X0Y1821D02*
X7Y1821D01*
X2734Y1821D02*
X2741Y1821D01*
X0Y1820D02*
X7Y1820D01*
X2734Y1820D02*
X2741Y1820D01*
X0Y1819D02*
X7Y1819D01*
X2734Y1819D02*
X2741Y1819D01*
X0Y1818D02*
X7Y1818D01*
X2734Y1818D02*
X2741Y1818D01*
X0Y1817D02*
X7Y1817D01*
X2734Y1817D02*
X2741Y1817D01*
X0Y1816D02*
X7Y1816D01*
X2734Y1816D02*
X2741Y1816D01*
X0Y1815D02*
X7Y1815D01*
X491Y1815D02*
X510Y1815D01*
X534Y1815D02*
X561Y1815D01*
X2734Y1815D02*
X2741Y1815D01*
X0Y1814D02*
X7Y1814D01*
X491Y1814D02*
X510Y1814D01*
X532Y1814D02*
X561Y1814D01*
X2734Y1814D02*
X2741Y1814D01*
X0Y1813D02*
X7Y1813D01*
X491Y1813D02*
X511Y1813D01*
X531Y1813D02*
X561Y1813D01*
X2734Y1813D02*
X2741Y1813D01*
X0Y1812D02*
X7Y1812D01*
X491Y1812D02*
X511Y1812D01*
X530Y1812D02*
X561Y1812D01*
X2734Y1812D02*
X2741Y1812D01*
X0Y1811D02*
X7Y1811D01*
X491Y1811D02*
X511Y1811D01*
X529Y1811D02*
X561Y1811D01*
X2734Y1811D02*
X2741Y1811D01*
X0Y1810D02*
X7Y1810D01*
X491Y1810D02*
X510Y1810D01*
X529Y1810D02*
X561Y1810D01*
X2734Y1810D02*
X2741Y1810D01*
X0Y1809D02*
X7Y1809D01*
X491Y1809D02*
X508Y1809D01*
X528Y1809D02*
X561Y1809D01*
X2734Y1809D02*
X2741Y1809D01*
X0Y1808D02*
X7Y1808D01*
X491Y1808D02*
X497Y1808D01*
X528Y1808D02*
X535Y1808D01*
X555Y1808D02*
X561Y1808D01*
X2734Y1808D02*
X2741Y1808D01*
X0Y1807D02*
X7Y1807D01*
X491Y1807D02*
X497Y1807D01*
X528Y1807D02*
X534Y1807D01*
X555Y1807D02*
X561Y1807D01*
X2734Y1807D02*
X2741Y1807D01*
X0Y1806D02*
X7Y1806D01*
X491Y1806D02*
X497Y1806D01*
X528Y1806D02*
X534Y1806D01*
X555Y1806D02*
X561Y1806D01*
X2734Y1806D02*
X2741Y1806D01*
X0Y1805D02*
X7Y1805D01*
X491Y1805D02*
X497Y1805D01*
X528Y1805D02*
X534Y1805D01*
X555Y1805D02*
X561Y1805D01*
X2734Y1805D02*
X2741Y1805D01*
X0Y1804D02*
X7Y1804D01*
X491Y1804D02*
X497Y1804D01*
X528Y1804D02*
X534Y1804D01*
X555Y1804D02*
X561Y1804D01*
X2734Y1804D02*
X2741Y1804D01*
X0Y1803D02*
X7Y1803D01*
X491Y1803D02*
X497Y1803D01*
X528Y1803D02*
X534Y1803D01*
X555Y1803D02*
X561Y1803D01*
X2734Y1803D02*
X2741Y1803D01*
X0Y1802D02*
X7Y1802D01*
X491Y1802D02*
X497Y1802D01*
X528Y1802D02*
X534Y1802D01*
X555Y1802D02*
X561Y1802D01*
X2734Y1802D02*
X2741Y1802D01*
X0Y1801D02*
X7Y1801D01*
X491Y1801D02*
X497Y1801D01*
X528Y1801D02*
X534Y1801D01*
X555Y1801D02*
X561Y1801D01*
X2734Y1801D02*
X2741Y1801D01*
X0Y1800D02*
X7Y1800D01*
X491Y1800D02*
X497Y1800D01*
X528Y1800D02*
X534Y1800D01*
X555Y1800D02*
X561Y1800D01*
X2734Y1800D02*
X2741Y1800D01*
X0Y1799D02*
X7Y1799D01*
X491Y1799D02*
X497Y1799D01*
X528Y1799D02*
X535Y1799D01*
X555Y1799D02*
X561Y1799D01*
X2734Y1799D02*
X2741Y1799D01*
X0Y1798D02*
X7Y1798D01*
X491Y1798D02*
X497Y1798D01*
X528Y1798D02*
X561Y1798D01*
X2734Y1798D02*
X2741Y1798D01*
X0Y1797D02*
X7Y1797D01*
X491Y1797D02*
X497Y1797D01*
X529Y1797D02*
X561Y1797D01*
X2734Y1797D02*
X2741Y1797D01*
X0Y1796D02*
X7Y1796D01*
X491Y1796D02*
X497Y1796D01*
X529Y1796D02*
X561Y1796D01*
X2734Y1796D02*
X2741Y1796D01*
X0Y1795D02*
X7Y1795D01*
X491Y1795D02*
X497Y1795D01*
X530Y1795D02*
X561Y1795D01*
X2734Y1795D02*
X2741Y1795D01*
X0Y1794D02*
X7Y1794D01*
X491Y1794D02*
X497Y1794D01*
X531Y1794D02*
X561Y1794D01*
X2734Y1794D02*
X2741Y1794D01*
X0Y1793D02*
X7Y1793D01*
X491Y1793D02*
X497Y1793D01*
X532Y1793D02*
X561Y1793D01*
X2734Y1793D02*
X2741Y1793D01*
X0Y1792D02*
X7Y1792D01*
X491Y1792D02*
X497Y1792D01*
X534Y1792D02*
X561Y1792D01*
X2734Y1792D02*
X2741Y1792D01*
X0Y1791D02*
X7Y1791D01*
X491Y1791D02*
X497Y1791D01*
X542Y1791D02*
X549Y1791D01*
X555Y1791D02*
X561Y1791D01*
X2734Y1791D02*
X2741Y1791D01*
X0Y1790D02*
X7Y1790D01*
X491Y1790D02*
X497Y1790D01*
X541Y1790D02*
X549Y1790D01*
X555Y1790D02*
X561Y1790D01*
X2734Y1790D02*
X2741Y1790D01*
X0Y1789D02*
X7Y1789D01*
X491Y1789D02*
X497Y1789D01*
X541Y1789D02*
X548Y1789D01*
X555Y1789D02*
X561Y1789D01*
X2734Y1789D02*
X2741Y1789D01*
X0Y1788D02*
X7Y1788D01*
X491Y1788D02*
X497Y1788D01*
X540Y1788D02*
X548Y1788D01*
X555Y1788D02*
X561Y1788D01*
X2734Y1788D02*
X2741Y1788D01*
X0Y1787D02*
X7Y1787D01*
X491Y1787D02*
X497Y1787D01*
X540Y1787D02*
X547Y1787D01*
X555Y1787D02*
X561Y1787D01*
X2734Y1787D02*
X2741Y1787D01*
X0Y1786D02*
X7Y1786D01*
X479Y1786D02*
X481Y1786D01*
X491Y1786D02*
X497Y1786D01*
X539Y1786D02*
X546Y1786D01*
X555Y1786D02*
X561Y1786D01*
X2734Y1786D02*
X2741Y1786D01*
X0Y1785D02*
X7Y1785D01*
X478Y1785D02*
X483Y1785D01*
X491Y1785D02*
X497Y1785D01*
X539Y1785D02*
X546Y1785D01*
X555Y1785D02*
X561Y1785D01*
X2734Y1785D02*
X2741Y1785D01*
X0Y1784D02*
X7Y1784D01*
X478Y1784D02*
X483Y1784D01*
X491Y1784D02*
X497Y1784D01*
X538Y1784D02*
X545Y1784D01*
X555Y1784D02*
X561Y1784D01*
X2734Y1784D02*
X2741Y1784D01*
X0Y1783D02*
X7Y1783D01*
X477Y1783D02*
X483Y1783D01*
X491Y1783D02*
X497Y1783D01*
X537Y1783D02*
X545Y1783D01*
X555Y1783D02*
X561Y1783D01*
X2734Y1783D02*
X2741Y1783D01*
X0Y1782D02*
X7Y1782D01*
X477Y1782D02*
X483Y1782D01*
X491Y1782D02*
X497Y1782D01*
X537Y1782D02*
X544Y1782D01*
X555Y1782D02*
X561Y1782D01*
X2734Y1782D02*
X2741Y1782D01*
X0Y1781D02*
X7Y1781D01*
X477Y1781D02*
X483Y1781D01*
X491Y1781D02*
X497Y1781D01*
X536Y1781D02*
X543Y1781D01*
X555Y1781D02*
X561Y1781D01*
X2734Y1781D02*
X2741Y1781D01*
X0Y1780D02*
X7Y1780D01*
X477Y1780D02*
X483Y1780D01*
X491Y1780D02*
X497Y1780D01*
X536Y1780D02*
X543Y1780D01*
X555Y1780D02*
X561Y1780D01*
X2734Y1780D02*
X2741Y1780D01*
X0Y1779D02*
X7Y1779D01*
X477Y1779D02*
X483Y1779D01*
X491Y1779D02*
X497Y1779D01*
X535Y1779D02*
X542Y1779D01*
X555Y1779D02*
X561Y1779D01*
X2734Y1779D02*
X2741Y1779D01*
X0Y1778D02*
X7Y1778D01*
X477Y1778D02*
X483Y1778D01*
X491Y1778D02*
X497Y1778D01*
X534Y1778D02*
X542Y1778D01*
X555Y1778D02*
X561Y1778D01*
X2734Y1778D02*
X2741Y1778D01*
X0Y1777D02*
X7Y1777D01*
X477Y1777D02*
X483Y1777D01*
X491Y1777D02*
X497Y1777D01*
X534Y1777D02*
X541Y1777D01*
X555Y1777D02*
X561Y1777D01*
X2734Y1777D02*
X2741Y1777D01*
X0Y1776D02*
X7Y1776D01*
X477Y1776D02*
X483Y1776D01*
X491Y1776D02*
X497Y1776D01*
X533Y1776D02*
X541Y1776D01*
X555Y1776D02*
X561Y1776D01*
X2734Y1776D02*
X2741Y1776D01*
X0Y1775D02*
X7Y1775D01*
X477Y1775D02*
X483Y1775D01*
X491Y1775D02*
X497Y1775D01*
X533Y1775D02*
X540Y1775D01*
X555Y1775D02*
X561Y1775D01*
X2734Y1775D02*
X2741Y1775D01*
X0Y1774D02*
X7Y1774D01*
X477Y1774D02*
X483Y1774D01*
X491Y1774D02*
X497Y1774D01*
X532Y1774D02*
X539Y1774D01*
X555Y1774D02*
X561Y1774D01*
X2734Y1774D02*
X2741Y1774D01*
X0Y1773D02*
X7Y1773D01*
X477Y1773D02*
X483Y1773D01*
X491Y1773D02*
X497Y1773D01*
X532Y1773D02*
X539Y1773D01*
X555Y1773D02*
X561Y1773D01*
X2734Y1773D02*
X2741Y1773D01*
X0Y1772D02*
X7Y1772D01*
X477Y1772D02*
X483Y1772D01*
X491Y1772D02*
X497Y1772D01*
X531Y1772D02*
X538Y1772D01*
X555Y1772D02*
X561Y1772D01*
X2734Y1772D02*
X2741Y1772D01*
X0Y1771D02*
X7Y1771D01*
X477Y1771D02*
X483Y1771D01*
X491Y1771D02*
X497Y1771D01*
X530Y1771D02*
X538Y1771D01*
X555Y1771D02*
X561Y1771D01*
X2734Y1771D02*
X2741Y1771D01*
X0Y1770D02*
X7Y1770D01*
X477Y1770D02*
X483Y1770D01*
X491Y1770D02*
X497Y1770D01*
X530Y1770D02*
X537Y1770D01*
X555Y1770D02*
X561Y1770D01*
X2734Y1770D02*
X2741Y1770D01*
X0Y1769D02*
X7Y1769D01*
X477Y1769D02*
X483Y1769D01*
X491Y1769D02*
X497Y1769D01*
X529Y1769D02*
X536Y1769D01*
X555Y1769D02*
X561Y1769D01*
X2734Y1769D02*
X2741Y1769D01*
X0Y1768D02*
X7Y1768D01*
X477Y1768D02*
X509Y1768D01*
X529Y1768D02*
X536Y1768D01*
X555Y1768D02*
X561Y1768D01*
X2734Y1768D02*
X2741Y1768D01*
X0Y1767D02*
X7Y1767D01*
X477Y1767D02*
X510Y1767D01*
X528Y1767D02*
X535Y1767D01*
X555Y1767D02*
X561Y1767D01*
X2734Y1767D02*
X2741Y1767D01*
X0Y1766D02*
X7Y1766D01*
X477Y1766D02*
X511Y1766D01*
X528Y1766D02*
X535Y1766D01*
X555Y1766D02*
X561Y1766D01*
X2734Y1766D02*
X2741Y1766D01*
X0Y1765D02*
X7Y1765D01*
X477Y1765D02*
X511Y1765D01*
X528Y1765D02*
X534Y1765D01*
X555Y1765D02*
X561Y1765D01*
X2734Y1765D02*
X2741Y1765D01*
X0Y1764D02*
X7Y1764D01*
X478Y1764D02*
X511Y1764D01*
X528Y1764D02*
X534Y1764D01*
X555Y1764D02*
X561Y1764D01*
X2734Y1764D02*
X2741Y1764D01*
X0Y1763D02*
X7Y1763D01*
X478Y1763D02*
X510Y1763D01*
X528Y1763D02*
X533Y1763D01*
X556Y1763D02*
X560Y1763D01*
X2734Y1763D02*
X2741Y1763D01*
X0Y1762D02*
X7Y1762D01*
X480Y1762D02*
X509Y1762D01*
X530Y1762D02*
X532Y1762D01*
X557Y1762D02*
X559Y1762D01*
X2734Y1762D02*
X2741Y1762D01*
X0Y1761D02*
X7Y1761D01*
X2734Y1761D02*
X2741Y1761D01*
X0Y1760D02*
X7Y1760D01*
X2734Y1760D02*
X2741Y1760D01*
X0Y1759D02*
X7Y1759D01*
X2734Y1759D02*
X2741Y1759D01*
X0Y1758D02*
X7Y1758D01*
X2734Y1758D02*
X2741Y1758D01*
X0Y1757D02*
X7Y1757D01*
X2734Y1757D02*
X2741Y1757D01*
X0Y1756D02*
X7Y1756D01*
X2734Y1756D02*
X2741Y1756D01*
X0Y1755D02*
X7Y1755D01*
X2734Y1755D02*
X2741Y1755D01*
X0Y1754D02*
X7Y1754D01*
X2734Y1754D02*
X2741Y1754D01*
X0Y1753D02*
X7Y1753D01*
X2734Y1753D02*
X2741Y1753D01*
X0Y1752D02*
X7Y1752D01*
X2734Y1752D02*
X2741Y1752D01*
X0Y1751D02*
X7Y1751D01*
X2734Y1751D02*
X2741Y1751D01*
X0Y1750D02*
X7Y1750D01*
X2734Y1750D02*
X2741Y1750D01*
X0Y1749D02*
X7Y1749D01*
X2734Y1749D02*
X2741Y1749D01*
X0Y1748D02*
X7Y1748D01*
X2734Y1748D02*
X2741Y1748D01*
X0Y1747D02*
X7Y1747D01*
X2734Y1747D02*
X2741Y1747D01*
X0Y1746D02*
X7Y1746D01*
X2734Y1746D02*
X2741Y1746D01*
X0Y1745D02*
X7Y1745D01*
X2734Y1745D02*
X2741Y1745D01*
X0Y1744D02*
X7Y1744D01*
X2734Y1744D02*
X2741Y1744D01*
X0Y1743D02*
X7Y1743D01*
X2734Y1743D02*
X2741Y1743D01*
X0Y1742D02*
X7Y1742D01*
X2734Y1742D02*
X2741Y1742D01*
X0Y1741D02*
X7Y1741D01*
X2734Y1741D02*
X2741Y1741D01*
X0Y1740D02*
X7Y1740D01*
X2734Y1740D02*
X2741Y1740D01*
X0Y1739D02*
X7Y1739D01*
X2734Y1739D02*
X2741Y1739D01*
X0Y1738D02*
X7Y1738D01*
X2734Y1738D02*
X2741Y1738D01*
X0Y1737D02*
X7Y1737D01*
X2734Y1737D02*
X2741Y1737D01*
X0Y1736D02*
X7Y1736D01*
X2734Y1736D02*
X2741Y1736D01*
X0Y1735D02*
X7Y1735D01*
X2734Y1735D02*
X2741Y1735D01*
X0Y1734D02*
X7Y1734D01*
X2734Y1734D02*
X2741Y1734D01*
X0Y1733D02*
X7Y1733D01*
X2734Y1733D02*
X2741Y1733D01*
X0Y1732D02*
X7Y1732D01*
X2734Y1732D02*
X2741Y1732D01*
X0Y1731D02*
X7Y1731D01*
X2734Y1731D02*
X2741Y1731D01*
X0Y1730D02*
X7Y1730D01*
X2734Y1730D02*
X2741Y1730D01*
X0Y1729D02*
X7Y1729D01*
X2734Y1729D02*
X2741Y1729D01*
X0Y1728D02*
X7Y1728D01*
X2734Y1728D02*
X2741Y1728D01*
X0Y1727D02*
X7Y1727D01*
X2734Y1727D02*
X2741Y1727D01*
X0Y1726D02*
X7Y1726D01*
X2734Y1726D02*
X2741Y1726D01*
X0Y1725D02*
X7Y1725D01*
X595Y1725D02*
X622Y1725D01*
X795Y1725D02*
X822Y1725D01*
X895Y1725D02*
X922Y1725D01*
X2734Y1725D02*
X2741Y1725D01*
X0Y1724D02*
X7Y1724D01*
X595Y1724D02*
X622Y1724D01*
X795Y1724D02*
X822Y1724D01*
X895Y1724D02*
X922Y1724D01*
X2734Y1724D02*
X2741Y1724D01*
X0Y1723D02*
X7Y1723D01*
X595Y1723D02*
X622Y1723D01*
X795Y1723D02*
X822Y1723D01*
X895Y1723D02*
X922Y1723D01*
X2734Y1723D02*
X2741Y1723D01*
X0Y1722D02*
X7Y1722D01*
X595Y1722D02*
X622Y1722D01*
X795Y1722D02*
X822Y1722D01*
X895Y1722D02*
X922Y1722D01*
X2734Y1722D02*
X2741Y1722D01*
X0Y1721D02*
X7Y1721D01*
X595Y1721D02*
X622Y1721D01*
X795Y1721D02*
X822Y1721D01*
X895Y1721D02*
X922Y1721D01*
X2734Y1721D02*
X2741Y1721D01*
X0Y1720D02*
X7Y1720D01*
X595Y1720D02*
X622Y1720D01*
X795Y1720D02*
X822Y1720D01*
X895Y1720D02*
X922Y1720D01*
X2734Y1720D02*
X2741Y1720D01*
X0Y1719D02*
X7Y1719D01*
X595Y1719D02*
X622Y1719D01*
X795Y1719D02*
X822Y1719D01*
X895Y1719D02*
X922Y1719D01*
X2734Y1719D02*
X2741Y1719D01*
X0Y1718D02*
X7Y1718D01*
X595Y1718D02*
X622Y1718D01*
X795Y1718D02*
X822Y1718D01*
X895Y1718D02*
X922Y1718D01*
X2734Y1718D02*
X2741Y1718D01*
X0Y1717D02*
X7Y1717D01*
X595Y1717D02*
X622Y1717D01*
X795Y1717D02*
X822Y1717D01*
X895Y1717D02*
X922Y1717D01*
X2734Y1717D02*
X2741Y1717D01*
X0Y1716D02*
X7Y1716D01*
X595Y1716D02*
X622Y1716D01*
X795Y1716D02*
X822Y1716D01*
X895Y1716D02*
X922Y1716D01*
X2734Y1716D02*
X2741Y1716D01*
X0Y1715D02*
X7Y1715D01*
X595Y1715D02*
X622Y1715D01*
X795Y1715D02*
X822Y1715D01*
X895Y1715D02*
X922Y1715D01*
X2734Y1715D02*
X2741Y1715D01*
X0Y1714D02*
X7Y1714D01*
X595Y1714D02*
X622Y1714D01*
X795Y1714D02*
X822Y1714D01*
X895Y1714D02*
X922Y1714D01*
X2734Y1714D02*
X2741Y1714D01*
X0Y1713D02*
X7Y1713D01*
X595Y1713D02*
X622Y1713D01*
X795Y1713D02*
X822Y1713D01*
X895Y1713D02*
X922Y1713D01*
X2734Y1713D02*
X2741Y1713D01*
X0Y1712D02*
X7Y1712D01*
X595Y1712D02*
X622Y1712D01*
X795Y1712D02*
X822Y1712D01*
X895Y1712D02*
X922Y1712D01*
X2734Y1712D02*
X2741Y1712D01*
X0Y1711D02*
X7Y1711D01*
X2734Y1711D02*
X2741Y1711D01*
X0Y1710D02*
X7Y1710D01*
X2734Y1710D02*
X2741Y1710D01*
X0Y1709D02*
X7Y1709D01*
X2734Y1709D02*
X2741Y1709D01*
X0Y1708D02*
X7Y1708D01*
X2734Y1708D02*
X2741Y1708D01*
X0Y1707D02*
X7Y1707D01*
X2734Y1707D02*
X2741Y1707D01*
X0Y1706D02*
X7Y1706D01*
X2734Y1706D02*
X2741Y1706D01*
X0Y1705D02*
X7Y1705D01*
X2734Y1705D02*
X2741Y1705D01*
X0Y1704D02*
X7Y1704D01*
X2734Y1704D02*
X2741Y1704D01*
X0Y1703D02*
X7Y1703D01*
X2734Y1703D02*
X2741Y1703D01*
X0Y1702D02*
X7Y1702D01*
X2734Y1702D02*
X2741Y1702D01*
X0Y1701D02*
X7Y1701D01*
X2734Y1701D02*
X2741Y1701D01*
X0Y1700D02*
X7Y1700D01*
X2734Y1700D02*
X2741Y1700D01*
X0Y1699D02*
X7Y1699D01*
X2734Y1699D02*
X2741Y1699D01*
X0Y1698D02*
X7Y1698D01*
X2734Y1698D02*
X2741Y1698D01*
X0Y1697D02*
X7Y1697D01*
X2734Y1697D02*
X2741Y1697D01*
X0Y1696D02*
X7Y1696D01*
X2734Y1696D02*
X2741Y1696D01*
X0Y1695D02*
X7Y1695D01*
X2734Y1695D02*
X2741Y1695D01*
X0Y1694D02*
X7Y1694D01*
X2734Y1694D02*
X2741Y1694D01*
X0Y1693D02*
X7Y1693D01*
X2734Y1693D02*
X2741Y1693D01*
X0Y1692D02*
X7Y1692D01*
X2734Y1692D02*
X2741Y1692D01*
X0Y1691D02*
X7Y1691D01*
X2734Y1691D02*
X2741Y1691D01*
X0Y1690D02*
X7Y1690D01*
X2734Y1690D02*
X2741Y1690D01*
X0Y1689D02*
X7Y1689D01*
X2734Y1689D02*
X2741Y1689D01*
X0Y1688D02*
X7Y1688D01*
X2734Y1688D02*
X2741Y1688D01*
X0Y1687D02*
X7Y1687D01*
X2734Y1687D02*
X2741Y1687D01*
X0Y1686D02*
X7Y1686D01*
X2734Y1686D02*
X2741Y1686D01*
X0Y1685D02*
X7Y1685D01*
X2734Y1685D02*
X2741Y1685D01*
X0Y1684D02*
X7Y1684D01*
X2734Y1684D02*
X2741Y1684D01*
X0Y1683D02*
X7Y1683D01*
X2734Y1683D02*
X2741Y1683D01*
X0Y1682D02*
X7Y1682D01*
X2734Y1682D02*
X2741Y1682D01*
X0Y1681D02*
X7Y1681D01*
X2734Y1681D02*
X2741Y1681D01*
X0Y1680D02*
X7Y1680D01*
X2734Y1680D02*
X2741Y1680D01*
X0Y1679D02*
X7Y1679D01*
X2734Y1679D02*
X2741Y1679D01*
X0Y1678D02*
X7Y1678D01*
X2734Y1678D02*
X2741Y1678D01*
X0Y1677D02*
X7Y1677D01*
X2734Y1677D02*
X2741Y1677D01*
X0Y1676D02*
X7Y1676D01*
X2734Y1676D02*
X2741Y1676D01*
X0Y1675D02*
X7Y1675D01*
X2734Y1675D02*
X2741Y1675D01*
X0Y1674D02*
X7Y1674D01*
X2734Y1674D02*
X2741Y1674D01*
X0Y1673D02*
X7Y1673D01*
X2734Y1673D02*
X2741Y1673D01*
X0Y1672D02*
X7Y1672D01*
X2734Y1672D02*
X2741Y1672D01*
X0Y1671D02*
X7Y1671D01*
X712Y1671D02*
X762Y1671D01*
X812Y1671D02*
X862Y1671D01*
X2734Y1671D02*
X2741Y1671D01*
X0Y1670D02*
X7Y1670D01*
X712Y1670D02*
X764Y1670D01*
X812Y1670D02*
X864Y1670D01*
X2734Y1670D02*
X2741Y1670D01*
X0Y1669D02*
X7Y1669D01*
X712Y1669D02*
X765Y1669D01*
X812Y1669D02*
X865Y1669D01*
X2734Y1669D02*
X2741Y1669D01*
X0Y1668D02*
X7Y1668D01*
X712Y1668D02*
X765Y1668D01*
X812Y1668D02*
X865Y1668D01*
X2734Y1668D02*
X2741Y1668D01*
X0Y1667D02*
X7Y1667D01*
X712Y1667D02*
X765Y1667D01*
X812Y1667D02*
X865Y1667D01*
X2734Y1667D02*
X2741Y1667D01*
X0Y1666D02*
X7Y1666D01*
X712Y1666D02*
X765Y1666D01*
X812Y1666D02*
X865Y1666D01*
X2734Y1666D02*
X2741Y1666D01*
X0Y1665D02*
X7Y1665D01*
X712Y1665D02*
X764Y1665D01*
X812Y1665D02*
X864Y1665D01*
X2734Y1665D02*
X2741Y1665D01*
X0Y1664D02*
X7Y1664D01*
X712Y1664D02*
X718Y1664D01*
X729Y1664D02*
X736Y1664D01*
X812Y1664D02*
X818Y1664D01*
X829Y1664D02*
X836Y1664D01*
X2734Y1664D02*
X2741Y1664D01*
X0Y1663D02*
X7Y1663D01*
X712Y1663D02*
X718Y1663D01*
X729Y1663D02*
X736Y1663D01*
X812Y1663D02*
X818Y1663D01*
X829Y1663D02*
X836Y1663D01*
X2734Y1663D02*
X2741Y1663D01*
X0Y1662D02*
X7Y1662D01*
X712Y1662D02*
X718Y1662D01*
X729Y1662D02*
X736Y1662D01*
X812Y1662D02*
X818Y1662D01*
X829Y1662D02*
X836Y1662D01*
X2734Y1662D02*
X2741Y1662D01*
X0Y1661D02*
X7Y1661D01*
X712Y1661D02*
X718Y1661D01*
X729Y1661D02*
X736Y1661D01*
X812Y1661D02*
X818Y1661D01*
X829Y1661D02*
X836Y1661D01*
X2734Y1661D02*
X2741Y1661D01*
X0Y1660D02*
X7Y1660D01*
X712Y1660D02*
X718Y1660D01*
X729Y1660D02*
X736Y1660D01*
X812Y1660D02*
X818Y1660D01*
X829Y1660D02*
X836Y1660D01*
X2734Y1660D02*
X2741Y1660D01*
X0Y1659D02*
X7Y1659D01*
X712Y1659D02*
X718Y1659D01*
X729Y1659D02*
X736Y1659D01*
X812Y1659D02*
X818Y1659D01*
X829Y1659D02*
X836Y1659D01*
X2734Y1659D02*
X2741Y1659D01*
X0Y1658D02*
X7Y1658D01*
X712Y1658D02*
X718Y1658D01*
X729Y1658D02*
X738Y1658D01*
X812Y1658D02*
X818Y1658D01*
X829Y1658D02*
X838Y1658D01*
X2734Y1658D02*
X2741Y1658D01*
X0Y1657D02*
X7Y1657D01*
X712Y1657D02*
X718Y1657D01*
X729Y1657D02*
X739Y1657D01*
X812Y1657D02*
X818Y1657D01*
X829Y1657D02*
X839Y1657D01*
X2734Y1657D02*
X2741Y1657D01*
X0Y1656D02*
X7Y1656D01*
X712Y1656D02*
X718Y1656D01*
X729Y1656D02*
X741Y1656D01*
X812Y1656D02*
X818Y1656D01*
X829Y1656D02*
X841Y1656D01*
X2734Y1656D02*
X2741Y1656D01*
X0Y1655D02*
X7Y1655D01*
X712Y1655D02*
X718Y1655D01*
X729Y1655D02*
X743Y1655D01*
X812Y1655D02*
X818Y1655D01*
X829Y1655D02*
X843Y1655D01*
X2734Y1655D02*
X2741Y1655D01*
X0Y1654D02*
X7Y1654D01*
X712Y1654D02*
X718Y1654D01*
X729Y1654D02*
X745Y1654D01*
X812Y1654D02*
X818Y1654D01*
X829Y1654D02*
X845Y1654D01*
X2734Y1654D02*
X2741Y1654D01*
X0Y1653D02*
X7Y1653D01*
X712Y1653D02*
X718Y1653D01*
X729Y1653D02*
X746Y1653D01*
X812Y1653D02*
X818Y1653D01*
X829Y1653D02*
X846Y1653D01*
X2734Y1653D02*
X2741Y1653D01*
X0Y1652D02*
X7Y1652D01*
X712Y1652D02*
X718Y1652D01*
X729Y1652D02*
X748Y1652D01*
X812Y1652D02*
X818Y1652D01*
X829Y1652D02*
X848Y1652D01*
X2734Y1652D02*
X2741Y1652D01*
X0Y1651D02*
X7Y1651D01*
X712Y1651D02*
X718Y1651D01*
X729Y1651D02*
X750Y1651D01*
X812Y1651D02*
X818Y1651D01*
X829Y1651D02*
X850Y1651D01*
X2734Y1651D02*
X2741Y1651D01*
X0Y1650D02*
X7Y1650D01*
X712Y1650D02*
X718Y1650D01*
X729Y1650D02*
X736Y1650D01*
X738Y1650D02*
X751Y1650D01*
X812Y1650D02*
X818Y1650D01*
X829Y1650D02*
X836Y1650D01*
X838Y1650D02*
X851Y1650D01*
X2734Y1650D02*
X2741Y1650D01*
X0Y1649D02*
X7Y1649D01*
X712Y1649D02*
X718Y1649D01*
X729Y1649D02*
X736Y1649D01*
X740Y1649D02*
X753Y1649D01*
X812Y1649D02*
X818Y1649D01*
X829Y1649D02*
X836Y1649D01*
X840Y1649D02*
X853Y1649D01*
X2734Y1649D02*
X2741Y1649D01*
X0Y1648D02*
X7Y1648D01*
X712Y1648D02*
X718Y1648D01*
X729Y1648D02*
X736Y1648D01*
X742Y1648D02*
X755Y1648D01*
X812Y1648D02*
X818Y1648D01*
X829Y1648D02*
X836Y1648D01*
X842Y1648D02*
X855Y1648D01*
X2734Y1648D02*
X2741Y1648D01*
X0Y1647D02*
X7Y1647D01*
X712Y1647D02*
X718Y1647D01*
X729Y1647D02*
X735Y1647D01*
X743Y1647D02*
X757Y1647D01*
X812Y1647D02*
X818Y1647D01*
X829Y1647D02*
X835Y1647D01*
X843Y1647D02*
X857Y1647D01*
X2734Y1647D02*
X2741Y1647D01*
X0Y1646D02*
X7Y1646D01*
X712Y1646D02*
X718Y1646D01*
X729Y1646D02*
X735Y1646D01*
X745Y1646D02*
X758Y1646D01*
X812Y1646D02*
X818Y1646D01*
X829Y1646D02*
X835Y1646D01*
X845Y1646D02*
X858Y1646D01*
X2734Y1646D02*
X2741Y1646D01*
X0Y1645D02*
X7Y1645D01*
X712Y1645D02*
X719Y1645D01*
X729Y1645D02*
X735Y1645D01*
X747Y1645D02*
X760Y1645D01*
X812Y1645D02*
X819Y1645D01*
X829Y1645D02*
X835Y1645D01*
X847Y1645D02*
X860Y1645D01*
X2734Y1645D02*
X2741Y1645D01*
X0Y1644D02*
X7Y1644D01*
X712Y1644D02*
X720Y1644D01*
X728Y1644D02*
X735Y1644D01*
X749Y1644D02*
X762Y1644D01*
X812Y1644D02*
X820Y1644D01*
X828Y1644D02*
X835Y1644D01*
X849Y1644D02*
X862Y1644D01*
X2734Y1644D02*
X2741Y1644D01*
X0Y1643D02*
X7Y1643D01*
X713Y1643D02*
X735Y1643D01*
X750Y1643D02*
X763Y1643D01*
X813Y1643D02*
X835Y1643D01*
X850Y1643D02*
X863Y1643D01*
X2734Y1643D02*
X2741Y1643D01*
X0Y1642D02*
X7Y1642D01*
X713Y1642D02*
X734Y1642D01*
X752Y1642D02*
X764Y1642D01*
X813Y1642D02*
X834Y1642D01*
X852Y1642D02*
X864Y1642D01*
X2734Y1642D02*
X2741Y1642D01*
X0Y1641D02*
X7Y1641D01*
X714Y1641D02*
X733Y1641D01*
X754Y1641D02*
X765Y1641D01*
X814Y1641D02*
X833Y1641D01*
X854Y1641D02*
X865Y1641D01*
X2734Y1641D02*
X2741Y1641D01*
X0Y1640D02*
X7Y1640D01*
X715Y1640D02*
X733Y1640D01*
X756Y1640D02*
X765Y1640D01*
X815Y1640D02*
X833Y1640D01*
X856Y1640D02*
X865Y1640D01*
X2734Y1640D02*
X2741Y1640D01*
X0Y1639D02*
X7Y1639D01*
X716Y1639D02*
X732Y1639D01*
X757Y1639D02*
X765Y1639D01*
X816Y1639D02*
X832Y1639D01*
X857Y1639D02*
X865Y1639D01*
X2734Y1639D02*
X2741Y1639D01*
X0Y1638D02*
X7Y1638D01*
X717Y1638D02*
X730Y1638D01*
X759Y1638D02*
X764Y1638D01*
X817Y1638D02*
X830Y1638D01*
X859Y1638D02*
X864Y1638D01*
X2734Y1638D02*
X2741Y1638D01*
X0Y1637D02*
X7Y1637D01*
X719Y1637D02*
X728Y1637D01*
X761Y1637D02*
X763Y1637D01*
X819Y1637D02*
X828Y1637D01*
X861Y1637D02*
X863Y1637D01*
X2734Y1637D02*
X2741Y1637D01*
X0Y1636D02*
X7Y1636D01*
X2734Y1636D02*
X2741Y1636D01*
X0Y1635D02*
X7Y1635D01*
X2734Y1635D02*
X2741Y1635D01*
X0Y1634D02*
X7Y1634D01*
X2734Y1634D02*
X2741Y1634D01*
X0Y1633D02*
X7Y1633D01*
X2734Y1633D02*
X2741Y1633D01*
X0Y1632D02*
X7Y1632D01*
X2734Y1632D02*
X2741Y1632D01*
X0Y1631D02*
X7Y1631D01*
X2734Y1631D02*
X2741Y1631D01*
X0Y1630D02*
X7Y1630D01*
X2734Y1630D02*
X2741Y1630D01*
X0Y1629D02*
X7Y1629D01*
X2734Y1629D02*
X2741Y1629D01*
X0Y1628D02*
X7Y1628D01*
X2734Y1628D02*
X2741Y1628D01*
X0Y1627D02*
X7Y1627D01*
X2734Y1627D02*
X2741Y1627D01*
X0Y1626D02*
X7Y1626D01*
X2734Y1626D02*
X2741Y1626D01*
X0Y1625D02*
X7Y1625D01*
X995Y1625D02*
X1022Y1625D01*
X1095Y1625D02*
X1122Y1625D01*
X1195Y1625D02*
X1222Y1625D01*
X1295Y1625D02*
X1322Y1625D01*
X1395Y1625D02*
X1422Y1625D01*
X1495Y1625D02*
X1522Y1625D01*
X1595Y1625D02*
X1622Y1625D01*
X1695Y1625D02*
X1722Y1625D01*
X1795Y1625D02*
X1822Y1625D01*
X1895Y1625D02*
X1922Y1625D01*
X1995Y1625D02*
X2022Y1625D01*
X2095Y1625D02*
X2122Y1625D01*
X2734Y1625D02*
X2741Y1625D01*
X0Y1624D02*
X7Y1624D01*
X995Y1624D02*
X1022Y1624D01*
X1095Y1624D02*
X1122Y1624D01*
X1195Y1624D02*
X1222Y1624D01*
X1295Y1624D02*
X1322Y1624D01*
X1395Y1624D02*
X1422Y1624D01*
X1495Y1624D02*
X1522Y1624D01*
X1595Y1624D02*
X1622Y1624D01*
X1695Y1624D02*
X1722Y1624D01*
X1795Y1624D02*
X1822Y1624D01*
X1895Y1624D02*
X1922Y1624D01*
X1995Y1624D02*
X2022Y1624D01*
X2095Y1624D02*
X2122Y1624D01*
X2734Y1624D02*
X2741Y1624D01*
X0Y1623D02*
X7Y1623D01*
X995Y1623D02*
X1022Y1623D01*
X1095Y1623D02*
X1122Y1623D01*
X1195Y1623D02*
X1222Y1623D01*
X1295Y1623D02*
X1322Y1623D01*
X1395Y1623D02*
X1422Y1623D01*
X1495Y1623D02*
X1522Y1623D01*
X1595Y1623D02*
X1622Y1623D01*
X1695Y1623D02*
X1722Y1623D01*
X1795Y1623D02*
X1822Y1623D01*
X1895Y1623D02*
X1922Y1623D01*
X1995Y1623D02*
X2022Y1623D01*
X2095Y1623D02*
X2122Y1623D01*
X2734Y1623D02*
X2741Y1623D01*
X0Y1622D02*
X7Y1622D01*
X995Y1622D02*
X1022Y1622D01*
X1095Y1622D02*
X1122Y1622D01*
X1195Y1622D02*
X1222Y1622D01*
X1295Y1622D02*
X1322Y1622D01*
X1395Y1622D02*
X1422Y1622D01*
X1495Y1622D02*
X1522Y1622D01*
X1595Y1622D02*
X1622Y1622D01*
X1695Y1622D02*
X1722Y1622D01*
X1795Y1622D02*
X1822Y1622D01*
X1895Y1622D02*
X1922Y1622D01*
X1995Y1622D02*
X2022Y1622D01*
X2095Y1622D02*
X2122Y1622D01*
X2734Y1622D02*
X2741Y1622D01*
X0Y1621D02*
X7Y1621D01*
X995Y1621D02*
X1022Y1621D01*
X1095Y1621D02*
X1122Y1621D01*
X1195Y1621D02*
X1222Y1621D01*
X1295Y1621D02*
X1322Y1621D01*
X1395Y1621D02*
X1422Y1621D01*
X1495Y1621D02*
X1522Y1621D01*
X1595Y1621D02*
X1622Y1621D01*
X1695Y1621D02*
X1722Y1621D01*
X1795Y1621D02*
X1822Y1621D01*
X1895Y1621D02*
X1922Y1621D01*
X1995Y1621D02*
X2022Y1621D01*
X2095Y1621D02*
X2122Y1621D01*
X2734Y1621D02*
X2741Y1621D01*
X0Y1620D02*
X7Y1620D01*
X713Y1620D02*
X717Y1620D01*
X739Y1620D02*
X765Y1620D01*
X813Y1620D02*
X817Y1620D01*
X860Y1620D02*
X864Y1620D01*
X995Y1620D02*
X1022Y1620D01*
X1095Y1620D02*
X1122Y1620D01*
X1195Y1620D02*
X1222Y1620D01*
X1295Y1620D02*
X1322Y1620D01*
X1395Y1620D02*
X1422Y1620D01*
X1495Y1620D02*
X1522Y1620D01*
X1595Y1620D02*
X1622Y1620D01*
X1695Y1620D02*
X1722Y1620D01*
X1795Y1620D02*
X1822Y1620D01*
X1895Y1620D02*
X1922Y1620D01*
X1995Y1620D02*
X2022Y1620D01*
X2095Y1620D02*
X2122Y1620D01*
X2734Y1620D02*
X2741Y1620D01*
X0Y1619D02*
X7Y1619D01*
X712Y1619D02*
X717Y1619D01*
X738Y1619D02*
X765Y1619D01*
X812Y1619D02*
X817Y1619D01*
X859Y1619D02*
X864Y1619D01*
X995Y1619D02*
X1022Y1619D01*
X1095Y1619D02*
X1122Y1619D01*
X1195Y1619D02*
X1222Y1619D01*
X1295Y1619D02*
X1322Y1619D01*
X1395Y1619D02*
X1422Y1619D01*
X1495Y1619D02*
X1522Y1619D01*
X1595Y1619D02*
X1622Y1619D01*
X1695Y1619D02*
X1722Y1619D01*
X1795Y1619D02*
X1822Y1619D01*
X1895Y1619D02*
X1922Y1619D01*
X1995Y1619D02*
X2022Y1619D01*
X2095Y1619D02*
X2122Y1619D01*
X2734Y1619D02*
X2741Y1619D01*
X0Y1618D02*
X7Y1618D01*
X712Y1618D02*
X718Y1618D01*
X737Y1618D02*
X765Y1618D01*
X812Y1618D02*
X818Y1618D01*
X859Y1618D02*
X865Y1618D01*
X995Y1618D02*
X1022Y1618D01*
X1095Y1618D02*
X1122Y1618D01*
X1195Y1618D02*
X1222Y1618D01*
X1295Y1618D02*
X1322Y1618D01*
X1395Y1618D02*
X1422Y1618D01*
X1495Y1618D02*
X1522Y1618D01*
X1595Y1618D02*
X1622Y1618D01*
X1695Y1618D02*
X1722Y1618D01*
X1795Y1618D02*
X1822Y1618D01*
X1895Y1618D02*
X1922Y1618D01*
X1995Y1618D02*
X2022Y1618D01*
X2095Y1618D02*
X2122Y1618D01*
X2734Y1618D02*
X2741Y1618D01*
X0Y1617D02*
X7Y1617D01*
X712Y1617D02*
X718Y1617D01*
X736Y1617D02*
X765Y1617D01*
X812Y1617D02*
X818Y1617D01*
X859Y1617D02*
X865Y1617D01*
X995Y1617D02*
X1022Y1617D01*
X1095Y1617D02*
X1122Y1617D01*
X1195Y1617D02*
X1222Y1617D01*
X1295Y1617D02*
X1322Y1617D01*
X1395Y1617D02*
X1422Y1617D01*
X1495Y1617D02*
X1522Y1617D01*
X1595Y1617D02*
X1622Y1617D01*
X1695Y1617D02*
X1722Y1617D01*
X1795Y1617D02*
X1822Y1617D01*
X1895Y1617D02*
X1922Y1617D01*
X1995Y1617D02*
X2022Y1617D01*
X2095Y1617D02*
X2122Y1617D01*
X2734Y1617D02*
X2741Y1617D01*
X0Y1616D02*
X7Y1616D01*
X712Y1616D02*
X718Y1616D01*
X736Y1616D02*
X765Y1616D01*
X812Y1616D02*
X818Y1616D01*
X859Y1616D02*
X865Y1616D01*
X995Y1616D02*
X1022Y1616D01*
X1095Y1616D02*
X1122Y1616D01*
X1195Y1616D02*
X1222Y1616D01*
X1295Y1616D02*
X1322Y1616D01*
X1395Y1616D02*
X1422Y1616D01*
X1495Y1616D02*
X1522Y1616D01*
X1595Y1616D02*
X1622Y1616D01*
X1695Y1616D02*
X1722Y1616D01*
X1795Y1616D02*
X1822Y1616D01*
X1895Y1616D02*
X1922Y1616D01*
X1995Y1616D02*
X2022Y1616D01*
X2095Y1616D02*
X2122Y1616D01*
X2734Y1616D02*
X2741Y1616D01*
X0Y1615D02*
X7Y1615D01*
X712Y1615D02*
X718Y1615D01*
X736Y1615D02*
X765Y1615D01*
X812Y1615D02*
X818Y1615D01*
X859Y1615D02*
X865Y1615D01*
X995Y1615D02*
X1022Y1615D01*
X1095Y1615D02*
X1122Y1615D01*
X1195Y1615D02*
X1222Y1615D01*
X1295Y1615D02*
X1322Y1615D01*
X1395Y1615D02*
X1422Y1615D01*
X1495Y1615D02*
X1522Y1615D01*
X1595Y1615D02*
X1622Y1615D01*
X1695Y1615D02*
X1722Y1615D01*
X1795Y1615D02*
X1822Y1615D01*
X1895Y1615D02*
X1922Y1615D01*
X1995Y1615D02*
X2022Y1615D01*
X2095Y1615D02*
X2122Y1615D01*
X2734Y1615D02*
X2741Y1615D01*
X0Y1614D02*
X7Y1614D01*
X712Y1614D02*
X718Y1614D01*
X735Y1614D02*
X765Y1614D01*
X812Y1614D02*
X818Y1614D01*
X859Y1614D02*
X865Y1614D01*
X995Y1614D02*
X1022Y1614D01*
X1095Y1614D02*
X1122Y1614D01*
X1195Y1614D02*
X1222Y1614D01*
X1295Y1614D02*
X1322Y1614D01*
X1395Y1614D02*
X1422Y1614D01*
X1495Y1614D02*
X1522Y1614D01*
X1595Y1614D02*
X1622Y1614D01*
X1695Y1614D02*
X1722Y1614D01*
X1795Y1614D02*
X1822Y1614D01*
X1895Y1614D02*
X1922Y1614D01*
X1995Y1614D02*
X2022Y1614D01*
X2095Y1614D02*
X2122Y1614D01*
X2734Y1614D02*
X2741Y1614D01*
X0Y1613D02*
X7Y1613D01*
X712Y1613D02*
X718Y1613D01*
X735Y1613D02*
X741Y1613D01*
X759Y1613D02*
X765Y1613D01*
X812Y1613D02*
X818Y1613D01*
X836Y1613D02*
X840Y1613D01*
X859Y1613D02*
X865Y1613D01*
X995Y1613D02*
X1022Y1613D01*
X1095Y1613D02*
X1122Y1613D01*
X1195Y1613D02*
X1222Y1613D01*
X1295Y1613D02*
X1322Y1613D01*
X1395Y1613D02*
X1422Y1613D01*
X1495Y1613D02*
X1522Y1613D01*
X1595Y1613D02*
X1622Y1613D01*
X1695Y1613D02*
X1722Y1613D01*
X1795Y1613D02*
X1822Y1613D01*
X1895Y1613D02*
X1922Y1613D01*
X1995Y1613D02*
X2022Y1613D01*
X2095Y1613D02*
X2122Y1613D01*
X2734Y1613D02*
X2741Y1613D01*
X0Y1612D02*
X7Y1612D01*
X712Y1612D02*
X718Y1612D01*
X735Y1612D02*
X741Y1612D01*
X759Y1612D02*
X765Y1612D01*
X812Y1612D02*
X818Y1612D01*
X836Y1612D02*
X841Y1612D01*
X859Y1612D02*
X865Y1612D01*
X995Y1612D02*
X1022Y1612D01*
X1095Y1612D02*
X1122Y1612D01*
X1195Y1612D02*
X1222Y1612D01*
X1295Y1612D02*
X1322Y1612D01*
X1395Y1612D02*
X1422Y1612D01*
X1495Y1612D02*
X1522Y1612D01*
X1595Y1612D02*
X1622Y1612D01*
X1695Y1612D02*
X1722Y1612D01*
X1795Y1612D02*
X1822Y1612D01*
X1895Y1612D02*
X1922Y1612D01*
X1995Y1612D02*
X2022Y1612D01*
X2095Y1612D02*
X2122Y1612D01*
X2734Y1612D02*
X2741Y1612D01*
X0Y1611D02*
X7Y1611D01*
X712Y1611D02*
X718Y1611D01*
X735Y1611D02*
X741Y1611D01*
X759Y1611D02*
X765Y1611D01*
X812Y1611D02*
X818Y1611D01*
X835Y1611D02*
X841Y1611D01*
X859Y1611D02*
X865Y1611D01*
X2734Y1611D02*
X2741Y1611D01*
X0Y1610D02*
X7Y1610D01*
X712Y1610D02*
X718Y1610D01*
X735Y1610D02*
X741Y1610D01*
X759Y1610D02*
X765Y1610D01*
X812Y1610D02*
X818Y1610D01*
X835Y1610D02*
X841Y1610D01*
X859Y1610D02*
X865Y1610D01*
X2734Y1610D02*
X2741Y1610D01*
X0Y1609D02*
X7Y1609D01*
X712Y1609D02*
X718Y1609D01*
X735Y1609D02*
X741Y1609D01*
X759Y1609D02*
X765Y1609D01*
X812Y1609D02*
X818Y1609D01*
X835Y1609D02*
X841Y1609D01*
X859Y1609D02*
X865Y1609D01*
X2734Y1609D02*
X2741Y1609D01*
X0Y1608D02*
X7Y1608D01*
X712Y1608D02*
X718Y1608D01*
X735Y1608D02*
X741Y1608D01*
X759Y1608D02*
X765Y1608D01*
X812Y1608D02*
X818Y1608D01*
X835Y1608D02*
X841Y1608D01*
X859Y1608D02*
X865Y1608D01*
X2734Y1608D02*
X2741Y1608D01*
X0Y1607D02*
X7Y1607D01*
X712Y1607D02*
X718Y1607D01*
X735Y1607D02*
X741Y1607D01*
X759Y1607D02*
X765Y1607D01*
X812Y1607D02*
X818Y1607D01*
X835Y1607D02*
X841Y1607D01*
X859Y1607D02*
X865Y1607D01*
X2734Y1607D02*
X2741Y1607D01*
X0Y1606D02*
X7Y1606D01*
X712Y1606D02*
X718Y1606D01*
X735Y1606D02*
X741Y1606D01*
X759Y1606D02*
X765Y1606D01*
X812Y1606D02*
X818Y1606D01*
X835Y1606D02*
X841Y1606D01*
X859Y1606D02*
X865Y1606D01*
X2734Y1606D02*
X2741Y1606D01*
X0Y1605D02*
X7Y1605D01*
X712Y1605D02*
X718Y1605D01*
X735Y1605D02*
X741Y1605D01*
X759Y1605D02*
X765Y1605D01*
X812Y1605D02*
X818Y1605D01*
X835Y1605D02*
X841Y1605D01*
X859Y1605D02*
X865Y1605D01*
X2734Y1605D02*
X2741Y1605D01*
X0Y1604D02*
X7Y1604D01*
X712Y1604D02*
X718Y1604D01*
X735Y1604D02*
X741Y1604D01*
X759Y1604D02*
X765Y1604D01*
X812Y1604D02*
X818Y1604D01*
X835Y1604D02*
X841Y1604D01*
X859Y1604D02*
X865Y1604D01*
X2734Y1604D02*
X2741Y1604D01*
X0Y1603D02*
X7Y1603D01*
X712Y1603D02*
X718Y1603D01*
X735Y1603D02*
X741Y1603D01*
X759Y1603D02*
X765Y1603D01*
X812Y1603D02*
X818Y1603D01*
X835Y1603D02*
X841Y1603D01*
X859Y1603D02*
X865Y1603D01*
X2734Y1603D02*
X2741Y1603D01*
X0Y1602D02*
X7Y1602D01*
X712Y1602D02*
X718Y1602D01*
X735Y1602D02*
X741Y1602D01*
X759Y1602D02*
X765Y1602D01*
X812Y1602D02*
X818Y1602D01*
X835Y1602D02*
X841Y1602D01*
X859Y1602D02*
X865Y1602D01*
X2734Y1602D02*
X2741Y1602D01*
X0Y1601D02*
X7Y1601D01*
X712Y1601D02*
X718Y1601D01*
X735Y1601D02*
X741Y1601D01*
X759Y1601D02*
X765Y1601D01*
X812Y1601D02*
X818Y1601D01*
X835Y1601D02*
X841Y1601D01*
X859Y1601D02*
X865Y1601D01*
X2734Y1601D02*
X2741Y1601D01*
X0Y1600D02*
X7Y1600D01*
X712Y1600D02*
X718Y1600D01*
X735Y1600D02*
X741Y1600D01*
X759Y1600D02*
X765Y1600D01*
X812Y1600D02*
X818Y1600D01*
X835Y1600D02*
X841Y1600D01*
X859Y1600D02*
X865Y1600D01*
X2734Y1600D02*
X2741Y1600D01*
X0Y1599D02*
X7Y1599D01*
X712Y1599D02*
X718Y1599D01*
X735Y1599D02*
X741Y1599D01*
X759Y1599D02*
X765Y1599D01*
X812Y1599D02*
X818Y1599D01*
X835Y1599D02*
X841Y1599D01*
X859Y1599D02*
X865Y1599D01*
X2734Y1599D02*
X2741Y1599D01*
X0Y1598D02*
X7Y1598D01*
X712Y1598D02*
X718Y1598D01*
X735Y1598D02*
X741Y1598D01*
X759Y1598D02*
X765Y1598D01*
X812Y1598D02*
X818Y1598D01*
X835Y1598D02*
X841Y1598D01*
X859Y1598D02*
X865Y1598D01*
X2734Y1598D02*
X2741Y1598D01*
X0Y1597D02*
X7Y1597D01*
X712Y1597D02*
X718Y1597D01*
X735Y1597D02*
X741Y1597D01*
X759Y1597D02*
X765Y1597D01*
X812Y1597D02*
X818Y1597D01*
X835Y1597D02*
X841Y1597D01*
X859Y1597D02*
X865Y1597D01*
X2734Y1597D02*
X2741Y1597D01*
X0Y1596D02*
X7Y1596D01*
X712Y1596D02*
X718Y1596D01*
X735Y1596D02*
X741Y1596D01*
X759Y1596D02*
X765Y1596D01*
X812Y1596D02*
X818Y1596D01*
X835Y1596D02*
X841Y1596D01*
X859Y1596D02*
X865Y1596D01*
X2734Y1596D02*
X2741Y1596D01*
X0Y1595D02*
X7Y1595D01*
X712Y1595D02*
X718Y1595D01*
X735Y1595D02*
X741Y1595D01*
X759Y1595D02*
X765Y1595D01*
X812Y1595D02*
X818Y1595D01*
X835Y1595D02*
X842Y1595D01*
X859Y1595D02*
X865Y1595D01*
X2734Y1595D02*
X2741Y1595D01*
X0Y1594D02*
X7Y1594D01*
X712Y1594D02*
X718Y1594D01*
X735Y1594D02*
X741Y1594D01*
X759Y1594D02*
X765Y1594D01*
X812Y1594D02*
X818Y1594D01*
X834Y1594D02*
X843Y1594D01*
X859Y1594D02*
X865Y1594D01*
X2734Y1594D02*
X2741Y1594D01*
X0Y1593D02*
X7Y1593D01*
X712Y1593D02*
X741Y1593D01*
X759Y1593D02*
X765Y1593D01*
X812Y1593D02*
X865Y1593D01*
X2734Y1593D02*
X2741Y1593D01*
X0Y1592D02*
X7Y1592D01*
X712Y1592D02*
X741Y1592D01*
X759Y1592D02*
X765Y1592D01*
X812Y1592D02*
X865Y1592D01*
X2734Y1592D02*
X2741Y1592D01*
X0Y1591D02*
X7Y1591D01*
X712Y1591D02*
X741Y1591D01*
X759Y1591D02*
X765Y1591D01*
X812Y1591D02*
X865Y1591D01*
X2734Y1591D02*
X2741Y1591D01*
X0Y1590D02*
X7Y1590D01*
X713Y1590D02*
X740Y1590D01*
X759Y1590D02*
X765Y1590D01*
X813Y1590D02*
X864Y1590D01*
X2734Y1590D02*
X2741Y1590D01*
X0Y1589D02*
X7Y1589D01*
X713Y1589D02*
X740Y1589D01*
X759Y1589D02*
X765Y1589D01*
X813Y1589D02*
X863Y1589D01*
X2734Y1589D02*
X2741Y1589D01*
X0Y1588D02*
X7Y1588D01*
X714Y1588D02*
X739Y1588D01*
X760Y1588D02*
X764Y1588D01*
X814Y1588D02*
X836Y1588D01*
X840Y1588D02*
X862Y1588D01*
X2734Y1588D02*
X2741Y1588D01*
X0Y1587D02*
X7Y1587D01*
X716Y1587D02*
X737Y1587D01*
X760Y1587D02*
X763Y1587D01*
X816Y1587D02*
X835Y1587D01*
X842Y1587D02*
X861Y1587D01*
X2734Y1587D02*
X2741Y1587D01*
X0Y1586D02*
X7Y1586D01*
X2734Y1586D02*
X2741Y1586D01*
X0Y1585D02*
X7Y1585D01*
X2734Y1585D02*
X2741Y1585D01*
X0Y1584D02*
X7Y1584D01*
X2734Y1584D02*
X2741Y1584D01*
X0Y1583D02*
X7Y1583D01*
X2734Y1583D02*
X2741Y1583D01*
X0Y1582D02*
X7Y1582D01*
X2734Y1582D02*
X2741Y1582D01*
X0Y1581D02*
X7Y1581D01*
X2734Y1581D02*
X2741Y1581D01*
X0Y1580D02*
X7Y1580D01*
X2734Y1580D02*
X2741Y1580D01*
X0Y1579D02*
X7Y1579D01*
X2734Y1579D02*
X2741Y1579D01*
X0Y1578D02*
X7Y1578D01*
X2734Y1578D02*
X2741Y1578D01*
X0Y1577D02*
X7Y1577D01*
X2734Y1577D02*
X2741Y1577D01*
X0Y1576D02*
X7Y1576D01*
X2734Y1576D02*
X2741Y1576D01*
X0Y1575D02*
X7Y1575D01*
X2734Y1575D02*
X2741Y1575D01*
X0Y1574D02*
X7Y1574D01*
X2734Y1574D02*
X2741Y1574D01*
X0Y1573D02*
X7Y1573D01*
X2734Y1573D02*
X2741Y1573D01*
X0Y1572D02*
X7Y1572D01*
X2734Y1572D02*
X2741Y1572D01*
X0Y1571D02*
X7Y1571D01*
X912Y1571D02*
X962Y1571D01*
X1012Y1571D02*
X1062Y1571D01*
X1112Y1571D02*
X1162Y1571D01*
X1212Y1571D02*
X1262Y1571D01*
X1312Y1571D02*
X1362Y1571D01*
X1412Y1571D02*
X1462Y1571D01*
X1512Y1571D02*
X1562Y1571D01*
X1612Y1571D02*
X1662Y1571D01*
X1712Y1571D02*
X1762Y1571D01*
X1812Y1571D02*
X1862Y1571D01*
X1912Y1571D02*
X1962Y1571D01*
X2012Y1571D02*
X2062Y1571D01*
X2734Y1571D02*
X2741Y1571D01*
X0Y1570D02*
X7Y1570D01*
X912Y1570D02*
X964Y1570D01*
X1012Y1570D02*
X1064Y1570D01*
X1112Y1570D02*
X1164Y1570D01*
X1212Y1570D02*
X1264Y1570D01*
X1312Y1570D02*
X1364Y1570D01*
X1412Y1570D02*
X1464Y1570D01*
X1512Y1570D02*
X1564Y1570D01*
X1612Y1570D02*
X1664Y1570D01*
X1712Y1570D02*
X1764Y1570D01*
X1812Y1570D02*
X1864Y1570D01*
X1912Y1570D02*
X1964Y1570D01*
X2012Y1570D02*
X2064Y1570D01*
X2734Y1570D02*
X2741Y1570D01*
X0Y1569D02*
X7Y1569D01*
X912Y1569D02*
X965Y1569D01*
X1012Y1569D02*
X1065Y1569D01*
X1112Y1569D02*
X1165Y1569D01*
X1212Y1569D02*
X1265Y1569D01*
X1312Y1569D02*
X1365Y1569D01*
X1412Y1569D02*
X1465Y1569D01*
X1512Y1569D02*
X1565Y1569D01*
X1612Y1569D02*
X1665Y1569D01*
X1712Y1569D02*
X1765Y1569D01*
X1812Y1569D02*
X1865Y1569D01*
X1912Y1569D02*
X1965Y1569D01*
X2012Y1569D02*
X2065Y1569D01*
X2734Y1569D02*
X2741Y1569D01*
X0Y1568D02*
X7Y1568D01*
X912Y1568D02*
X965Y1568D01*
X1012Y1568D02*
X1065Y1568D01*
X1112Y1568D02*
X1165Y1568D01*
X1212Y1568D02*
X1265Y1568D01*
X1312Y1568D02*
X1365Y1568D01*
X1412Y1568D02*
X1465Y1568D01*
X1512Y1568D02*
X1565Y1568D01*
X1612Y1568D02*
X1665Y1568D01*
X1712Y1568D02*
X1765Y1568D01*
X1812Y1568D02*
X1865Y1568D01*
X1912Y1568D02*
X1965Y1568D01*
X2012Y1568D02*
X2065Y1568D01*
X2734Y1568D02*
X2741Y1568D01*
X0Y1567D02*
X7Y1567D01*
X912Y1567D02*
X965Y1567D01*
X1012Y1567D02*
X1065Y1567D01*
X1112Y1567D02*
X1165Y1567D01*
X1212Y1567D02*
X1265Y1567D01*
X1312Y1567D02*
X1365Y1567D01*
X1412Y1567D02*
X1465Y1567D01*
X1512Y1567D02*
X1565Y1567D01*
X1612Y1567D02*
X1665Y1567D01*
X1712Y1567D02*
X1765Y1567D01*
X1812Y1567D02*
X1865Y1567D01*
X1912Y1567D02*
X1965Y1567D01*
X2012Y1567D02*
X2065Y1567D01*
X2734Y1567D02*
X2741Y1567D01*
X0Y1566D02*
X7Y1566D01*
X912Y1566D02*
X964Y1566D01*
X1012Y1566D02*
X1064Y1566D01*
X1112Y1566D02*
X1164Y1566D01*
X1212Y1566D02*
X1264Y1566D01*
X1312Y1566D02*
X1364Y1566D01*
X1412Y1566D02*
X1464Y1566D01*
X1512Y1566D02*
X1564Y1566D01*
X1612Y1566D02*
X1664Y1566D01*
X1712Y1566D02*
X1764Y1566D01*
X1812Y1566D02*
X1864Y1566D01*
X1912Y1566D02*
X1964Y1566D01*
X2012Y1566D02*
X2064Y1566D01*
X2734Y1566D02*
X2741Y1566D01*
X0Y1565D02*
X7Y1565D01*
X912Y1565D02*
X964Y1565D01*
X1012Y1565D02*
X1064Y1565D01*
X1112Y1565D02*
X1164Y1565D01*
X1212Y1565D02*
X1264Y1565D01*
X1312Y1565D02*
X1364Y1565D01*
X1412Y1565D02*
X1464Y1565D01*
X1512Y1565D02*
X1564Y1565D01*
X1612Y1565D02*
X1664Y1565D01*
X1712Y1565D02*
X1764Y1565D01*
X1812Y1565D02*
X1864Y1565D01*
X1912Y1565D02*
X1964Y1565D01*
X2012Y1565D02*
X2064Y1565D01*
X2734Y1565D02*
X2741Y1565D01*
X0Y1564D02*
X7Y1564D01*
X912Y1564D02*
X918Y1564D01*
X929Y1564D02*
X936Y1564D01*
X1012Y1564D02*
X1018Y1564D01*
X1029Y1564D02*
X1036Y1564D01*
X1112Y1564D02*
X1118Y1564D01*
X1129Y1564D02*
X1136Y1564D01*
X1212Y1564D02*
X1218Y1564D01*
X1229Y1564D02*
X1236Y1564D01*
X1312Y1564D02*
X1318Y1564D01*
X1329Y1564D02*
X1336Y1564D01*
X1412Y1564D02*
X1418Y1564D01*
X1429Y1564D02*
X1436Y1564D01*
X1512Y1564D02*
X1518Y1564D01*
X1529Y1564D02*
X1536Y1564D01*
X1612Y1564D02*
X1618Y1564D01*
X1629Y1564D02*
X1636Y1564D01*
X1712Y1564D02*
X1718Y1564D01*
X1729Y1564D02*
X1736Y1564D01*
X1812Y1564D02*
X1818Y1564D01*
X1829Y1564D02*
X1836Y1564D01*
X1912Y1564D02*
X1918Y1564D01*
X1929Y1564D02*
X1936Y1564D01*
X2012Y1564D02*
X2018Y1564D01*
X2029Y1564D02*
X2036Y1564D01*
X2734Y1564D02*
X2741Y1564D01*
X0Y1563D02*
X7Y1563D01*
X912Y1563D02*
X918Y1563D01*
X929Y1563D02*
X936Y1563D01*
X1012Y1563D02*
X1018Y1563D01*
X1029Y1563D02*
X1036Y1563D01*
X1112Y1563D02*
X1118Y1563D01*
X1129Y1563D02*
X1136Y1563D01*
X1212Y1563D02*
X1218Y1563D01*
X1229Y1563D02*
X1235Y1563D01*
X1312Y1563D02*
X1318Y1563D01*
X1329Y1563D02*
X1335Y1563D01*
X1412Y1563D02*
X1418Y1563D01*
X1429Y1563D02*
X1435Y1563D01*
X1512Y1563D02*
X1518Y1563D01*
X1529Y1563D02*
X1535Y1563D01*
X1612Y1563D02*
X1618Y1563D01*
X1629Y1563D02*
X1635Y1563D01*
X1712Y1563D02*
X1718Y1563D01*
X1729Y1563D02*
X1735Y1563D01*
X1812Y1563D02*
X1818Y1563D01*
X1829Y1563D02*
X1835Y1563D01*
X1912Y1563D02*
X1918Y1563D01*
X1929Y1563D02*
X1935Y1563D01*
X2012Y1563D02*
X2018Y1563D01*
X2029Y1563D02*
X2035Y1563D01*
X2734Y1563D02*
X2741Y1563D01*
X0Y1562D02*
X7Y1562D01*
X912Y1562D02*
X918Y1562D01*
X929Y1562D02*
X936Y1562D01*
X1012Y1562D02*
X1018Y1562D01*
X1029Y1562D02*
X1036Y1562D01*
X1112Y1562D02*
X1118Y1562D01*
X1129Y1562D02*
X1136Y1562D01*
X1212Y1562D02*
X1218Y1562D01*
X1229Y1562D02*
X1235Y1562D01*
X1312Y1562D02*
X1318Y1562D01*
X1329Y1562D02*
X1335Y1562D01*
X1412Y1562D02*
X1418Y1562D01*
X1429Y1562D02*
X1435Y1562D01*
X1512Y1562D02*
X1518Y1562D01*
X1529Y1562D02*
X1535Y1562D01*
X1612Y1562D02*
X1618Y1562D01*
X1629Y1562D02*
X1635Y1562D01*
X1712Y1562D02*
X1718Y1562D01*
X1729Y1562D02*
X1735Y1562D01*
X1812Y1562D02*
X1818Y1562D01*
X1829Y1562D02*
X1835Y1562D01*
X1912Y1562D02*
X1918Y1562D01*
X1929Y1562D02*
X1935Y1562D01*
X2012Y1562D02*
X2018Y1562D01*
X2029Y1562D02*
X2035Y1562D01*
X2734Y1562D02*
X2741Y1562D01*
X0Y1561D02*
X7Y1561D01*
X912Y1561D02*
X918Y1561D01*
X929Y1561D02*
X936Y1561D01*
X1012Y1561D02*
X1018Y1561D01*
X1029Y1561D02*
X1036Y1561D01*
X1112Y1561D02*
X1118Y1561D01*
X1129Y1561D02*
X1136Y1561D01*
X1212Y1561D02*
X1218Y1561D01*
X1229Y1561D02*
X1235Y1561D01*
X1312Y1561D02*
X1318Y1561D01*
X1329Y1561D02*
X1335Y1561D01*
X1412Y1561D02*
X1418Y1561D01*
X1429Y1561D02*
X1435Y1561D01*
X1512Y1561D02*
X1518Y1561D01*
X1529Y1561D02*
X1535Y1561D01*
X1612Y1561D02*
X1618Y1561D01*
X1629Y1561D02*
X1635Y1561D01*
X1712Y1561D02*
X1718Y1561D01*
X1729Y1561D02*
X1735Y1561D01*
X1812Y1561D02*
X1818Y1561D01*
X1829Y1561D02*
X1835Y1561D01*
X1912Y1561D02*
X1918Y1561D01*
X1929Y1561D02*
X1935Y1561D01*
X2012Y1561D02*
X2018Y1561D01*
X2029Y1561D02*
X2035Y1561D01*
X2734Y1561D02*
X2741Y1561D01*
X0Y1560D02*
X7Y1560D01*
X912Y1560D02*
X918Y1560D01*
X929Y1560D02*
X936Y1560D01*
X1012Y1560D02*
X1018Y1560D01*
X1029Y1560D02*
X1036Y1560D01*
X1112Y1560D02*
X1118Y1560D01*
X1129Y1560D02*
X1136Y1560D01*
X1212Y1560D02*
X1218Y1560D01*
X1229Y1560D02*
X1235Y1560D01*
X1312Y1560D02*
X1318Y1560D01*
X1329Y1560D02*
X1335Y1560D01*
X1412Y1560D02*
X1418Y1560D01*
X1429Y1560D02*
X1435Y1560D01*
X1512Y1560D02*
X1518Y1560D01*
X1529Y1560D02*
X1535Y1560D01*
X1612Y1560D02*
X1618Y1560D01*
X1629Y1560D02*
X1635Y1560D01*
X1712Y1560D02*
X1718Y1560D01*
X1729Y1560D02*
X1735Y1560D01*
X1812Y1560D02*
X1818Y1560D01*
X1829Y1560D02*
X1835Y1560D01*
X1912Y1560D02*
X1918Y1560D01*
X1929Y1560D02*
X1935Y1560D01*
X2012Y1560D02*
X2018Y1560D01*
X2029Y1560D02*
X2035Y1560D01*
X2734Y1560D02*
X2741Y1560D01*
X0Y1559D02*
X7Y1559D01*
X912Y1559D02*
X918Y1559D01*
X929Y1559D02*
X936Y1559D01*
X1012Y1559D02*
X1018Y1559D01*
X1029Y1559D02*
X1036Y1559D01*
X1112Y1559D02*
X1118Y1559D01*
X1129Y1559D02*
X1136Y1559D01*
X1212Y1559D02*
X1218Y1559D01*
X1229Y1559D02*
X1236Y1559D01*
X1312Y1559D02*
X1318Y1559D01*
X1329Y1559D02*
X1336Y1559D01*
X1412Y1559D02*
X1418Y1559D01*
X1429Y1559D02*
X1436Y1559D01*
X1512Y1559D02*
X1518Y1559D01*
X1529Y1559D02*
X1536Y1559D01*
X1612Y1559D02*
X1618Y1559D01*
X1629Y1559D02*
X1636Y1559D01*
X1712Y1559D02*
X1718Y1559D01*
X1729Y1559D02*
X1736Y1559D01*
X1812Y1559D02*
X1818Y1559D01*
X1829Y1559D02*
X1836Y1559D01*
X1912Y1559D02*
X1918Y1559D01*
X1929Y1559D02*
X1936Y1559D01*
X2012Y1559D02*
X2018Y1559D01*
X2029Y1559D02*
X2036Y1559D01*
X2734Y1559D02*
X2741Y1559D01*
X0Y1558D02*
X7Y1558D01*
X912Y1558D02*
X918Y1558D01*
X929Y1558D02*
X938Y1558D01*
X1012Y1558D02*
X1018Y1558D01*
X1029Y1558D02*
X1038Y1558D01*
X1112Y1558D02*
X1118Y1558D01*
X1129Y1558D02*
X1138Y1558D01*
X1212Y1558D02*
X1218Y1558D01*
X1229Y1558D02*
X1238Y1558D01*
X1312Y1558D02*
X1318Y1558D01*
X1329Y1558D02*
X1338Y1558D01*
X1412Y1558D02*
X1418Y1558D01*
X1429Y1558D02*
X1438Y1558D01*
X1512Y1558D02*
X1518Y1558D01*
X1529Y1558D02*
X1538Y1558D01*
X1612Y1558D02*
X1618Y1558D01*
X1629Y1558D02*
X1638Y1558D01*
X1712Y1558D02*
X1718Y1558D01*
X1729Y1558D02*
X1738Y1558D01*
X1812Y1558D02*
X1818Y1558D01*
X1829Y1558D02*
X1838Y1558D01*
X1912Y1558D02*
X1918Y1558D01*
X1929Y1558D02*
X1938Y1558D01*
X2012Y1558D02*
X2018Y1558D01*
X2029Y1558D02*
X2038Y1558D01*
X2734Y1558D02*
X2741Y1558D01*
X0Y1557D02*
X7Y1557D01*
X912Y1557D02*
X918Y1557D01*
X929Y1557D02*
X939Y1557D01*
X1012Y1557D02*
X1018Y1557D01*
X1029Y1557D02*
X1039Y1557D01*
X1112Y1557D02*
X1118Y1557D01*
X1129Y1557D02*
X1139Y1557D01*
X1212Y1557D02*
X1218Y1557D01*
X1229Y1557D02*
X1239Y1557D01*
X1312Y1557D02*
X1318Y1557D01*
X1329Y1557D02*
X1339Y1557D01*
X1412Y1557D02*
X1418Y1557D01*
X1429Y1557D02*
X1439Y1557D01*
X1512Y1557D02*
X1518Y1557D01*
X1529Y1557D02*
X1539Y1557D01*
X1612Y1557D02*
X1618Y1557D01*
X1629Y1557D02*
X1639Y1557D01*
X1712Y1557D02*
X1718Y1557D01*
X1729Y1557D02*
X1739Y1557D01*
X1812Y1557D02*
X1818Y1557D01*
X1829Y1557D02*
X1839Y1557D01*
X1912Y1557D02*
X1918Y1557D01*
X1929Y1557D02*
X1939Y1557D01*
X2012Y1557D02*
X2018Y1557D01*
X2029Y1557D02*
X2039Y1557D01*
X2734Y1557D02*
X2741Y1557D01*
X0Y1556D02*
X7Y1556D01*
X912Y1556D02*
X918Y1556D01*
X929Y1556D02*
X941Y1556D01*
X1012Y1556D02*
X1018Y1556D01*
X1029Y1556D02*
X1041Y1556D01*
X1112Y1556D02*
X1118Y1556D01*
X1129Y1556D02*
X1141Y1556D01*
X1212Y1556D02*
X1218Y1556D01*
X1229Y1556D02*
X1241Y1556D01*
X1312Y1556D02*
X1318Y1556D01*
X1329Y1556D02*
X1341Y1556D01*
X1412Y1556D02*
X1418Y1556D01*
X1429Y1556D02*
X1441Y1556D01*
X1512Y1556D02*
X1518Y1556D01*
X1529Y1556D02*
X1541Y1556D01*
X1612Y1556D02*
X1618Y1556D01*
X1629Y1556D02*
X1641Y1556D01*
X1712Y1556D02*
X1718Y1556D01*
X1729Y1556D02*
X1741Y1556D01*
X1812Y1556D02*
X1818Y1556D01*
X1829Y1556D02*
X1841Y1556D01*
X1912Y1556D02*
X1918Y1556D01*
X1929Y1556D02*
X1941Y1556D01*
X2012Y1556D02*
X2018Y1556D01*
X2029Y1556D02*
X2041Y1556D01*
X2734Y1556D02*
X2741Y1556D01*
X0Y1555D02*
X7Y1555D01*
X912Y1555D02*
X918Y1555D01*
X929Y1555D02*
X943Y1555D01*
X1012Y1555D02*
X1018Y1555D01*
X1029Y1555D02*
X1043Y1555D01*
X1112Y1555D02*
X1118Y1555D01*
X1129Y1555D02*
X1143Y1555D01*
X1212Y1555D02*
X1218Y1555D01*
X1229Y1555D02*
X1243Y1555D01*
X1312Y1555D02*
X1318Y1555D01*
X1329Y1555D02*
X1343Y1555D01*
X1412Y1555D02*
X1418Y1555D01*
X1429Y1555D02*
X1443Y1555D01*
X1512Y1555D02*
X1518Y1555D01*
X1529Y1555D02*
X1543Y1555D01*
X1612Y1555D02*
X1618Y1555D01*
X1629Y1555D02*
X1643Y1555D01*
X1712Y1555D02*
X1718Y1555D01*
X1729Y1555D02*
X1743Y1555D01*
X1812Y1555D02*
X1818Y1555D01*
X1829Y1555D02*
X1843Y1555D01*
X1912Y1555D02*
X1918Y1555D01*
X1929Y1555D02*
X1943Y1555D01*
X2012Y1555D02*
X2018Y1555D01*
X2029Y1555D02*
X2043Y1555D01*
X2734Y1555D02*
X2741Y1555D01*
X0Y1554D02*
X7Y1554D01*
X912Y1554D02*
X918Y1554D01*
X929Y1554D02*
X945Y1554D01*
X1012Y1554D02*
X1018Y1554D01*
X1029Y1554D02*
X1045Y1554D01*
X1112Y1554D02*
X1118Y1554D01*
X1129Y1554D02*
X1145Y1554D01*
X1212Y1554D02*
X1218Y1554D01*
X1229Y1554D02*
X1245Y1554D01*
X1312Y1554D02*
X1318Y1554D01*
X1329Y1554D02*
X1345Y1554D01*
X1412Y1554D02*
X1418Y1554D01*
X1429Y1554D02*
X1445Y1554D01*
X1512Y1554D02*
X1518Y1554D01*
X1529Y1554D02*
X1545Y1554D01*
X1612Y1554D02*
X1618Y1554D01*
X1629Y1554D02*
X1645Y1554D01*
X1712Y1554D02*
X1718Y1554D01*
X1729Y1554D02*
X1745Y1554D01*
X1812Y1554D02*
X1818Y1554D01*
X1829Y1554D02*
X1845Y1554D01*
X1912Y1554D02*
X1918Y1554D01*
X1929Y1554D02*
X1945Y1554D01*
X2012Y1554D02*
X2018Y1554D01*
X2029Y1554D02*
X2045Y1554D01*
X2734Y1554D02*
X2741Y1554D01*
X0Y1553D02*
X7Y1553D01*
X912Y1553D02*
X918Y1553D01*
X929Y1553D02*
X946Y1553D01*
X1012Y1553D02*
X1018Y1553D01*
X1029Y1553D02*
X1046Y1553D01*
X1112Y1553D02*
X1118Y1553D01*
X1129Y1553D02*
X1146Y1553D01*
X1212Y1553D02*
X1218Y1553D01*
X1229Y1553D02*
X1246Y1553D01*
X1312Y1553D02*
X1318Y1553D01*
X1329Y1553D02*
X1346Y1553D01*
X1412Y1553D02*
X1418Y1553D01*
X1429Y1553D02*
X1446Y1553D01*
X1512Y1553D02*
X1518Y1553D01*
X1529Y1553D02*
X1546Y1553D01*
X1612Y1553D02*
X1618Y1553D01*
X1629Y1553D02*
X1646Y1553D01*
X1712Y1553D02*
X1718Y1553D01*
X1729Y1553D02*
X1746Y1553D01*
X1812Y1553D02*
X1818Y1553D01*
X1829Y1553D02*
X1846Y1553D01*
X1912Y1553D02*
X1918Y1553D01*
X1929Y1553D02*
X1946Y1553D01*
X2012Y1553D02*
X2018Y1553D01*
X2029Y1553D02*
X2046Y1553D01*
X2734Y1553D02*
X2741Y1553D01*
X0Y1552D02*
X7Y1552D01*
X912Y1552D02*
X918Y1552D01*
X929Y1552D02*
X948Y1552D01*
X1012Y1552D02*
X1018Y1552D01*
X1029Y1552D02*
X1048Y1552D01*
X1112Y1552D02*
X1118Y1552D01*
X1129Y1552D02*
X1148Y1552D01*
X1212Y1552D02*
X1218Y1552D01*
X1229Y1552D02*
X1248Y1552D01*
X1312Y1552D02*
X1318Y1552D01*
X1329Y1552D02*
X1348Y1552D01*
X1412Y1552D02*
X1418Y1552D01*
X1429Y1552D02*
X1448Y1552D01*
X1512Y1552D02*
X1518Y1552D01*
X1529Y1552D02*
X1548Y1552D01*
X1612Y1552D02*
X1618Y1552D01*
X1629Y1552D02*
X1648Y1552D01*
X1712Y1552D02*
X1718Y1552D01*
X1729Y1552D02*
X1748Y1552D01*
X1812Y1552D02*
X1818Y1552D01*
X1829Y1552D02*
X1848Y1552D01*
X1912Y1552D02*
X1918Y1552D01*
X1929Y1552D02*
X1948Y1552D01*
X2012Y1552D02*
X2018Y1552D01*
X2029Y1552D02*
X2048Y1552D01*
X2734Y1552D02*
X2741Y1552D01*
X0Y1551D02*
X7Y1551D01*
X912Y1551D02*
X918Y1551D01*
X929Y1551D02*
X950Y1551D01*
X1012Y1551D02*
X1018Y1551D01*
X1029Y1551D02*
X1050Y1551D01*
X1112Y1551D02*
X1118Y1551D01*
X1129Y1551D02*
X1150Y1551D01*
X1212Y1551D02*
X1218Y1551D01*
X1229Y1551D02*
X1250Y1551D01*
X1312Y1551D02*
X1318Y1551D01*
X1329Y1551D02*
X1350Y1551D01*
X1412Y1551D02*
X1418Y1551D01*
X1429Y1551D02*
X1450Y1551D01*
X1512Y1551D02*
X1518Y1551D01*
X1529Y1551D02*
X1550Y1551D01*
X1612Y1551D02*
X1618Y1551D01*
X1629Y1551D02*
X1650Y1551D01*
X1712Y1551D02*
X1718Y1551D01*
X1729Y1551D02*
X1750Y1551D01*
X1812Y1551D02*
X1818Y1551D01*
X1829Y1551D02*
X1850Y1551D01*
X1912Y1551D02*
X1918Y1551D01*
X1929Y1551D02*
X1950Y1551D01*
X2012Y1551D02*
X2018Y1551D01*
X2029Y1551D02*
X2050Y1551D01*
X2734Y1551D02*
X2741Y1551D01*
X0Y1550D02*
X7Y1550D01*
X912Y1550D02*
X918Y1550D01*
X929Y1550D02*
X936Y1550D01*
X938Y1550D02*
X951Y1550D01*
X1012Y1550D02*
X1018Y1550D01*
X1029Y1550D02*
X1036Y1550D01*
X1038Y1550D02*
X1051Y1550D01*
X1112Y1550D02*
X1118Y1550D01*
X1129Y1550D02*
X1136Y1550D01*
X1138Y1550D02*
X1151Y1550D01*
X1212Y1550D02*
X1218Y1550D01*
X1229Y1550D02*
X1235Y1550D01*
X1238Y1550D02*
X1251Y1550D01*
X1312Y1550D02*
X1318Y1550D01*
X1329Y1550D02*
X1335Y1550D01*
X1338Y1550D02*
X1351Y1550D01*
X1412Y1550D02*
X1418Y1550D01*
X1429Y1550D02*
X1435Y1550D01*
X1438Y1550D02*
X1451Y1550D01*
X1512Y1550D02*
X1518Y1550D01*
X1529Y1550D02*
X1535Y1550D01*
X1538Y1550D02*
X1551Y1550D01*
X1612Y1550D02*
X1618Y1550D01*
X1629Y1550D02*
X1635Y1550D01*
X1638Y1550D02*
X1651Y1550D01*
X1712Y1550D02*
X1718Y1550D01*
X1729Y1550D02*
X1735Y1550D01*
X1738Y1550D02*
X1751Y1550D01*
X1812Y1550D02*
X1818Y1550D01*
X1829Y1550D02*
X1835Y1550D01*
X1838Y1550D02*
X1851Y1550D01*
X1912Y1550D02*
X1918Y1550D01*
X1929Y1550D02*
X1935Y1550D01*
X1938Y1550D02*
X1951Y1550D01*
X2012Y1550D02*
X2018Y1550D01*
X2029Y1550D02*
X2035Y1550D01*
X2038Y1550D02*
X2051Y1550D01*
X2734Y1550D02*
X2741Y1550D01*
X0Y1549D02*
X7Y1549D01*
X912Y1549D02*
X918Y1549D01*
X929Y1549D02*
X936Y1549D01*
X940Y1549D02*
X953Y1549D01*
X1012Y1549D02*
X1018Y1549D01*
X1029Y1549D02*
X1036Y1549D01*
X1040Y1549D02*
X1053Y1549D01*
X1112Y1549D02*
X1118Y1549D01*
X1129Y1549D02*
X1136Y1549D01*
X1140Y1549D02*
X1153Y1549D01*
X1212Y1549D02*
X1218Y1549D01*
X1229Y1549D02*
X1235Y1549D01*
X1240Y1549D02*
X1253Y1549D01*
X1312Y1549D02*
X1318Y1549D01*
X1329Y1549D02*
X1335Y1549D01*
X1340Y1549D02*
X1353Y1549D01*
X1412Y1549D02*
X1418Y1549D01*
X1429Y1549D02*
X1435Y1549D01*
X1440Y1549D02*
X1453Y1549D01*
X1512Y1549D02*
X1518Y1549D01*
X1529Y1549D02*
X1535Y1549D01*
X1540Y1549D02*
X1553Y1549D01*
X1612Y1549D02*
X1618Y1549D01*
X1629Y1549D02*
X1635Y1549D01*
X1640Y1549D02*
X1653Y1549D01*
X1712Y1549D02*
X1718Y1549D01*
X1729Y1549D02*
X1735Y1549D01*
X1740Y1549D02*
X1753Y1549D01*
X1812Y1549D02*
X1818Y1549D01*
X1829Y1549D02*
X1835Y1549D01*
X1840Y1549D02*
X1853Y1549D01*
X1912Y1549D02*
X1918Y1549D01*
X1929Y1549D02*
X1935Y1549D01*
X1940Y1549D02*
X1953Y1549D01*
X2012Y1549D02*
X2018Y1549D01*
X2029Y1549D02*
X2035Y1549D01*
X2040Y1549D02*
X2053Y1549D01*
X2734Y1549D02*
X2741Y1549D01*
X0Y1548D02*
X7Y1548D01*
X912Y1548D02*
X918Y1548D01*
X929Y1548D02*
X936Y1548D01*
X942Y1548D02*
X955Y1548D01*
X1012Y1548D02*
X1018Y1548D01*
X1029Y1548D02*
X1036Y1548D01*
X1042Y1548D02*
X1055Y1548D01*
X1112Y1548D02*
X1118Y1548D01*
X1129Y1548D02*
X1136Y1548D01*
X1142Y1548D02*
X1155Y1548D01*
X1212Y1548D02*
X1218Y1548D01*
X1229Y1548D02*
X1235Y1548D01*
X1242Y1548D02*
X1255Y1548D01*
X1312Y1548D02*
X1318Y1548D01*
X1329Y1548D02*
X1335Y1548D01*
X1342Y1548D02*
X1355Y1548D01*
X1412Y1548D02*
X1418Y1548D01*
X1429Y1548D02*
X1435Y1548D01*
X1442Y1548D02*
X1455Y1548D01*
X1512Y1548D02*
X1518Y1548D01*
X1529Y1548D02*
X1535Y1548D01*
X1542Y1548D02*
X1555Y1548D01*
X1612Y1548D02*
X1618Y1548D01*
X1629Y1548D02*
X1635Y1548D01*
X1642Y1548D02*
X1655Y1548D01*
X1712Y1548D02*
X1718Y1548D01*
X1729Y1548D02*
X1735Y1548D01*
X1742Y1548D02*
X1755Y1548D01*
X1812Y1548D02*
X1818Y1548D01*
X1829Y1548D02*
X1835Y1548D01*
X1842Y1548D02*
X1855Y1548D01*
X1912Y1548D02*
X1918Y1548D01*
X1929Y1548D02*
X1935Y1548D01*
X1942Y1548D02*
X1955Y1548D01*
X2012Y1548D02*
X2018Y1548D01*
X2029Y1548D02*
X2035Y1548D01*
X2042Y1548D02*
X2055Y1548D01*
X2734Y1548D02*
X2741Y1548D01*
X0Y1547D02*
X7Y1547D01*
X912Y1547D02*
X918Y1547D01*
X929Y1547D02*
X935Y1547D01*
X944Y1547D02*
X957Y1547D01*
X1012Y1547D02*
X1018Y1547D01*
X1029Y1547D02*
X1035Y1547D01*
X1044Y1547D02*
X1057Y1547D01*
X1112Y1547D02*
X1118Y1547D01*
X1129Y1547D02*
X1135Y1547D01*
X1144Y1547D02*
X1157Y1547D01*
X1212Y1547D02*
X1218Y1547D01*
X1229Y1547D02*
X1235Y1547D01*
X1244Y1547D02*
X1257Y1547D01*
X1312Y1547D02*
X1318Y1547D01*
X1329Y1547D02*
X1335Y1547D01*
X1344Y1547D02*
X1357Y1547D01*
X1412Y1547D02*
X1418Y1547D01*
X1429Y1547D02*
X1435Y1547D01*
X1444Y1547D02*
X1457Y1547D01*
X1512Y1547D02*
X1518Y1547D01*
X1529Y1547D02*
X1535Y1547D01*
X1544Y1547D02*
X1557Y1547D01*
X1612Y1547D02*
X1618Y1547D01*
X1629Y1547D02*
X1635Y1547D01*
X1644Y1547D02*
X1657Y1547D01*
X1712Y1547D02*
X1718Y1547D01*
X1729Y1547D02*
X1735Y1547D01*
X1744Y1547D02*
X1757Y1547D01*
X1812Y1547D02*
X1818Y1547D01*
X1829Y1547D02*
X1835Y1547D01*
X1844Y1547D02*
X1857Y1547D01*
X1912Y1547D02*
X1918Y1547D01*
X1929Y1547D02*
X1935Y1547D01*
X1944Y1547D02*
X1957Y1547D01*
X2012Y1547D02*
X2018Y1547D01*
X2029Y1547D02*
X2035Y1547D01*
X2044Y1547D02*
X2057Y1547D01*
X2734Y1547D02*
X2741Y1547D01*
X0Y1546D02*
X7Y1546D01*
X912Y1546D02*
X918Y1546D01*
X929Y1546D02*
X935Y1546D01*
X945Y1546D02*
X958Y1546D01*
X1012Y1546D02*
X1018Y1546D01*
X1029Y1546D02*
X1035Y1546D01*
X1045Y1546D02*
X1058Y1546D01*
X1112Y1546D02*
X1118Y1546D01*
X1129Y1546D02*
X1135Y1546D01*
X1145Y1546D02*
X1158Y1546D01*
X1212Y1546D02*
X1218Y1546D01*
X1229Y1546D02*
X1235Y1546D01*
X1245Y1546D02*
X1258Y1546D01*
X1312Y1546D02*
X1318Y1546D01*
X1329Y1546D02*
X1335Y1546D01*
X1345Y1546D02*
X1358Y1546D01*
X1412Y1546D02*
X1418Y1546D01*
X1429Y1546D02*
X1435Y1546D01*
X1445Y1546D02*
X1458Y1546D01*
X1512Y1546D02*
X1518Y1546D01*
X1529Y1546D02*
X1535Y1546D01*
X1545Y1546D02*
X1558Y1546D01*
X1612Y1546D02*
X1618Y1546D01*
X1629Y1546D02*
X1635Y1546D01*
X1645Y1546D02*
X1658Y1546D01*
X1712Y1546D02*
X1718Y1546D01*
X1729Y1546D02*
X1735Y1546D01*
X1745Y1546D02*
X1758Y1546D01*
X1812Y1546D02*
X1818Y1546D01*
X1829Y1546D02*
X1835Y1546D01*
X1845Y1546D02*
X1858Y1546D01*
X1912Y1546D02*
X1918Y1546D01*
X1929Y1546D02*
X1935Y1546D01*
X1945Y1546D02*
X1958Y1546D01*
X2012Y1546D02*
X2018Y1546D01*
X2029Y1546D02*
X2035Y1546D01*
X2045Y1546D02*
X2058Y1546D01*
X2734Y1546D02*
X2741Y1546D01*
X0Y1545D02*
X7Y1545D01*
X912Y1545D02*
X919Y1545D01*
X929Y1545D02*
X935Y1545D01*
X947Y1545D02*
X960Y1545D01*
X1012Y1545D02*
X1019Y1545D01*
X1029Y1545D02*
X1035Y1545D01*
X1047Y1545D02*
X1060Y1545D01*
X1112Y1545D02*
X1119Y1545D01*
X1129Y1545D02*
X1135Y1545D01*
X1147Y1545D02*
X1160Y1545D01*
X1212Y1545D02*
X1219Y1545D01*
X1229Y1545D02*
X1235Y1545D01*
X1247Y1545D02*
X1260Y1545D01*
X1312Y1545D02*
X1319Y1545D01*
X1329Y1545D02*
X1335Y1545D01*
X1347Y1545D02*
X1360Y1545D01*
X1412Y1545D02*
X1419Y1545D01*
X1429Y1545D02*
X1435Y1545D01*
X1447Y1545D02*
X1460Y1545D01*
X1512Y1545D02*
X1519Y1545D01*
X1529Y1545D02*
X1535Y1545D01*
X1547Y1545D02*
X1560Y1545D01*
X1612Y1545D02*
X1619Y1545D01*
X1629Y1545D02*
X1635Y1545D01*
X1647Y1545D02*
X1660Y1545D01*
X1712Y1545D02*
X1719Y1545D01*
X1729Y1545D02*
X1735Y1545D01*
X1747Y1545D02*
X1760Y1545D01*
X1812Y1545D02*
X1819Y1545D01*
X1829Y1545D02*
X1835Y1545D01*
X1847Y1545D02*
X1860Y1545D01*
X1912Y1545D02*
X1919Y1545D01*
X1929Y1545D02*
X1935Y1545D01*
X1947Y1545D02*
X1960Y1545D01*
X2012Y1545D02*
X2019Y1545D01*
X2029Y1545D02*
X2035Y1545D01*
X2047Y1545D02*
X2060Y1545D01*
X2734Y1545D02*
X2741Y1545D01*
X0Y1544D02*
X7Y1544D01*
X912Y1544D02*
X920Y1544D01*
X928Y1544D02*
X935Y1544D01*
X949Y1544D02*
X962Y1544D01*
X1012Y1544D02*
X1020Y1544D01*
X1028Y1544D02*
X1035Y1544D01*
X1049Y1544D02*
X1062Y1544D01*
X1112Y1544D02*
X1120Y1544D01*
X1128Y1544D02*
X1135Y1544D01*
X1149Y1544D02*
X1162Y1544D01*
X1212Y1544D02*
X1220Y1544D01*
X1228Y1544D02*
X1235Y1544D01*
X1249Y1544D02*
X1262Y1544D01*
X1312Y1544D02*
X1320Y1544D01*
X1328Y1544D02*
X1335Y1544D01*
X1349Y1544D02*
X1362Y1544D01*
X1412Y1544D02*
X1420Y1544D01*
X1428Y1544D02*
X1435Y1544D01*
X1449Y1544D02*
X1462Y1544D01*
X1512Y1544D02*
X1520Y1544D01*
X1528Y1544D02*
X1535Y1544D01*
X1549Y1544D02*
X1562Y1544D01*
X1612Y1544D02*
X1620Y1544D01*
X1628Y1544D02*
X1635Y1544D01*
X1649Y1544D02*
X1662Y1544D01*
X1712Y1544D02*
X1720Y1544D01*
X1728Y1544D02*
X1735Y1544D01*
X1749Y1544D02*
X1762Y1544D01*
X1812Y1544D02*
X1820Y1544D01*
X1828Y1544D02*
X1835Y1544D01*
X1849Y1544D02*
X1862Y1544D01*
X1912Y1544D02*
X1920Y1544D01*
X1928Y1544D02*
X1935Y1544D01*
X1949Y1544D02*
X1962Y1544D01*
X2012Y1544D02*
X2020Y1544D01*
X2028Y1544D02*
X2035Y1544D01*
X2049Y1544D02*
X2062Y1544D01*
X2734Y1544D02*
X2741Y1544D01*
X0Y1543D02*
X7Y1543D01*
X913Y1543D02*
X935Y1543D01*
X950Y1543D02*
X963Y1543D01*
X1013Y1543D02*
X1035Y1543D01*
X1050Y1543D02*
X1063Y1543D01*
X1113Y1543D02*
X1135Y1543D01*
X1150Y1543D02*
X1163Y1543D01*
X1213Y1543D02*
X1235Y1543D01*
X1250Y1543D02*
X1263Y1543D01*
X1313Y1543D02*
X1335Y1543D01*
X1350Y1543D02*
X1363Y1543D01*
X1413Y1543D02*
X1435Y1543D01*
X1450Y1543D02*
X1463Y1543D01*
X1513Y1543D02*
X1535Y1543D01*
X1550Y1543D02*
X1563Y1543D01*
X1613Y1543D02*
X1635Y1543D01*
X1650Y1543D02*
X1663Y1543D01*
X1713Y1543D02*
X1735Y1543D01*
X1750Y1543D02*
X1763Y1543D01*
X1813Y1543D02*
X1835Y1543D01*
X1850Y1543D02*
X1863Y1543D01*
X1913Y1543D02*
X1935Y1543D01*
X1950Y1543D02*
X1963Y1543D01*
X2013Y1543D02*
X2035Y1543D01*
X2050Y1543D02*
X2063Y1543D01*
X2734Y1543D02*
X2741Y1543D01*
X0Y1542D02*
X7Y1542D01*
X913Y1542D02*
X934Y1542D01*
X952Y1542D02*
X964Y1542D01*
X1013Y1542D02*
X1034Y1542D01*
X1052Y1542D02*
X1064Y1542D01*
X1113Y1542D02*
X1134Y1542D01*
X1152Y1542D02*
X1164Y1542D01*
X1213Y1542D02*
X1234Y1542D01*
X1252Y1542D02*
X1264Y1542D01*
X1313Y1542D02*
X1334Y1542D01*
X1352Y1542D02*
X1364Y1542D01*
X1413Y1542D02*
X1434Y1542D01*
X1452Y1542D02*
X1464Y1542D01*
X1513Y1542D02*
X1534Y1542D01*
X1552Y1542D02*
X1564Y1542D01*
X1613Y1542D02*
X1634Y1542D01*
X1652Y1542D02*
X1664Y1542D01*
X1713Y1542D02*
X1734Y1542D01*
X1752Y1542D02*
X1764Y1542D01*
X1813Y1542D02*
X1834Y1542D01*
X1852Y1542D02*
X1864Y1542D01*
X1913Y1542D02*
X1934Y1542D01*
X1952Y1542D02*
X1964Y1542D01*
X2013Y1542D02*
X2034Y1542D01*
X2052Y1542D02*
X2064Y1542D01*
X2734Y1542D02*
X2741Y1542D01*
X0Y1541D02*
X7Y1541D01*
X914Y1541D02*
X933Y1541D01*
X954Y1541D02*
X965Y1541D01*
X1014Y1541D02*
X1033Y1541D01*
X1054Y1541D02*
X1065Y1541D01*
X1114Y1541D02*
X1133Y1541D01*
X1154Y1541D02*
X1165Y1541D01*
X1214Y1541D02*
X1233Y1541D01*
X1254Y1541D02*
X1265Y1541D01*
X1314Y1541D02*
X1333Y1541D01*
X1354Y1541D02*
X1365Y1541D01*
X1414Y1541D02*
X1433Y1541D01*
X1454Y1541D02*
X1465Y1541D01*
X1514Y1541D02*
X1533Y1541D01*
X1554Y1541D02*
X1565Y1541D01*
X1614Y1541D02*
X1633Y1541D01*
X1654Y1541D02*
X1665Y1541D01*
X1714Y1541D02*
X1733Y1541D01*
X1754Y1541D02*
X1765Y1541D01*
X1814Y1541D02*
X1833Y1541D01*
X1854Y1541D02*
X1865Y1541D01*
X1914Y1541D02*
X1933Y1541D01*
X1954Y1541D02*
X1965Y1541D01*
X2014Y1541D02*
X2033Y1541D01*
X2054Y1541D02*
X2065Y1541D01*
X2734Y1541D02*
X2741Y1541D01*
X0Y1540D02*
X7Y1540D01*
X915Y1540D02*
X933Y1540D01*
X956Y1540D02*
X965Y1540D01*
X1015Y1540D02*
X1033Y1540D01*
X1056Y1540D02*
X1065Y1540D01*
X1115Y1540D02*
X1133Y1540D01*
X1156Y1540D02*
X1165Y1540D01*
X1215Y1540D02*
X1233Y1540D01*
X1256Y1540D02*
X1265Y1540D01*
X1315Y1540D02*
X1333Y1540D01*
X1356Y1540D02*
X1365Y1540D01*
X1415Y1540D02*
X1433Y1540D01*
X1456Y1540D02*
X1465Y1540D01*
X1515Y1540D02*
X1533Y1540D01*
X1556Y1540D02*
X1565Y1540D01*
X1615Y1540D02*
X1633Y1540D01*
X1656Y1540D02*
X1665Y1540D01*
X1715Y1540D02*
X1733Y1540D01*
X1756Y1540D02*
X1765Y1540D01*
X1815Y1540D02*
X1833Y1540D01*
X1856Y1540D02*
X1865Y1540D01*
X1915Y1540D02*
X1933Y1540D01*
X1956Y1540D02*
X1965Y1540D01*
X2015Y1540D02*
X2033Y1540D01*
X2056Y1540D02*
X2065Y1540D01*
X2734Y1540D02*
X2741Y1540D01*
X0Y1539D02*
X7Y1539D01*
X916Y1539D02*
X932Y1539D01*
X957Y1539D02*
X965Y1539D01*
X1016Y1539D02*
X1032Y1539D01*
X1057Y1539D02*
X1065Y1539D01*
X1116Y1539D02*
X1132Y1539D01*
X1157Y1539D02*
X1165Y1539D01*
X1216Y1539D02*
X1232Y1539D01*
X1257Y1539D02*
X1265Y1539D01*
X1316Y1539D02*
X1332Y1539D01*
X1357Y1539D02*
X1365Y1539D01*
X1416Y1539D02*
X1432Y1539D01*
X1457Y1539D02*
X1465Y1539D01*
X1516Y1539D02*
X1532Y1539D01*
X1557Y1539D02*
X1565Y1539D01*
X1616Y1539D02*
X1632Y1539D01*
X1657Y1539D02*
X1665Y1539D01*
X1716Y1539D02*
X1732Y1539D01*
X1757Y1539D02*
X1765Y1539D01*
X1816Y1539D02*
X1832Y1539D01*
X1857Y1539D02*
X1865Y1539D01*
X1916Y1539D02*
X1932Y1539D01*
X1957Y1539D02*
X1965Y1539D01*
X2016Y1539D02*
X2032Y1539D01*
X2057Y1539D02*
X2065Y1539D01*
X2734Y1539D02*
X2741Y1539D01*
X0Y1538D02*
X7Y1538D01*
X917Y1538D02*
X930Y1538D01*
X959Y1538D02*
X964Y1538D01*
X1017Y1538D02*
X1030Y1538D01*
X1059Y1538D02*
X1064Y1538D01*
X1117Y1538D02*
X1130Y1538D01*
X1159Y1538D02*
X1164Y1538D01*
X1217Y1538D02*
X1230Y1538D01*
X1259Y1538D02*
X1264Y1538D01*
X1317Y1538D02*
X1330Y1538D01*
X1359Y1538D02*
X1364Y1538D01*
X1417Y1538D02*
X1430Y1538D01*
X1459Y1538D02*
X1464Y1538D01*
X1517Y1538D02*
X1530Y1538D01*
X1559Y1538D02*
X1564Y1538D01*
X1617Y1538D02*
X1630Y1538D01*
X1659Y1538D02*
X1664Y1538D01*
X1717Y1538D02*
X1730Y1538D01*
X1759Y1538D02*
X1764Y1538D01*
X1817Y1538D02*
X1830Y1538D01*
X1859Y1538D02*
X1864Y1538D01*
X1917Y1538D02*
X1930Y1538D01*
X1959Y1538D02*
X1964Y1538D01*
X2017Y1538D02*
X2030Y1538D01*
X2059Y1538D02*
X2064Y1538D01*
X2734Y1538D02*
X2741Y1538D01*
X0Y1537D02*
X7Y1537D01*
X919Y1537D02*
X928Y1537D01*
X961Y1537D02*
X963Y1537D01*
X1019Y1537D02*
X1028Y1537D01*
X1061Y1537D02*
X1063Y1537D01*
X1119Y1537D02*
X1128Y1537D01*
X1161Y1537D02*
X1163Y1537D01*
X1219Y1537D02*
X1228Y1537D01*
X1261Y1537D02*
X1263Y1537D01*
X1319Y1537D02*
X1328Y1537D01*
X1361Y1537D02*
X1363Y1537D01*
X1419Y1537D02*
X1428Y1537D01*
X1461Y1537D02*
X1463Y1537D01*
X1519Y1537D02*
X1528Y1537D01*
X1561Y1537D02*
X1563Y1537D01*
X1619Y1537D02*
X1628Y1537D01*
X1661Y1537D02*
X1663Y1537D01*
X1719Y1537D02*
X1728Y1537D01*
X1761Y1537D02*
X1763Y1537D01*
X1819Y1537D02*
X1828Y1537D01*
X1861Y1537D02*
X1863Y1537D01*
X1919Y1537D02*
X1928Y1537D01*
X1961Y1537D02*
X1963Y1537D01*
X2019Y1537D02*
X2028Y1537D01*
X2061Y1537D02*
X2063Y1537D01*
X2734Y1537D02*
X2741Y1537D01*
X0Y1536D02*
X7Y1536D01*
X2734Y1536D02*
X2741Y1536D01*
X0Y1535D02*
X7Y1535D01*
X2734Y1535D02*
X2741Y1535D01*
X0Y1534D02*
X7Y1534D01*
X2734Y1534D02*
X2741Y1534D01*
X0Y1533D02*
X7Y1533D01*
X2734Y1533D02*
X2741Y1533D01*
X0Y1532D02*
X7Y1532D01*
X2734Y1532D02*
X2741Y1532D01*
X0Y1531D02*
X7Y1531D01*
X2734Y1531D02*
X2741Y1531D01*
X0Y1530D02*
X7Y1530D01*
X2734Y1530D02*
X2741Y1530D01*
X0Y1529D02*
X7Y1529D01*
X2734Y1529D02*
X2741Y1529D01*
X0Y1528D02*
X7Y1528D01*
X2734Y1528D02*
X2741Y1528D01*
X0Y1527D02*
X7Y1527D01*
X2734Y1527D02*
X2741Y1527D01*
X0Y1526D02*
X7Y1526D01*
X2734Y1526D02*
X2741Y1526D01*
X0Y1525D02*
X7Y1525D01*
X2734Y1525D02*
X2741Y1525D01*
X0Y1524D02*
X7Y1524D01*
X2734Y1524D02*
X2741Y1524D01*
X0Y1523D02*
X7Y1523D01*
X2734Y1523D02*
X2741Y1523D01*
X0Y1522D02*
X7Y1522D01*
X2734Y1522D02*
X2741Y1522D01*
X0Y1521D02*
X7Y1521D01*
X2734Y1521D02*
X2741Y1521D01*
X0Y1520D02*
X7Y1520D01*
X1057Y1520D02*
X1061Y1520D01*
X1113Y1520D02*
X1164Y1520D01*
X1213Y1520D02*
X1219Y1520D01*
X1339Y1520D02*
X1361Y1520D01*
X1413Y1520D02*
X1434Y1520D01*
X1513Y1520D02*
X1517Y1520D01*
X1560Y1520D02*
X1564Y1520D01*
X1613Y1520D02*
X1617Y1520D01*
X1660Y1520D02*
X1664Y1520D01*
X1713Y1520D02*
X1717Y1520D01*
X1760Y1520D02*
X1764Y1520D01*
X1813Y1520D02*
X1817Y1520D01*
X1860Y1520D02*
X1864Y1520D01*
X1913Y1520D02*
X1917Y1520D01*
X1960Y1520D02*
X1964Y1520D01*
X2013Y1520D02*
X2017Y1520D01*
X2060Y1520D02*
X2064Y1520D01*
X2734Y1520D02*
X2741Y1520D01*
X0Y1519D02*
X7Y1519D01*
X914Y1519D02*
X947Y1519D01*
X1056Y1519D02*
X1062Y1519D01*
X1112Y1519D02*
X1164Y1519D01*
X1212Y1519D02*
X1220Y1519D01*
X1338Y1519D02*
X1363Y1519D01*
X1412Y1519D02*
X1435Y1519D01*
X1512Y1519D02*
X1517Y1519D01*
X1559Y1519D02*
X1564Y1519D01*
X1612Y1519D02*
X1617Y1519D01*
X1659Y1519D02*
X1664Y1519D01*
X1712Y1519D02*
X1717Y1519D01*
X1759Y1519D02*
X1764Y1519D01*
X1812Y1519D02*
X1817Y1519D01*
X1859Y1519D02*
X1864Y1519D01*
X1912Y1519D02*
X1917Y1519D01*
X1959Y1519D02*
X1964Y1519D01*
X2012Y1519D02*
X2017Y1519D01*
X2059Y1519D02*
X2064Y1519D01*
X2734Y1519D02*
X2741Y1519D01*
X0Y1518D02*
X7Y1518D01*
X913Y1518D02*
X947Y1518D01*
X1056Y1518D02*
X1062Y1518D01*
X1112Y1518D02*
X1165Y1518D01*
X1212Y1518D02*
X1221Y1518D01*
X1337Y1518D02*
X1364Y1518D01*
X1412Y1518D02*
X1435Y1518D01*
X1512Y1518D02*
X1518Y1518D01*
X1559Y1518D02*
X1565Y1518D01*
X1612Y1518D02*
X1618Y1518D01*
X1659Y1518D02*
X1665Y1518D01*
X1712Y1518D02*
X1718Y1518D01*
X1759Y1518D02*
X1765Y1518D01*
X1812Y1518D02*
X1818Y1518D01*
X1859Y1518D02*
X1865Y1518D01*
X1912Y1518D02*
X1918Y1518D01*
X1959Y1518D02*
X1965Y1518D01*
X2012Y1518D02*
X2018Y1518D01*
X2059Y1518D02*
X2065Y1518D01*
X2734Y1518D02*
X2741Y1518D01*
X0Y1517D02*
X7Y1517D01*
X912Y1517D02*
X947Y1517D01*
X1056Y1517D02*
X1063Y1517D01*
X1112Y1517D02*
X1165Y1517D01*
X1212Y1517D02*
X1221Y1517D01*
X1336Y1517D02*
X1364Y1517D01*
X1412Y1517D02*
X1435Y1517D01*
X1512Y1517D02*
X1518Y1517D01*
X1559Y1517D02*
X1565Y1517D01*
X1612Y1517D02*
X1618Y1517D01*
X1659Y1517D02*
X1665Y1517D01*
X1712Y1517D02*
X1718Y1517D01*
X1759Y1517D02*
X1765Y1517D01*
X1812Y1517D02*
X1818Y1517D01*
X1859Y1517D02*
X1865Y1517D01*
X1912Y1517D02*
X1918Y1517D01*
X1959Y1517D02*
X1965Y1517D01*
X2012Y1517D02*
X2018Y1517D01*
X2059Y1517D02*
X2065Y1517D01*
X2734Y1517D02*
X2741Y1517D01*
X0Y1516D02*
X7Y1516D01*
X912Y1516D02*
X947Y1516D01*
X1056Y1516D02*
X1063Y1516D01*
X1112Y1516D02*
X1165Y1516D01*
X1212Y1516D02*
X1220Y1516D01*
X1336Y1516D02*
X1365Y1516D01*
X1412Y1516D02*
X1435Y1516D01*
X1512Y1516D02*
X1518Y1516D01*
X1559Y1516D02*
X1565Y1516D01*
X1612Y1516D02*
X1618Y1516D01*
X1659Y1516D02*
X1665Y1516D01*
X1712Y1516D02*
X1718Y1516D01*
X1759Y1516D02*
X1765Y1516D01*
X1812Y1516D02*
X1818Y1516D01*
X1859Y1516D02*
X1865Y1516D01*
X1912Y1516D02*
X1918Y1516D01*
X1959Y1516D02*
X1965Y1516D01*
X2012Y1516D02*
X2018Y1516D01*
X2059Y1516D02*
X2065Y1516D01*
X2734Y1516D02*
X2741Y1516D01*
X0Y1515D02*
X7Y1515D01*
X912Y1515D02*
X947Y1515D01*
X1057Y1515D02*
X1064Y1515D01*
X1112Y1515D02*
X1165Y1515D01*
X1212Y1515D02*
X1220Y1515D01*
X1335Y1515D02*
X1365Y1515D01*
X1412Y1515D02*
X1435Y1515D01*
X1512Y1515D02*
X1518Y1515D01*
X1559Y1515D02*
X1565Y1515D01*
X1612Y1515D02*
X1618Y1515D01*
X1659Y1515D02*
X1665Y1515D01*
X1712Y1515D02*
X1718Y1515D01*
X1759Y1515D02*
X1765Y1515D01*
X1812Y1515D02*
X1818Y1515D01*
X1859Y1515D02*
X1865Y1515D01*
X1912Y1515D02*
X1918Y1515D01*
X1959Y1515D02*
X1965Y1515D01*
X2012Y1515D02*
X2018Y1515D01*
X2059Y1515D02*
X2065Y1515D01*
X2734Y1515D02*
X2741Y1515D01*
X0Y1514D02*
X7Y1514D01*
X912Y1514D02*
X947Y1514D01*
X1012Y1514D02*
X1041Y1514D01*
X1057Y1514D02*
X1064Y1514D01*
X1112Y1514D02*
X1165Y1514D01*
X1212Y1514D02*
X1218Y1514D01*
X1335Y1514D02*
X1365Y1514D01*
X1412Y1514D02*
X1435Y1514D01*
X1512Y1514D02*
X1518Y1514D01*
X1559Y1514D02*
X1565Y1514D01*
X1612Y1514D02*
X1618Y1514D01*
X1659Y1514D02*
X1665Y1514D01*
X1712Y1514D02*
X1718Y1514D01*
X1759Y1514D02*
X1765Y1514D01*
X1812Y1514D02*
X1818Y1514D01*
X1859Y1514D02*
X1865Y1514D01*
X1912Y1514D02*
X1918Y1514D01*
X1959Y1514D02*
X1965Y1514D01*
X2012Y1514D02*
X2018Y1514D01*
X2059Y1514D02*
X2065Y1514D01*
X2734Y1514D02*
X2741Y1514D01*
X0Y1513D02*
X7Y1513D01*
X913Y1513D02*
X947Y1513D01*
X1012Y1513D02*
X1041Y1513D01*
X1058Y1513D02*
X1064Y1513D01*
X1112Y1513D02*
X1118Y1513D01*
X1141Y1513D02*
X1147Y1513D01*
X1159Y1513D02*
X1165Y1513D01*
X1212Y1513D02*
X1218Y1513D01*
X1313Y1513D02*
X1341Y1513D01*
X1359Y1513D02*
X1365Y1513D01*
X1412Y1513D02*
X1418Y1513D01*
X1429Y1513D02*
X1435Y1513D01*
X1512Y1513D02*
X1518Y1513D01*
X1559Y1513D02*
X1565Y1513D01*
X1612Y1513D02*
X1618Y1513D01*
X1659Y1513D02*
X1665Y1513D01*
X1712Y1513D02*
X1718Y1513D01*
X1759Y1513D02*
X1765Y1513D01*
X1812Y1513D02*
X1818Y1513D01*
X1859Y1513D02*
X1865Y1513D01*
X1912Y1513D02*
X1918Y1513D01*
X1959Y1513D02*
X1965Y1513D01*
X2012Y1513D02*
X2018Y1513D01*
X2059Y1513D02*
X2065Y1513D01*
X2734Y1513D02*
X2741Y1513D01*
X0Y1512D02*
X7Y1512D01*
X941Y1512D02*
X947Y1512D01*
X1012Y1512D02*
X1041Y1512D01*
X1058Y1512D02*
X1065Y1512D01*
X1112Y1512D02*
X1117Y1512D01*
X1141Y1512D02*
X1147Y1512D01*
X1159Y1512D02*
X1165Y1512D01*
X1212Y1512D02*
X1218Y1512D01*
X1312Y1512D02*
X1341Y1512D01*
X1359Y1512D02*
X1365Y1512D01*
X1412Y1512D02*
X1418Y1512D01*
X1429Y1512D02*
X1435Y1512D01*
X1512Y1512D02*
X1518Y1512D01*
X1559Y1512D02*
X1565Y1512D01*
X1612Y1512D02*
X1618Y1512D01*
X1659Y1512D02*
X1665Y1512D01*
X1712Y1512D02*
X1718Y1512D01*
X1759Y1512D02*
X1765Y1512D01*
X1812Y1512D02*
X1818Y1512D01*
X1859Y1512D02*
X1865Y1512D01*
X1912Y1512D02*
X1918Y1512D01*
X1959Y1512D02*
X1965Y1512D01*
X2012Y1512D02*
X2018Y1512D01*
X2059Y1512D02*
X2065Y1512D01*
X2734Y1512D02*
X2741Y1512D01*
X0Y1511D02*
X7Y1511D01*
X941Y1511D02*
X947Y1511D01*
X1012Y1511D02*
X1041Y1511D01*
X1058Y1511D02*
X1065Y1511D01*
X1114Y1511D02*
X1116Y1511D01*
X1141Y1511D02*
X1147Y1511D01*
X1159Y1511D02*
X1165Y1511D01*
X1212Y1511D02*
X1218Y1511D01*
X1312Y1511D02*
X1341Y1511D01*
X1359Y1511D02*
X1365Y1511D01*
X1412Y1511D02*
X1418Y1511D01*
X1429Y1511D02*
X1435Y1511D01*
X1512Y1511D02*
X1518Y1511D01*
X1559Y1511D02*
X1565Y1511D01*
X1612Y1511D02*
X1618Y1511D01*
X1659Y1511D02*
X1665Y1511D01*
X1712Y1511D02*
X1718Y1511D01*
X1759Y1511D02*
X1765Y1511D01*
X1812Y1511D02*
X1818Y1511D01*
X1859Y1511D02*
X1865Y1511D01*
X1912Y1511D02*
X1918Y1511D01*
X1959Y1511D02*
X1965Y1511D01*
X2012Y1511D02*
X2018Y1511D01*
X2059Y1511D02*
X2065Y1511D01*
X2734Y1511D02*
X2741Y1511D01*
X0Y1510D02*
X7Y1510D01*
X941Y1510D02*
X947Y1510D01*
X1012Y1510D02*
X1041Y1510D01*
X1059Y1510D02*
X1065Y1510D01*
X1141Y1510D02*
X1147Y1510D01*
X1159Y1510D02*
X1165Y1510D01*
X1212Y1510D02*
X1218Y1510D01*
X1312Y1510D02*
X1341Y1510D01*
X1359Y1510D02*
X1365Y1510D01*
X1412Y1510D02*
X1418Y1510D01*
X1429Y1510D02*
X1435Y1510D01*
X1512Y1510D02*
X1518Y1510D01*
X1559Y1510D02*
X1565Y1510D01*
X1612Y1510D02*
X1618Y1510D01*
X1659Y1510D02*
X1665Y1510D01*
X1712Y1510D02*
X1718Y1510D01*
X1759Y1510D02*
X1765Y1510D01*
X1812Y1510D02*
X1818Y1510D01*
X1859Y1510D02*
X1865Y1510D01*
X1912Y1510D02*
X1918Y1510D01*
X1959Y1510D02*
X1965Y1510D01*
X2012Y1510D02*
X2018Y1510D01*
X2059Y1510D02*
X2065Y1510D01*
X2734Y1510D02*
X2741Y1510D01*
X0Y1509D02*
X7Y1509D01*
X941Y1509D02*
X947Y1509D01*
X1012Y1509D02*
X1041Y1509D01*
X1059Y1509D02*
X1065Y1509D01*
X1141Y1509D02*
X1147Y1509D01*
X1159Y1509D02*
X1165Y1509D01*
X1212Y1509D02*
X1218Y1509D01*
X1312Y1509D02*
X1341Y1509D01*
X1359Y1509D02*
X1365Y1509D01*
X1412Y1509D02*
X1418Y1509D01*
X1429Y1509D02*
X1435Y1509D01*
X1512Y1509D02*
X1518Y1509D01*
X1559Y1509D02*
X1565Y1509D01*
X1612Y1509D02*
X1618Y1509D01*
X1659Y1509D02*
X1665Y1509D01*
X1712Y1509D02*
X1718Y1509D01*
X1759Y1509D02*
X1765Y1509D01*
X1812Y1509D02*
X1818Y1509D01*
X1859Y1509D02*
X1865Y1509D01*
X1912Y1509D02*
X1918Y1509D01*
X1959Y1509D02*
X1965Y1509D01*
X2012Y1509D02*
X2018Y1509D01*
X2059Y1509D02*
X2065Y1509D01*
X2734Y1509D02*
X2741Y1509D01*
X0Y1508D02*
X7Y1508D01*
X941Y1508D02*
X947Y1508D01*
X1012Y1508D02*
X1041Y1508D01*
X1059Y1508D02*
X1065Y1508D01*
X1141Y1508D02*
X1147Y1508D01*
X1159Y1508D02*
X1165Y1508D01*
X1212Y1508D02*
X1218Y1508D01*
X1312Y1508D02*
X1341Y1508D01*
X1359Y1508D02*
X1365Y1508D01*
X1412Y1508D02*
X1418Y1508D01*
X1429Y1508D02*
X1435Y1508D01*
X1512Y1508D02*
X1518Y1508D01*
X1559Y1508D02*
X1565Y1508D01*
X1612Y1508D02*
X1618Y1508D01*
X1659Y1508D02*
X1665Y1508D01*
X1712Y1508D02*
X1718Y1508D01*
X1759Y1508D02*
X1765Y1508D01*
X1812Y1508D02*
X1818Y1508D01*
X1859Y1508D02*
X1865Y1508D01*
X1912Y1508D02*
X1918Y1508D01*
X1959Y1508D02*
X1965Y1508D01*
X2012Y1508D02*
X2018Y1508D01*
X2059Y1508D02*
X2065Y1508D01*
X2734Y1508D02*
X2741Y1508D01*
X0Y1507D02*
X7Y1507D01*
X941Y1507D02*
X947Y1507D01*
X1012Y1507D02*
X1018Y1507D01*
X1035Y1507D02*
X1041Y1507D01*
X1059Y1507D02*
X1065Y1507D01*
X1141Y1507D02*
X1147Y1507D01*
X1159Y1507D02*
X1165Y1507D01*
X1212Y1507D02*
X1218Y1507D01*
X1244Y1507D02*
X1262Y1507D01*
X1312Y1507D02*
X1318Y1507D01*
X1335Y1507D02*
X1341Y1507D01*
X1359Y1507D02*
X1365Y1507D01*
X1412Y1507D02*
X1418Y1507D01*
X1429Y1507D02*
X1435Y1507D01*
X1512Y1507D02*
X1565Y1507D01*
X1612Y1507D02*
X1665Y1507D01*
X1712Y1507D02*
X1765Y1507D01*
X1812Y1507D02*
X1865Y1507D01*
X1912Y1507D02*
X1965Y1507D01*
X2012Y1507D02*
X2065Y1507D01*
X2734Y1507D02*
X2741Y1507D01*
X0Y1506D02*
X7Y1506D01*
X941Y1506D02*
X947Y1506D01*
X1012Y1506D02*
X1018Y1506D01*
X1035Y1506D02*
X1041Y1506D01*
X1059Y1506D02*
X1065Y1506D01*
X1141Y1506D02*
X1147Y1506D01*
X1159Y1506D02*
X1165Y1506D01*
X1212Y1506D02*
X1218Y1506D01*
X1242Y1506D02*
X1264Y1506D01*
X1312Y1506D02*
X1318Y1506D01*
X1335Y1506D02*
X1341Y1506D01*
X1359Y1506D02*
X1365Y1506D01*
X1412Y1506D02*
X1418Y1506D01*
X1429Y1506D02*
X1435Y1506D01*
X1512Y1506D02*
X1565Y1506D01*
X1612Y1506D02*
X1665Y1506D01*
X1712Y1506D02*
X1765Y1506D01*
X1812Y1506D02*
X1865Y1506D01*
X1912Y1506D02*
X1965Y1506D01*
X2012Y1506D02*
X2065Y1506D01*
X2734Y1506D02*
X2741Y1506D01*
X0Y1505D02*
X7Y1505D01*
X941Y1505D02*
X947Y1505D01*
X1012Y1505D02*
X1018Y1505D01*
X1035Y1505D02*
X1041Y1505D01*
X1059Y1505D02*
X1065Y1505D01*
X1141Y1505D02*
X1147Y1505D01*
X1159Y1505D02*
X1165Y1505D01*
X1212Y1505D02*
X1218Y1505D01*
X1241Y1505D02*
X1265Y1505D01*
X1312Y1505D02*
X1318Y1505D01*
X1335Y1505D02*
X1341Y1505D01*
X1359Y1505D02*
X1365Y1505D01*
X1412Y1505D02*
X1418Y1505D01*
X1429Y1505D02*
X1435Y1505D01*
X1512Y1505D02*
X1565Y1505D01*
X1612Y1505D02*
X1665Y1505D01*
X1712Y1505D02*
X1765Y1505D01*
X1812Y1505D02*
X1865Y1505D01*
X1912Y1505D02*
X1965Y1505D01*
X2012Y1505D02*
X2065Y1505D01*
X2734Y1505D02*
X2741Y1505D01*
X0Y1504D02*
X7Y1504D01*
X941Y1504D02*
X947Y1504D01*
X1012Y1504D02*
X1018Y1504D01*
X1035Y1504D02*
X1041Y1504D01*
X1059Y1504D02*
X1065Y1504D01*
X1141Y1504D02*
X1147Y1504D01*
X1159Y1504D02*
X1165Y1504D01*
X1212Y1504D02*
X1218Y1504D01*
X1240Y1504D02*
X1265Y1504D01*
X1312Y1504D02*
X1318Y1504D01*
X1335Y1504D02*
X1341Y1504D01*
X1359Y1504D02*
X1365Y1504D01*
X1412Y1504D02*
X1418Y1504D01*
X1429Y1504D02*
X1435Y1504D01*
X1512Y1504D02*
X1565Y1504D01*
X1612Y1504D02*
X1665Y1504D01*
X1712Y1504D02*
X1765Y1504D01*
X1812Y1504D02*
X1865Y1504D01*
X1912Y1504D02*
X1965Y1504D01*
X2012Y1504D02*
X2065Y1504D01*
X2734Y1504D02*
X2741Y1504D01*
X0Y1503D02*
X7Y1503D01*
X941Y1503D02*
X947Y1503D01*
X1012Y1503D02*
X1018Y1503D01*
X1035Y1503D02*
X1041Y1503D01*
X1059Y1503D02*
X1065Y1503D01*
X1141Y1503D02*
X1147Y1503D01*
X1159Y1503D02*
X1165Y1503D01*
X1212Y1503D02*
X1218Y1503D01*
X1240Y1503D02*
X1265Y1503D01*
X1312Y1503D02*
X1318Y1503D01*
X1335Y1503D02*
X1341Y1503D01*
X1359Y1503D02*
X1365Y1503D01*
X1412Y1503D02*
X1418Y1503D01*
X1429Y1503D02*
X1435Y1503D01*
X1512Y1503D02*
X1565Y1503D01*
X1612Y1503D02*
X1665Y1503D01*
X1712Y1503D02*
X1765Y1503D01*
X1812Y1503D02*
X1865Y1503D01*
X1912Y1503D02*
X1965Y1503D01*
X2012Y1503D02*
X2065Y1503D01*
X2734Y1503D02*
X2741Y1503D01*
X0Y1502D02*
X7Y1502D01*
X941Y1502D02*
X947Y1502D01*
X1012Y1502D02*
X1018Y1502D01*
X1035Y1502D02*
X1041Y1502D01*
X1059Y1502D02*
X1065Y1502D01*
X1141Y1502D02*
X1147Y1502D01*
X1159Y1502D02*
X1165Y1502D01*
X1212Y1502D02*
X1218Y1502D01*
X1239Y1502D02*
X1264Y1502D01*
X1312Y1502D02*
X1318Y1502D01*
X1335Y1502D02*
X1341Y1502D01*
X1359Y1502D02*
X1365Y1502D01*
X1412Y1502D02*
X1418Y1502D01*
X1429Y1502D02*
X1435Y1502D01*
X1512Y1502D02*
X1565Y1502D01*
X1612Y1502D02*
X1665Y1502D01*
X1712Y1502D02*
X1765Y1502D01*
X1812Y1502D02*
X1865Y1502D01*
X1912Y1502D02*
X1965Y1502D01*
X2012Y1502D02*
X2065Y1502D01*
X2734Y1502D02*
X2741Y1502D01*
X0Y1501D02*
X7Y1501D01*
X941Y1501D02*
X947Y1501D01*
X1012Y1501D02*
X1018Y1501D01*
X1035Y1501D02*
X1041Y1501D01*
X1059Y1501D02*
X1065Y1501D01*
X1141Y1501D02*
X1147Y1501D01*
X1159Y1501D02*
X1165Y1501D01*
X1212Y1501D02*
X1218Y1501D01*
X1238Y1501D02*
X1264Y1501D01*
X1312Y1501D02*
X1318Y1501D01*
X1335Y1501D02*
X1341Y1501D01*
X1359Y1501D02*
X1365Y1501D01*
X1412Y1501D02*
X1418Y1501D01*
X1429Y1501D02*
X1435Y1501D01*
X1512Y1501D02*
X1565Y1501D01*
X1612Y1501D02*
X1665Y1501D01*
X1712Y1501D02*
X1765Y1501D01*
X1812Y1501D02*
X1865Y1501D01*
X1912Y1501D02*
X1965Y1501D01*
X2012Y1501D02*
X2065Y1501D01*
X2734Y1501D02*
X2741Y1501D01*
X0Y1500D02*
X7Y1500D01*
X941Y1500D02*
X947Y1500D01*
X1012Y1500D02*
X1018Y1500D01*
X1035Y1500D02*
X1041Y1500D01*
X1059Y1500D02*
X1065Y1500D01*
X1141Y1500D02*
X1147Y1500D01*
X1159Y1500D02*
X1165Y1500D01*
X1212Y1500D02*
X1218Y1500D01*
X1237Y1500D02*
X1245Y1500D01*
X1312Y1500D02*
X1341Y1500D01*
X1359Y1500D02*
X1365Y1500D01*
X1412Y1500D02*
X1418Y1500D01*
X1429Y1500D02*
X1435Y1500D01*
X1559Y1500D02*
X1565Y1500D01*
X1659Y1500D02*
X1665Y1500D01*
X1759Y1500D02*
X1765Y1500D01*
X1859Y1500D02*
X1865Y1500D01*
X1959Y1500D02*
X1965Y1500D01*
X2059Y1500D02*
X2065Y1500D01*
X2734Y1500D02*
X2741Y1500D01*
X0Y1499D02*
X7Y1499D01*
X941Y1499D02*
X947Y1499D01*
X1012Y1499D02*
X1018Y1499D01*
X1035Y1499D02*
X1041Y1499D01*
X1059Y1499D02*
X1065Y1499D01*
X1141Y1499D02*
X1147Y1499D01*
X1159Y1499D02*
X1165Y1499D01*
X1212Y1499D02*
X1218Y1499D01*
X1236Y1499D02*
X1244Y1499D01*
X1312Y1499D02*
X1341Y1499D01*
X1359Y1499D02*
X1365Y1499D01*
X1412Y1499D02*
X1418Y1499D01*
X1429Y1499D02*
X1435Y1499D01*
X1559Y1499D02*
X1565Y1499D01*
X1659Y1499D02*
X1665Y1499D01*
X1759Y1499D02*
X1765Y1499D01*
X1859Y1499D02*
X1865Y1499D01*
X1959Y1499D02*
X1965Y1499D01*
X2059Y1499D02*
X2065Y1499D01*
X2734Y1499D02*
X2741Y1499D01*
X0Y1498D02*
X7Y1498D01*
X919Y1498D02*
X963Y1498D01*
X1012Y1498D02*
X1018Y1498D01*
X1035Y1498D02*
X1041Y1498D01*
X1059Y1498D02*
X1065Y1498D01*
X1141Y1498D02*
X1147Y1498D01*
X1159Y1498D02*
X1165Y1498D01*
X1212Y1498D02*
X1218Y1498D01*
X1235Y1498D02*
X1244Y1498D01*
X1312Y1498D02*
X1341Y1498D01*
X1359Y1498D02*
X1365Y1498D01*
X1412Y1498D02*
X1418Y1498D01*
X1429Y1498D02*
X1435Y1498D01*
X1559Y1498D02*
X1565Y1498D01*
X1659Y1498D02*
X1665Y1498D01*
X1759Y1498D02*
X1765Y1498D01*
X1859Y1498D02*
X1865Y1498D01*
X1959Y1498D02*
X1965Y1498D01*
X2059Y1498D02*
X2065Y1498D01*
X2734Y1498D02*
X2741Y1498D01*
X0Y1497D02*
X7Y1497D01*
X918Y1497D02*
X964Y1497D01*
X1012Y1497D02*
X1018Y1497D01*
X1035Y1497D02*
X1041Y1497D01*
X1059Y1497D02*
X1065Y1497D01*
X1141Y1497D02*
X1147Y1497D01*
X1159Y1497D02*
X1165Y1497D01*
X1212Y1497D02*
X1218Y1497D01*
X1234Y1497D02*
X1243Y1497D01*
X1312Y1497D02*
X1341Y1497D01*
X1359Y1497D02*
X1365Y1497D01*
X1412Y1497D02*
X1418Y1497D01*
X1429Y1497D02*
X1435Y1497D01*
X1559Y1497D02*
X1565Y1497D01*
X1659Y1497D02*
X1665Y1497D01*
X1759Y1497D02*
X1765Y1497D01*
X1859Y1497D02*
X1865Y1497D01*
X1959Y1497D02*
X1965Y1497D01*
X2059Y1497D02*
X2065Y1497D01*
X2734Y1497D02*
X2741Y1497D01*
X0Y1496D02*
X7Y1496D01*
X918Y1496D02*
X965Y1496D01*
X1012Y1496D02*
X1018Y1496D01*
X1035Y1496D02*
X1041Y1496D01*
X1059Y1496D02*
X1065Y1496D01*
X1141Y1496D02*
X1147Y1496D01*
X1159Y1496D02*
X1165Y1496D01*
X1212Y1496D02*
X1218Y1496D01*
X1234Y1496D02*
X1242Y1496D01*
X1312Y1496D02*
X1341Y1496D01*
X1359Y1496D02*
X1365Y1496D01*
X1412Y1496D02*
X1418Y1496D01*
X1429Y1496D02*
X1435Y1496D01*
X1460Y1496D02*
X1464Y1496D01*
X1559Y1496D02*
X1565Y1496D01*
X1659Y1496D02*
X1665Y1496D01*
X1759Y1496D02*
X1765Y1496D01*
X1859Y1496D02*
X1865Y1496D01*
X1959Y1496D02*
X1965Y1496D01*
X2059Y1496D02*
X2065Y1496D01*
X2734Y1496D02*
X2741Y1496D01*
X0Y1495D02*
X7Y1495D01*
X918Y1495D02*
X965Y1495D01*
X1012Y1495D02*
X1018Y1495D01*
X1035Y1495D02*
X1041Y1495D01*
X1059Y1495D02*
X1065Y1495D01*
X1141Y1495D02*
X1147Y1495D01*
X1159Y1495D02*
X1165Y1495D01*
X1212Y1495D02*
X1218Y1495D01*
X1233Y1495D02*
X1241Y1495D01*
X1312Y1495D02*
X1341Y1495D01*
X1359Y1495D02*
X1365Y1495D01*
X1412Y1495D02*
X1418Y1495D01*
X1429Y1495D02*
X1435Y1495D01*
X1459Y1495D02*
X1464Y1495D01*
X1559Y1495D02*
X1565Y1495D01*
X1659Y1495D02*
X1665Y1495D01*
X1759Y1495D02*
X1765Y1495D01*
X1859Y1495D02*
X1865Y1495D01*
X1959Y1495D02*
X1965Y1495D01*
X2059Y1495D02*
X2065Y1495D01*
X2734Y1495D02*
X2741Y1495D01*
X0Y1494D02*
X7Y1494D01*
X918Y1494D02*
X965Y1494D01*
X1012Y1494D02*
X1018Y1494D01*
X1035Y1494D02*
X1041Y1494D01*
X1059Y1494D02*
X1065Y1494D01*
X1141Y1494D02*
X1147Y1494D01*
X1159Y1494D02*
X1165Y1494D01*
X1212Y1494D02*
X1218Y1494D01*
X1232Y1494D02*
X1240Y1494D01*
X1313Y1494D02*
X1341Y1494D01*
X1359Y1494D02*
X1365Y1494D01*
X1412Y1494D02*
X1418Y1494D01*
X1429Y1494D02*
X1435Y1494D01*
X1459Y1494D02*
X1465Y1494D01*
X1559Y1494D02*
X1565Y1494D01*
X1659Y1494D02*
X1665Y1494D01*
X1759Y1494D02*
X1765Y1494D01*
X1859Y1494D02*
X1865Y1494D01*
X1959Y1494D02*
X1965Y1494D01*
X2059Y1494D02*
X2065Y1494D01*
X2734Y1494D02*
X2741Y1494D01*
X0Y1493D02*
X7Y1493D01*
X918Y1493D02*
X964Y1493D01*
X1012Y1493D02*
X1018Y1493D01*
X1035Y1493D02*
X1065Y1493D01*
X1141Y1493D02*
X1165Y1493D01*
X1212Y1493D02*
X1239Y1493D01*
X1335Y1493D02*
X1365Y1493D01*
X1412Y1493D02*
X1465Y1493D01*
X1543Y1493D02*
X1565Y1493D01*
X1643Y1493D02*
X1665Y1493D01*
X1743Y1493D02*
X1765Y1493D01*
X1843Y1493D02*
X1865Y1493D01*
X1943Y1493D02*
X1965Y1493D01*
X2043Y1493D02*
X2065Y1493D01*
X2734Y1493D02*
X2741Y1493D01*
X0Y1492D02*
X7Y1492D01*
X920Y1492D02*
X963Y1492D01*
X1012Y1492D02*
X1018Y1492D01*
X1035Y1492D02*
X1065Y1492D01*
X1141Y1492D02*
X1165Y1492D01*
X1212Y1492D02*
X1238Y1492D01*
X1335Y1492D02*
X1365Y1492D01*
X1412Y1492D02*
X1465Y1492D01*
X1542Y1492D02*
X1565Y1492D01*
X1642Y1492D02*
X1665Y1492D01*
X1742Y1492D02*
X1765Y1492D01*
X1842Y1492D02*
X1865Y1492D01*
X1942Y1492D02*
X1965Y1492D01*
X2042Y1492D02*
X2065Y1492D01*
X2734Y1492D02*
X2741Y1492D01*
X0Y1491D02*
X7Y1491D01*
X941Y1491D02*
X947Y1491D01*
X1012Y1491D02*
X1018Y1491D01*
X1036Y1491D02*
X1065Y1491D01*
X1141Y1491D02*
X1165Y1491D01*
X1212Y1491D02*
X1238Y1491D01*
X1336Y1491D02*
X1365Y1491D01*
X1412Y1491D02*
X1465Y1491D01*
X1541Y1491D02*
X1565Y1491D01*
X1641Y1491D02*
X1665Y1491D01*
X1741Y1491D02*
X1765Y1491D01*
X1841Y1491D02*
X1865Y1491D01*
X1941Y1491D02*
X1965Y1491D01*
X2041Y1491D02*
X2065Y1491D01*
X2734Y1491D02*
X2741Y1491D01*
X0Y1490D02*
X7Y1490D01*
X942Y1490D02*
X947Y1490D01*
X1012Y1490D02*
X1018Y1490D01*
X1036Y1490D02*
X1064Y1490D01*
X1141Y1490D02*
X1165Y1490D01*
X1212Y1490D02*
X1237Y1490D01*
X1336Y1490D02*
X1364Y1490D01*
X1412Y1490D02*
X1465Y1490D01*
X1541Y1490D02*
X1565Y1490D01*
X1641Y1490D02*
X1665Y1490D01*
X1741Y1490D02*
X1765Y1490D01*
X1841Y1490D02*
X1865Y1490D01*
X1941Y1490D02*
X1965Y1490D01*
X2041Y1490D02*
X2065Y1490D01*
X2734Y1490D02*
X2741Y1490D01*
X0Y1489D02*
X7Y1489D01*
X942Y1489D02*
X946Y1489D01*
X1012Y1489D02*
X1018Y1489D01*
X1037Y1489D02*
X1063Y1489D01*
X1141Y1489D02*
X1165Y1489D01*
X1212Y1489D02*
X1236Y1489D01*
X1337Y1489D02*
X1363Y1489D01*
X1412Y1489D02*
X1465Y1489D01*
X1541Y1489D02*
X1565Y1489D01*
X1641Y1489D02*
X1665Y1489D01*
X1741Y1489D02*
X1765Y1489D01*
X1841Y1489D02*
X1865Y1489D01*
X1941Y1489D02*
X1965Y1489D01*
X2041Y1489D02*
X2065Y1489D01*
X2734Y1489D02*
X2741Y1489D01*
X0Y1488D02*
X7Y1488D01*
X1012Y1488D02*
X1017Y1488D01*
X1038Y1488D02*
X1062Y1488D01*
X1142Y1488D02*
X1164Y1488D01*
X1212Y1488D02*
X1235Y1488D01*
X1338Y1488D02*
X1362Y1488D01*
X1412Y1488D02*
X1464Y1488D01*
X1542Y1488D02*
X1564Y1488D01*
X1642Y1488D02*
X1664Y1488D01*
X1742Y1488D02*
X1764Y1488D01*
X1842Y1488D02*
X1864Y1488D01*
X1942Y1488D02*
X1964Y1488D01*
X2042Y1488D02*
X2064Y1488D01*
X2734Y1488D02*
X2741Y1488D01*
X0Y1487D02*
X7Y1487D01*
X1013Y1487D02*
X1016Y1487D01*
X1039Y1487D02*
X1061Y1487D01*
X1143Y1487D02*
X1163Y1487D01*
X1212Y1487D02*
X1234Y1487D01*
X1339Y1487D02*
X1361Y1487D01*
X1413Y1487D02*
X1463Y1487D01*
X1543Y1487D02*
X1563Y1487D01*
X1643Y1487D02*
X1663Y1487D01*
X1743Y1487D02*
X1763Y1487D01*
X1843Y1487D02*
X1863Y1487D01*
X1943Y1487D02*
X1963Y1487D01*
X2043Y1487D02*
X2063Y1487D01*
X2734Y1487D02*
X2741Y1487D01*
X0Y1486D02*
X7Y1486D01*
X2734Y1486D02*
X2741Y1486D01*
X0Y1485D02*
X7Y1485D01*
X2734Y1485D02*
X2741Y1485D01*
X0Y1484D02*
X7Y1484D01*
X2734Y1484D02*
X2741Y1484D01*
X0Y1483D02*
X7Y1483D01*
X2734Y1483D02*
X2741Y1483D01*
X0Y1482D02*
X7Y1482D01*
X2734Y1482D02*
X2741Y1482D01*
X0Y1481D02*
X7Y1481D01*
X2734Y1481D02*
X2741Y1481D01*
X0Y1480D02*
X7Y1480D01*
X2734Y1480D02*
X2741Y1480D01*
X0Y1479D02*
X7Y1479D01*
X2734Y1479D02*
X2741Y1479D01*
X0Y1478D02*
X7Y1478D01*
X2734Y1478D02*
X2741Y1478D01*
X0Y1477D02*
X7Y1477D01*
X2734Y1477D02*
X2741Y1477D01*
X0Y1476D02*
X7Y1476D01*
X2734Y1476D02*
X2741Y1476D01*
X0Y1475D02*
X7Y1475D01*
X2734Y1475D02*
X2741Y1475D01*
X0Y1474D02*
X7Y1474D01*
X2734Y1474D02*
X2741Y1474D01*
X0Y1473D02*
X7Y1473D01*
X2734Y1473D02*
X2741Y1473D01*
X0Y1472D02*
X7Y1472D01*
X2734Y1472D02*
X2741Y1472D01*
X0Y1471D02*
X7Y1471D01*
X2734Y1471D02*
X2741Y1471D01*
X0Y1470D02*
X7Y1470D01*
X1539Y1470D02*
X1561Y1470D01*
X1660Y1470D02*
X1663Y1470D01*
X1739Y1470D02*
X1765Y1470D01*
X1857Y1470D02*
X1861Y1470D01*
X2060Y1470D02*
X2063Y1470D01*
X2734Y1470D02*
X2741Y1470D01*
X0Y1469D02*
X7Y1469D01*
X1540Y1469D02*
X1562Y1469D01*
X1659Y1469D02*
X1664Y1469D01*
X1740Y1469D02*
X1765Y1469D01*
X1857Y1469D02*
X1862Y1469D01*
X1940Y1469D02*
X1947Y1469D01*
X2059Y1469D02*
X2064Y1469D01*
X2734Y1469D02*
X2741Y1469D01*
X0Y1468D02*
X7Y1468D01*
X1541Y1468D02*
X1563Y1468D01*
X1659Y1468D02*
X1665Y1468D01*
X1741Y1468D02*
X1765Y1468D01*
X1856Y1468D02*
X1862Y1468D01*
X1941Y1468D02*
X1947Y1468D01*
X2059Y1468D02*
X2065Y1468D01*
X2734Y1468D02*
X2741Y1468D01*
X0Y1467D02*
X7Y1467D01*
X1541Y1467D02*
X1564Y1467D01*
X1659Y1467D02*
X1665Y1467D01*
X1741Y1467D02*
X1765Y1467D01*
X1856Y1467D02*
X1862Y1467D01*
X1941Y1467D02*
X1947Y1467D01*
X2059Y1467D02*
X2065Y1467D01*
X2734Y1467D02*
X2741Y1467D01*
X0Y1466D02*
X7Y1466D01*
X1542Y1466D02*
X1565Y1466D01*
X1659Y1466D02*
X1665Y1466D01*
X1742Y1466D02*
X1765Y1466D01*
X1856Y1466D02*
X1863Y1466D01*
X1942Y1466D02*
X1947Y1466D01*
X2059Y1466D02*
X2065Y1466D01*
X2734Y1466D02*
X2741Y1466D01*
X0Y1465D02*
X7Y1465D01*
X1543Y1465D02*
X1565Y1465D01*
X1659Y1465D02*
X1665Y1465D01*
X1743Y1465D02*
X1765Y1465D01*
X1857Y1465D02*
X1863Y1465D01*
X1943Y1465D02*
X1947Y1465D01*
X2059Y1465D02*
X2065Y1465D01*
X2734Y1465D02*
X2741Y1465D01*
X0Y1464D02*
X7Y1464D01*
X1543Y1464D02*
X1565Y1464D01*
X1659Y1464D02*
X1665Y1464D01*
X1743Y1464D02*
X1765Y1464D01*
X1857Y1464D02*
X1864Y1464D01*
X1943Y1464D02*
X1947Y1464D01*
X2059Y1464D02*
X2065Y1464D01*
X2734Y1464D02*
X2741Y1464D01*
X0Y1463D02*
X7Y1463D01*
X1559Y1463D02*
X1565Y1463D01*
X1659Y1463D02*
X1665Y1463D01*
X1759Y1463D02*
X1765Y1463D01*
X1857Y1463D02*
X1864Y1463D01*
X1944Y1463D02*
X1947Y1463D01*
X2059Y1463D02*
X2065Y1463D01*
X2734Y1463D02*
X2741Y1463D01*
X0Y1462D02*
X7Y1462D01*
X1559Y1462D02*
X1565Y1462D01*
X1659Y1462D02*
X1665Y1462D01*
X1759Y1462D02*
X1765Y1462D01*
X1858Y1462D02*
X1864Y1462D01*
X1945Y1462D02*
X1947Y1462D01*
X2059Y1462D02*
X2065Y1462D01*
X2734Y1462D02*
X2741Y1462D01*
X0Y1461D02*
X7Y1461D01*
X1559Y1461D02*
X1565Y1461D01*
X1659Y1461D02*
X1665Y1461D01*
X1759Y1461D02*
X1765Y1461D01*
X1858Y1461D02*
X1865Y1461D01*
X1945Y1461D02*
X1947Y1461D01*
X2059Y1461D02*
X2065Y1461D01*
X2734Y1461D02*
X2741Y1461D01*
X0Y1460D02*
X7Y1460D01*
X1559Y1460D02*
X1565Y1460D01*
X1659Y1460D02*
X1665Y1460D01*
X1759Y1460D02*
X1765Y1460D01*
X1859Y1460D02*
X1865Y1460D01*
X1946Y1460D02*
X1947Y1460D01*
X2059Y1460D02*
X2065Y1460D01*
X2734Y1460D02*
X2741Y1460D01*
X0Y1459D02*
X7Y1459D01*
X1559Y1459D02*
X1565Y1459D01*
X1659Y1459D02*
X1665Y1459D01*
X1759Y1459D02*
X1765Y1459D01*
X1859Y1459D02*
X1865Y1459D01*
X1946Y1459D02*
X1947Y1459D01*
X2059Y1459D02*
X2065Y1459D01*
X2734Y1459D02*
X2741Y1459D01*
X0Y1458D02*
X7Y1458D01*
X1559Y1458D02*
X1565Y1458D01*
X1659Y1458D02*
X1665Y1458D01*
X1759Y1458D02*
X1765Y1458D01*
X1859Y1458D02*
X1865Y1458D01*
X1947Y1458D02*
X1947Y1458D01*
X2059Y1458D02*
X2065Y1458D01*
X2734Y1458D02*
X2741Y1458D01*
X0Y1457D02*
X7Y1457D01*
X1559Y1457D02*
X1565Y1457D01*
X1659Y1457D02*
X1665Y1457D01*
X1759Y1457D02*
X1765Y1457D01*
X1859Y1457D02*
X1865Y1457D01*
X1947Y1457D02*
X1947Y1457D01*
X2059Y1457D02*
X2065Y1457D01*
X2734Y1457D02*
X2741Y1457D01*
X0Y1456D02*
X7Y1456D01*
X1559Y1456D02*
X1565Y1456D01*
X1647Y1456D02*
X1665Y1456D01*
X1759Y1456D02*
X1765Y1456D01*
X1859Y1456D02*
X1865Y1456D01*
X1947Y1456D02*
X1947Y1456D01*
X2059Y1456D02*
X2065Y1456D01*
X2734Y1456D02*
X2741Y1456D01*
X0Y1455D02*
X7Y1455D01*
X1559Y1455D02*
X1565Y1455D01*
X1648Y1455D02*
X1665Y1455D01*
X1759Y1455D02*
X1765Y1455D01*
X1859Y1455D02*
X1865Y1455D01*
X2059Y1455D02*
X2065Y1455D01*
X2734Y1455D02*
X2741Y1455D01*
X0Y1454D02*
X7Y1454D01*
X1559Y1454D02*
X1565Y1454D01*
X1648Y1454D02*
X1665Y1454D01*
X1759Y1454D02*
X1765Y1454D01*
X1859Y1454D02*
X1865Y1454D01*
X2059Y1454D02*
X2065Y1454D01*
X2734Y1454D02*
X2741Y1454D01*
X0Y1453D02*
X7Y1453D01*
X1559Y1453D02*
X1565Y1453D01*
X1648Y1453D02*
X1665Y1453D01*
X1759Y1453D02*
X1765Y1453D01*
X1859Y1453D02*
X1865Y1453D01*
X2059Y1453D02*
X2065Y1453D01*
X2734Y1453D02*
X2741Y1453D01*
X0Y1452D02*
X7Y1452D01*
X1559Y1452D02*
X1565Y1452D01*
X1649Y1452D02*
X1665Y1452D01*
X1759Y1452D02*
X1765Y1452D01*
X1859Y1452D02*
X1865Y1452D01*
X2059Y1452D02*
X2065Y1452D01*
X2734Y1452D02*
X2741Y1452D01*
X0Y1451D02*
X7Y1451D01*
X1559Y1451D02*
X1565Y1451D01*
X1649Y1451D02*
X1665Y1451D01*
X1759Y1451D02*
X1765Y1451D01*
X1859Y1451D02*
X1865Y1451D01*
X2059Y1451D02*
X2065Y1451D01*
X2734Y1451D02*
X2741Y1451D01*
X0Y1450D02*
X7Y1450D01*
X1559Y1450D02*
X1565Y1450D01*
X1649Y1450D02*
X1665Y1450D01*
X1759Y1450D02*
X1765Y1450D01*
X1859Y1450D02*
X1865Y1450D01*
X2059Y1450D02*
X2065Y1450D01*
X2734Y1450D02*
X2741Y1450D01*
X0Y1449D02*
X7Y1449D01*
X1559Y1449D02*
X1564Y1449D01*
X1659Y1449D02*
X1664Y1449D01*
X1759Y1449D02*
X1764Y1449D01*
X1859Y1449D02*
X1864Y1449D01*
X2059Y1449D02*
X2064Y1449D01*
X2734Y1449D02*
X2741Y1449D01*
X0Y1448D02*
X7Y1448D01*
X1559Y1448D02*
X1564Y1448D01*
X1659Y1448D02*
X1664Y1448D01*
X1759Y1448D02*
X1764Y1448D01*
X1859Y1448D02*
X1864Y1448D01*
X1949Y1448D02*
X1963Y1448D01*
X2059Y1448D02*
X2064Y1448D01*
X2734Y1448D02*
X2741Y1448D01*
X0Y1447D02*
X7Y1447D01*
X1559Y1447D02*
X1564Y1447D01*
X1659Y1447D02*
X1664Y1447D01*
X1759Y1447D02*
X1764Y1447D01*
X1859Y1447D02*
X1864Y1447D01*
X1950Y1447D02*
X1964Y1447D01*
X2059Y1447D02*
X2064Y1447D01*
X2734Y1447D02*
X2741Y1447D01*
X0Y1446D02*
X7Y1446D01*
X1559Y1446D02*
X1564Y1446D01*
X1659Y1446D02*
X1664Y1446D01*
X1759Y1446D02*
X1764Y1446D01*
X1859Y1446D02*
X1864Y1446D01*
X1950Y1446D02*
X1964Y1446D01*
X2059Y1446D02*
X2064Y1446D01*
X2734Y1446D02*
X2741Y1446D01*
X0Y1445D02*
X7Y1445D01*
X1559Y1445D02*
X1564Y1445D01*
X1659Y1445D02*
X1664Y1445D01*
X1759Y1445D02*
X1764Y1445D01*
X1859Y1445D02*
X1864Y1445D01*
X1950Y1445D02*
X1964Y1445D01*
X2059Y1445D02*
X2064Y1445D01*
X2734Y1445D02*
X2741Y1445D01*
X0Y1444D02*
X7Y1444D01*
X1559Y1444D02*
X1564Y1444D01*
X1659Y1444D02*
X1664Y1444D01*
X1759Y1444D02*
X1764Y1444D01*
X1859Y1444D02*
X1864Y1444D01*
X1950Y1444D02*
X1964Y1444D01*
X2059Y1444D02*
X2064Y1444D01*
X2734Y1444D02*
X2741Y1444D01*
X0Y1443D02*
X7Y1443D01*
X1550Y1443D02*
X1564Y1443D01*
X1650Y1443D02*
X1664Y1443D01*
X1759Y1443D02*
X1764Y1443D01*
X1850Y1443D02*
X1864Y1443D01*
X1950Y1443D02*
X1964Y1443D01*
X2050Y1443D02*
X2064Y1443D01*
X2734Y1443D02*
X2741Y1443D01*
X0Y1442D02*
X7Y1442D01*
X1550Y1442D02*
X1564Y1442D01*
X1650Y1442D02*
X1664Y1442D01*
X1759Y1442D02*
X1764Y1442D01*
X1850Y1442D02*
X1864Y1442D01*
X1950Y1442D02*
X1963Y1442D01*
X2050Y1442D02*
X2064Y1442D01*
X2734Y1442D02*
X2741Y1442D01*
X0Y1441D02*
X7Y1441D01*
X1550Y1441D02*
X1564Y1441D01*
X1650Y1441D02*
X1664Y1441D01*
X1759Y1441D02*
X1764Y1441D01*
X1850Y1441D02*
X1864Y1441D01*
X2050Y1441D02*
X2064Y1441D01*
X2734Y1441D02*
X2741Y1441D01*
X0Y1440D02*
X7Y1440D01*
X1550Y1440D02*
X1564Y1440D01*
X1650Y1440D02*
X1664Y1440D01*
X1759Y1440D02*
X1764Y1440D01*
X1850Y1440D02*
X1864Y1440D01*
X2050Y1440D02*
X2064Y1440D01*
X2734Y1440D02*
X2741Y1440D01*
X0Y1439D02*
X7Y1439D01*
X1550Y1439D02*
X1563Y1439D01*
X1650Y1439D02*
X1664Y1439D01*
X1759Y1439D02*
X1764Y1439D01*
X1850Y1439D02*
X1863Y1439D01*
X2050Y1439D02*
X2063Y1439D01*
X2734Y1439D02*
X2741Y1439D01*
X0Y1438D02*
X7Y1438D01*
X1549Y1438D02*
X1563Y1438D01*
X1649Y1438D02*
X1664Y1438D01*
X1759Y1438D02*
X1764Y1438D01*
X1849Y1438D02*
X1863Y1438D01*
X2049Y1438D02*
X2063Y1438D01*
X2734Y1438D02*
X2741Y1438D01*
X0Y1437D02*
X7Y1437D01*
X1549Y1437D02*
X1561Y1437D01*
X1649Y1437D02*
X1664Y1437D01*
X1760Y1437D02*
X1764Y1437D01*
X1849Y1437D02*
X1861Y1437D01*
X2049Y1437D02*
X2061Y1437D01*
X2734Y1437D02*
X2741Y1437D01*
X0Y1436D02*
X7Y1436D01*
X2734Y1436D02*
X2741Y1436D01*
X0Y1435D02*
X7Y1435D01*
X2734Y1435D02*
X2741Y1435D01*
X0Y1434D02*
X7Y1434D01*
X2734Y1434D02*
X2741Y1434D01*
X0Y1433D02*
X7Y1433D01*
X2734Y1433D02*
X2741Y1433D01*
X0Y1432D02*
X7Y1432D01*
X2734Y1432D02*
X2741Y1432D01*
X0Y1431D02*
X7Y1431D01*
X2734Y1431D02*
X2741Y1431D01*
X0Y1430D02*
X7Y1430D01*
X2734Y1430D02*
X2741Y1430D01*
X0Y1429D02*
X7Y1429D01*
X2734Y1429D02*
X2741Y1429D01*
X0Y1428D02*
X7Y1428D01*
X2734Y1428D02*
X2741Y1428D01*
X0Y1427D02*
X7Y1427D01*
X2734Y1427D02*
X2741Y1427D01*
X0Y1426D02*
X7Y1426D01*
X2734Y1426D02*
X2741Y1426D01*
X0Y1425D02*
X7Y1425D01*
X2734Y1425D02*
X2741Y1425D01*
X0Y1424D02*
X7Y1424D01*
X2734Y1424D02*
X2741Y1424D01*
X0Y1423D02*
X7Y1423D01*
X2734Y1423D02*
X2741Y1423D01*
X0Y1422D02*
X7Y1422D01*
X2734Y1422D02*
X2741Y1422D01*
X0Y1421D02*
X7Y1421D01*
X2734Y1421D02*
X2741Y1421D01*
X0Y1420D02*
X7Y1420D01*
X2734Y1420D02*
X2741Y1420D01*
X0Y1419D02*
X7Y1419D01*
X2734Y1419D02*
X2741Y1419D01*
X0Y1418D02*
X7Y1418D01*
X2734Y1418D02*
X2741Y1418D01*
X0Y1417D02*
X7Y1417D01*
X2734Y1417D02*
X2741Y1417D01*
X0Y1416D02*
X7Y1416D01*
X2734Y1416D02*
X2741Y1416D01*
X0Y1415D02*
X7Y1415D01*
X2734Y1415D02*
X2741Y1415D01*
X0Y1414D02*
X7Y1414D01*
X2734Y1414D02*
X2741Y1414D01*
X0Y1413D02*
X7Y1413D01*
X2734Y1413D02*
X2741Y1413D01*
X0Y1412D02*
X7Y1412D01*
X2734Y1412D02*
X2741Y1412D01*
X0Y1411D02*
X7Y1411D01*
X2734Y1411D02*
X2741Y1411D01*
X0Y1410D02*
X7Y1410D01*
X2734Y1410D02*
X2741Y1410D01*
X0Y1409D02*
X7Y1409D01*
X2734Y1409D02*
X2741Y1409D01*
X0Y1408D02*
X7Y1408D01*
X2734Y1408D02*
X2741Y1408D01*
X0Y1407D02*
X7Y1407D01*
X2734Y1407D02*
X2741Y1407D01*
X0Y1406D02*
X7Y1406D01*
X2734Y1406D02*
X2741Y1406D01*
X0Y1405D02*
X7Y1405D01*
X2734Y1405D02*
X2741Y1405D01*
X0Y1404D02*
X7Y1404D01*
X2734Y1404D02*
X2741Y1404D01*
X0Y1403D02*
X7Y1403D01*
X2734Y1403D02*
X2741Y1403D01*
X0Y1402D02*
X7Y1402D01*
X2734Y1402D02*
X2741Y1402D01*
X0Y1401D02*
X7Y1401D01*
X2734Y1401D02*
X2741Y1401D01*
X0Y1400D02*
X7Y1400D01*
X2734Y1400D02*
X2741Y1400D01*
X0Y1399D02*
X7Y1399D01*
X2734Y1399D02*
X2741Y1399D01*
X0Y1398D02*
X7Y1398D01*
X2734Y1398D02*
X2741Y1398D01*
X0Y1397D02*
X7Y1397D01*
X2734Y1397D02*
X2741Y1397D01*
X0Y1396D02*
X7Y1396D01*
X2734Y1396D02*
X2741Y1396D01*
X0Y1395D02*
X7Y1395D01*
X2734Y1395D02*
X2741Y1395D01*
X0Y1394D02*
X7Y1394D01*
X2734Y1394D02*
X2741Y1394D01*
X0Y1393D02*
X7Y1393D01*
X2734Y1393D02*
X2741Y1393D01*
X0Y1392D02*
X7Y1392D01*
X2734Y1392D02*
X2741Y1392D01*
X0Y1391D02*
X7Y1391D01*
X2734Y1391D02*
X2741Y1391D01*
X0Y1390D02*
X7Y1390D01*
X2734Y1390D02*
X2741Y1390D01*
X0Y1389D02*
X7Y1389D01*
X2734Y1389D02*
X2741Y1389D01*
X0Y1388D02*
X7Y1388D01*
X2734Y1388D02*
X2741Y1388D01*
X0Y1387D02*
X7Y1387D01*
X2734Y1387D02*
X2741Y1387D01*
X0Y1386D02*
X7Y1386D01*
X2734Y1386D02*
X2741Y1386D01*
X0Y1385D02*
X7Y1385D01*
X2734Y1385D02*
X2741Y1385D01*
X0Y1384D02*
X7Y1384D01*
X2734Y1384D02*
X2741Y1384D01*
X0Y1383D02*
X7Y1383D01*
X2734Y1383D02*
X2741Y1383D01*
X0Y1382D02*
X7Y1382D01*
X2734Y1382D02*
X2741Y1382D01*
X0Y1381D02*
X7Y1381D01*
X2734Y1381D02*
X2741Y1381D01*
X0Y1380D02*
X7Y1380D01*
X2734Y1380D02*
X2741Y1380D01*
X0Y1379D02*
X7Y1379D01*
X2734Y1379D02*
X2741Y1379D01*
X0Y1378D02*
X7Y1378D01*
X2734Y1378D02*
X2741Y1378D01*
X0Y1377D02*
X7Y1377D01*
X2734Y1377D02*
X2741Y1377D01*
X0Y1376D02*
X7Y1376D01*
X2734Y1376D02*
X2741Y1376D01*
X0Y1375D02*
X7Y1375D01*
X2734Y1375D02*
X2741Y1375D01*
X0Y1374D02*
X7Y1374D01*
X2734Y1374D02*
X2741Y1374D01*
X0Y1373D02*
X7Y1373D01*
X2734Y1373D02*
X2741Y1373D01*
X0Y1372D02*
X7Y1372D01*
X2734Y1372D02*
X2741Y1372D01*
X0Y1371D02*
X7Y1371D01*
X2734Y1371D02*
X2741Y1371D01*
X0Y1370D02*
X7Y1370D01*
X2734Y1370D02*
X2741Y1370D01*
X0Y1369D02*
X7Y1369D01*
X2734Y1369D02*
X2741Y1369D01*
X0Y1368D02*
X7Y1368D01*
X2734Y1368D02*
X2741Y1368D01*
X0Y1367D02*
X7Y1367D01*
X2734Y1367D02*
X2741Y1367D01*
X0Y1366D02*
X7Y1366D01*
X2734Y1366D02*
X2741Y1366D01*
X0Y1365D02*
X7Y1365D01*
X2734Y1365D02*
X2741Y1365D01*
X0Y1364D02*
X7Y1364D01*
X2734Y1364D02*
X2741Y1364D01*
X0Y1363D02*
X7Y1363D01*
X2734Y1363D02*
X2741Y1363D01*
X0Y1362D02*
X7Y1362D01*
X2734Y1362D02*
X2741Y1362D01*
X0Y1361D02*
X7Y1361D01*
X2734Y1361D02*
X2741Y1361D01*
X0Y1360D02*
X7Y1360D01*
X2734Y1360D02*
X2741Y1360D01*
X0Y1359D02*
X7Y1359D01*
X2734Y1359D02*
X2741Y1359D01*
X0Y1358D02*
X7Y1358D01*
X2734Y1358D02*
X2741Y1358D01*
X0Y1357D02*
X7Y1357D01*
X2734Y1357D02*
X2741Y1357D01*
X0Y1356D02*
X7Y1356D01*
X2734Y1356D02*
X2741Y1356D01*
X0Y1355D02*
X7Y1355D01*
X2734Y1355D02*
X2741Y1355D01*
X0Y1354D02*
X7Y1354D01*
X2734Y1354D02*
X2741Y1354D01*
X0Y1353D02*
X7Y1353D01*
X2734Y1353D02*
X2741Y1353D01*
X0Y1352D02*
X7Y1352D01*
X2734Y1352D02*
X2741Y1352D01*
X0Y1351D02*
X7Y1351D01*
X2734Y1351D02*
X2741Y1351D01*
X0Y1350D02*
X7Y1350D01*
X2734Y1350D02*
X2741Y1350D01*
X0Y1349D02*
X7Y1349D01*
X2734Y1349D02*
X2741Y1349D01*
X0Y1348D02*
X7Y1348D01*
X2734Y1348D02*
X2741Y1348D01*
X0Y1347D02*
X7Y1347D01*
X2734Y1347D02*
X2741Y1347D01*
X0Y1346D02*
X7Y1346D01*
X2734Y1346D02*
X2741Y1346D01*
X0Y1345D02*
X7Y1345D01*
X2734Y1345D02*
X2741Y1345D01*
X0Y1344D02*
X7Y1344D01*
X2734Y1344D02*
X2741Y1344D01*
X0Y1343D02*
X7Y1343D01*
X2734Y1343D02*
X2741Y1343D01*
X0Y1342D02*
X7Y1342D01*
X2734Y1342D02*
X2741Y1342D01*
X0Y1341D02*
X7Y1341D01*
X2734Y1341D02*
X2741Y1341D01*
X0Y1340D02*
X7Y1340D01*
X2734Y1340D02*
X2741Y1340D01*
X0Y1339D02*
X7Y1339D01*
X2734Y1339D02*
X2741Y1339D01*
X0Y1338D02*
X7Y1338D01*
X2734Y1338D02*
X2741Y1338D01*
X0Y1337D02*
X7Y1337D01*
X2734Y1337D02*
X2741Y1337D01*
X0Y1336D02*
X7Y1336D01*
X2734Y1336D02*
X2741Y1336D01*
X0Y1335D02*
X7Y1335D01*
X2734Y1335D02*
X2741Y1335D01*
X0Y1334D02*
X7Y1334D01*
X2734Y1334D02*
X2741Y1334D01*
X0Y1333D02*
X7Y1333D01*
X2734Y1333D02*
X2741Y1333D01*
X0Y1332D02*
X7Y1332D01*
X2734Y1332D02*
X2741Y1332D01*
X0Y1331D02*
X7Y1331D01*
X2734Y1331D02*
X2741Y1331D01*
X0Y1330D02*
X7Y1330D01*
X2734Y1330D02*
X2741Y1330D01*
X0Y1329D02*
X7Y1329D01*
X2734Y1329D02*
X2741Y1329D01*
X0Y1328D02*
X7Y1328D01*
X2734Y1328D02*
X2741Y1328D01*
X0Y1327D02*
X7Y1327D01*
X2734Y1327D02*
X2741Y1327D01*
X0Y1326D02*
X7Y1326D01*
X2734Y1326D02*
X2741Y1326D01*
X0Y1325D02*
X7Y1325D01*
X2734Y1325D02*
X2741Y1325D01*
X0Y1324D02*
X7Y1324D01*
X2734Y1324D02*
X2741Y1324D01*
X0Y1323D02*
X7Y1323D01*
X2734Y1323D02*
X2741Y1323D01*
X0Y1322D02*
X7Y1322D01*
X2734Y1322D02*
X2741Y1322D01*
X0Y1321D02*
X7Y1321D01*
X2734Y1321D02*
X2741Y1321D01*
X0Y1320D02*
X7Y1320D01*
X2734Y1320D02*
X2741Y1320D01*
X0Y1319D02*
X7Y1319D01*
X2734Y1319D02*
X2741Y1319D01*
X0Y1318D02*
X7Y1318D01*
X2734Y1318D02*
X2741Y1318D01*
X0Y1317D02*
X7Y1317D01*
X2734Y1317D02*
X2741Y1317D01*
X0Y1316D02*
X7Y1316D01*
X2734Y1316D02*
X2741Y1316D01*
X0Y1315D02*
X7Y1315D01*
X2734Y1315D02*
X2741Y1315D01*
X0Y1314D02*
X7Y1314D01*
X2734Y1314D02*
X2741Y1314D01*
X0Y1313D02*
X7Y1313D01*
X2734Y1313D02*
X2741Y1313D01*
X0Y1312D02*
X7Y1312D01*
X2734Y1312D02*
X2741Y1312D01*
X0Y1311D02*
X7Y1311D01*
X2734Y1311D02*
X2741Y1311D01*
X0Y1310D02*
X7Y1310D01*
X2734Y1310D02*
X2741Y1310D01*
X0Y1309D02*
X7Y1309D01*
X2734Y1309D02*
X2741Y1309D01*
X0Y1308D02*
X7Y1308D01*
X2734Y1308D02*
X2741Y1308D01*
X0Y1307D02*
X7Y1307D01*
X2734Y1307D02*
X2741Y1307D01*
X0Y1306D02*
X7Y1306D01*
X2734Y1306D02*
X2741Y1306D01*
X0Y1305D02*
X7Y1305D01*
X2734Y1305D02*
X2741Y1305D01*
X0Y1304D02*
X7Y1304D01*
X2734Y1304D02*
X2741Y1304D01*
X0Y1303D02*
X7Y1303D01*
X2734Y1303D02*
X2741Y1303D01*
X0Y1302D02*
X7Y1302D01*
X2734Y1302D02*
X2741Y1302D01*
X0Y1301D02*
X7Y1301D01*
X2734Y1301D02*
X2741Y1301D01*
X0Y1300D02*
X7Y1300D01*
X2734Y1300D02*
X2741Y1300D01*
X0Y1299D02*
X7Y1299D01*
X2734Y1299D02*
X2741Y1299D01*
X0Y1298D02*
X7Y1298D01*
X2734Y1298D02*
X2741Y1298D01*
X0Y1297D02*
X7Y1297D01*
X2734Y1297D02*
X2741Y1297D01*
X0Y1296D02*
X7Y1296D01*
X2734Y1296D02*
X2741Y1296D01*
X0Y1295D02*
X7Y1295D01*
X2734Y1295D02*
X2741Y1295D01*
X0Y1294D02*
X7Y1294D01*
X2734Y1294D02*
X2741Y1294D01*
X0Y1293D02*
X7Y1293D01*
X2734Y1293D02*
X2741Y1293D01*
X0Y1292D02*
X7Y1292D01*
X2734Y1292D02*
X2741Y1292D01*
X0Y1291D02*
X7Y1291D01*
X2734Y1291D02*
X2741Y1291D01*
X0Y1290D02*
X7Y1290D01*
X2734Y1290D02*
X2741Y1290D01*
X0Y1289D02*
X7Y1289D01*
X2734Y1289D02*
X2741Y1289D01*
X0Y1288D02*
X7Y1288D01*
X2734Y1288D02*
X2741Y1288D01*
X0Y1287D02*
X7Y1287D01*
X2734Y1287D02*
X2741Y1287D01*
X0Y1286D02*
X7Y1286D01*
X2734Y1286D02*
X2741Y1286D01*
X0Y1285D02*
X7Y1285D01*
X2734Y1285D02*
X2741Y1285D01*
X0Y1284D02*
X7Y1284D01*
X2734Y1284D02*
X2741Y1284D01*
X0Y1283D02*
X7Y1283D01*
X2734Y1283D02*
X2741Y1283D01*
X0Y1282D02*
X7Y1282D01*
X2734Y1282D02*
X2741Y1282D01*
X0Y1281D02*
X7Y1281D01*
X2734Y1281D02*
X2741Y1281D01*
X0Y1280D02*
X7Y1280D01*
X2734Y1280D02*
X2741Y1280D01*
X0Y1279D02*
X7Y1279D01*
X2734Y1279D02*
X2741Y1279D01*
X0Y1278D02*
X7Y1278D01*
X2734Y1278D02*
X2741Y1278D01*
X0Y1277D02*
X7Y1277D01*
X2734Y1277D02*
X2741Y1277D01*
X0Y1276D02*
X7Y1276D01*
X2734Y1276D02*
X2741Y1276D01*
X0Y1275D02*
X7Y1275D01*
X2734Y1275D02*
X2741Y1275D01*
X0Y1274D02*
X7Y1274D01*
X2734Y1274D02*
X2741Y1274D01*
X0Y1273D02*
X7Y1273D01*
X2734Y1273D02*
X2741Y1273D01*
X0Y1272D02*
X7Y1272D01*
X2734Y1272D02*
X2741Y1272D01*
X0Y1271D02*
X7Y1271D01*
X2734Y1271D02*
X2741Y1271D01*
X0Y1270D02*
X7Y1270D01*
X2734Y1270D02*
X2741Y1270D01*
X0Y1269D02*
X7Y1269D01*
X2734Y1269D02*
X2741Y1269D01*
X0Y1268D02*
X7Y1268D01*
X2734Y1268D02*
X2741Y1268D01*
X0Y1267D02*
X7Y1267D01*
X2734Y1267D02*
X2741Y1267D01*
X0Y1266D02*
X7Y1266D01*
X2734Y1266D02*
X2741Y1266D01*
X0Y1265D02*
X7Y1265D01*
X2734Y1265D02*
X2741Y1265D01*
X0Y1264D02*
X7Y1264D01*
X2734Y1264D02*
X2741Y1264D01*
X0Y1263D02*
X7Y1263D01*
X2734Y1263D02*
X2741Y1263D01*
X0Y1262D02*
X7Y1262D01*
X2734Y1262D02*
X2741Y1262D01*
X0Y1261D02*
X7Y1261D01*
X2734Y1261D02*
X2741Y1261D01*
X0Y1260D02*
X7Y1260D01*
X2734Y1260D02*
X2741Y1260D01*
X0Y1259D02*
X7Y1259D01*
X2734Y1259D02*
X2741Y1259D01*
X0Y1258D02*
X7Y1258D01*
X2734Y1258D02*
X2741Y1258D01*
X0Y1257D02*
X7Y1257D01*
X2734Y1257D02*
X2741Y1257D01*
X0Y1256D02*
X7Y1256D01*
X2734Y1256D02*
X2741Y1256D01*
X0Y1255D02*
X7Y1255D01*
X2734Y1255D02*
X2741Y1255D01*
X0Y1254D02*
X7Y1254D01*
X2734Y1254D02*
X2741Y1254D01*
X0Y1253D02*
X7Y1253D01*
X2734Y1253D02*
X2741Y1253D01*
X0Y1252D02*
X7Y1252D01*
X2734Y1252D02*
X2741Y1252D01*
X0Y1251D02*
X7Y1251D01*
X2734Y1251D02*
X2741Y1251D01*
X0Y1250D02*
X7Y1250D01*
X2734Y1250D02*
X2741Y1250D01*
X0Y1249D02*
X7Y1249D01*
X2734Y1249D02*
X2741Y1249D01*
X0Y1248D02*
X7Y1248D01*
X2734Y1248D02*
X2741Y1248D01*
X0Y1247D02*
X7Y1247D01*
X2734Y1247D02*
X2741Y1247D01*
X0Y1246D02*
X7Y1246D01*
X2734Y1246D02*
X2741Y1246D01*
X0Y1245D02*
X7Y1245D01*
X2734Y1245D02*
X2741Y1245D01*
X0Y1244D02*
X7Y1244D01*
X2734Y1244D02*
X2741Y1244D01*
X0Y1243D02*
X7Y1243D01*
X2734Y1243D02*
X2741Y1243D01*
X0Y1242D02*
X7Y1242D01*
X2734Y1242D02*
X2741Y1242D01*
X0Y1241D02*
X7Y1241D01*
X2734Y1241D02*
X2741Y1241D01*
X0Y1240D02*
X7Y1240D01*
X2734Y1240D02*
X2741Y1240D01*
X0Y1239D02*
X7Y1239D01*
X2734Y1239D02*
X2741Y1239D01*
X0Y1238D02*
X7Y1238D01*
X2734Y1238D02*
X2741Y1238D01*
X0Y1237D02*
X7Y1237D01*
X2734Y1237D02*
X2741Y1237D01*
X0Y1236D02*
X7Y1236D01*
X2734Y1236D02*
X2741Y1236D01*
X0Y1235D02*
X7Y1235D01*
X2734Y1235D02*
X2741Y1235D01*
X0Y1234D02*
X7Y1234D01*
X2734Y1234D02*
X2741Y1234D01*
X0Y1233D02*
X7Y1233D01*
X2734Y1233D02*
X2741Y1233D01*
X0Y1232D02*
X7Y1232D01*
X2734Y1232D02*
X2741Y1232D01*
X0Y1231D02*
X7Y1231D01*
X2734Y1231D02*
X2741Y1231D01*
X0Y1230D02*
X7Y1230D01*
X2734Y1230D02*
X2741Y1230D01*
X0Y1229D02*
X7Y1229D01*
X2734Y1229D02*
X2741Y1229D01*
X0Y1228D02*
X7Y1228D01*
X2734Y1228D02*
X2741Y1228D01*
X0Y1227D02*
X7Y1227D01*
X2734Y1227D02*
X2741Y1227D01*
X0Y1226D02*
X7Y1226D01*
X2734Y1226D02*
X2741Y1226D01*
X0Y1225D02*
X7Y1225D01*
X2734Y1225D02*
X2741Y1225D01*
X0Y1224D02*
X7Y1224D01*
X2734Y1224D02*
X2741Y1224D01*
X0Y1223D02*
X7Y1223D01*
X2734Y1223D02*
X2741Y1223D01*
X0Y1222D02*
X7Y1222D01*
X2734Y1222D02*
X2741Y1222D01*
X0Y1221D02*
X7Y1221D01*
X2734Y1221D02*
X2741Y1221D01*
X0Y1220D02*
X7Y1220D01*
X2734Y1220D02*
X2741Y1220D01*
X0Y1219D02*
X7Y1219D01*
X2734Y1219D02*
X2741Y1219D01*
X0Y1218D02*
X7Y1218D01*
X2734Y1218D02*
X2741Y1218D01*
X0Y1217D02*
X7Y1217D01*
X2734Y1217D02*
X2741Y1217D01*
X0Y1216D02*
X7Y1216D01*
X2734Y1216D02*
X2741Y1216D01*
X0Y1215D02*
X7Y1215D01*
X2734Y1215D02*
X2741Y1215D01*
X0Y1214D02*
X7Y1214D01*
X2734Y1214D02*
X2741Y1214D01*
X0Y1213D02*
X7Y1213D01*
X2734Y1213D02*
X2741Y1213D01*
X0Y1212D02*
X7Y1212D01*
X2734Y1212D02*
X2741Y1212D01*
X0Y1211D02*
X7Y1211D01*
X2734Y1211D02*
X2741Y1211D01*
X0Y1210D02*
X7Y1210D01*
X2734Y1210D02*
X2741Y1210D01*
X0Y1209D02*
X7Y1209D01*
X2734Y1209D02*
X2741Y1209D01*
X0Y1208D02*
X7Y1208D01*
X2734Y1208D02*
X2741Y1208D01*
X0Y1207D02*
X7Y1207D01*
X2734Y1207D02*
X2741Y1207D01*
X0Y1206D02*
X7Y1206D01*
X2734Y1206D02*
X2741Y1206D01*
X0Y1205D02*
X7Y1205D01*
X2734Y1205D02*
X2741Y1205D01*
X0Y1204D02*
X7Y1204D01*
X2734Y1204D02*
X2741Y1204D01*
X0Y1203D02*
X7Y1203D01*
X2734Y1203D02*
X2741Y1203D01*
X0Y1202D02*
X7Y1202D01*
X2734Y1202D02*
X2741Y1202D01*
X0Y1201D02*
X7Y1201D01*
X2734Y1201D02*
X2741Y1201D01*
X0Y1200D02*
X7Y1200D01*
X2734Y1200D02*
X2741Y1200D01*
X0Y1199D02*
X7Y1199D01*
X2734Y1199D02*
X2741Y1199D01*
X0Y1198D02*
X7Y1198D01*
X2734Y1198D02*
X2741Y1198D01*
X0Y1197D02*
X7Y1197D01*
X2734Y1197D02*
X2741Y1197D01*
X0Y1196D02*
X7Y1196D01*
X2734Y1196D02*
X2741Y1196D01*
X0Y1195D02*
X7Y1195D01*
X2734Y1195D02*
X2741Y1195D01*
X0Y1194D02*
X7Y1194D01*
X2734Y1194D02*
X2741Y1194D01*
X0Y1193D02*
X7Y1193D01*
X2734Y1193D02*
X2741Y1193D01*
X0Y1192D02*
X7Y1192D01*
X2734Y1192D02*
X2741Y1192D01*
X0Y1191D02*
X7Y1191D01*
X2734Y1191D02*
X2741Y1191D01*
X0Y1190D02*
X7Y1190D01*
X2734Y1190D02*
X2741Y1190D01*
X0Y1189D02*
X7Y1189D01*
X2734Y1189D02*
X2741Y1189D01*
X0Y1188D02*
X7Y1188D01*
X2734Y1188D02*
X2741Y1188D01*
X0Y1187D02*
X7Y1187D01*
X2734Y1187D02*
X2741Y1187D01*
X0Y1186D02*
X7Y1186D01*
X2734Y1186D02*
X2741Y1186D01*
X0Y1185D02*
X7Y1185D01*
X2734Y1185D02*
X2741Y1185D01*
X0Y1184D02*
X7Y1184D01*
X2734Y1184D02*
X2741Y1184D01*
X0Y1183D02*
X7Y1183D01*
X2734Y1183D02*
X2741Y1183D01*
X0Y1182D02*
X7Y1182D01*
X2734Y1182D02*
X2741Y1182D01*
X0Y1181D02*
X7Y1181D01*
X2734Y1181D02*
X2741Y1181D01*
X0Y1180D02*
X7Y1180D01*
X2734Y1180D02*
X2741Y1180D01*
X0Y1179D02*
X7Y1179D01*
X2734Y1179D02*
X2741Y1179D01*
X0Y1178D02*
X7Y1178D01*
X2734Y1178D02*
X2741Y1178D01*
X0Y1177D02*
X7Y1177D01*
X2734Y1177D02*
X2741Y1177D01*
X0Y1176D02*
X7Y1176D01*
X2734Y1176D02*
X2741Y1176D01*
X0Y1175D02*
X7Y1175D01*
X2734Y1175D02*
X2741Y1175D01*
X0Y1174D02*
X7Y1174D01*
X2734Y1174D02*
X2741Y1174D01*
X0Y1173D02*
X7Y1173D01*
X2734Y1173D02*
X2741Y1173D01*
X0Y1172D02*
X7Y1172D01*
X2734Y1172D02*
X2741Y1172D01*
X0Y1171D02*
X7Y1171D01*
X2734Y1171D02*
X2741Y1171D01*
X0Y1170D02*
X7Y1170D01*
X2734Y1170D02*
X2741Y1170D01*
X0Y1169D02*
X7Y1169D01*
X2734Y1169D02*
X2741Y1169D01*
X0Y1168D02*
X7Y1168D01*
X2734Y1168D02*
X2741Y1168D01*
X0Y1167D02*
X7Y1167D01*
X2734Y1167D02*
X2741Y1167D01*
X0Y1166D02*
X7Y1166D01*
X2734Y1166D02*
X2741Y1166D01*
X0Y1165D02*
X7Y1165D01*
X2734Y1165D02*
X2741Y1165D01*
X0Y1164D02*
X7Y1164D01*
X2734Y1164D02*
X2741Y1164D01*
X0Y1163D02*
X7Y1163D01*
X2734Y1163D02*
X2741Y1163D01*
X0Y1162D02*
X7Y1162D01*
X2734Y1162D02*
X2741Y1162D01*
X0Y1161D02*
X7Y1161D01*
X2734Y1161D02*
X2741Y1161D01*
X0Y1160D02*
X7Y1160D01*
X2734Y1160D02*
X2741Y1160D01*
X0Y1159D02*
X7Y1159D01*
X2734Y1159D02*
X2741Y1159D01*
X0Y1158D02*
X7Y1158D01*
X2734Y1158D02*
X2741Y1158D01*
X0Y1157D02*
X7Y1157D01*
X2734Y1157D02*
X2741Y1157D01*
X0Y1156D02*
X7Y1156D01*
X2734Y1156D02*
X2741Y1156D01*
X0Y1155D02*
X7Y1155D01*
X2734Y1155D02*
X2741Y1155D01*
X0Y1154D02*
X7Y1154D01*
X2734Y1154D02*
X2741Y1154D01*
X0Y1153D02*
X7Y1153D01*
X2734Y1153D02*
X2741Y1153D01*
X0Y1152D02*
X7Y1152D01*
X2734Y1152D02*
X2741Y1152D01*
X0Y1151D02*
X7Y1151D01*
X2734Y1151D02*
X2741Y1151D01*
X0Y1150D02*
X7Y1150D01*
X2734Y1150D02*
X2741Y1150D01*
X0Y1149D02*
X7Y1149D01*
X2734Y1149D02*
X2741Y1149D01*
X0Y1148D02*
X7Y1148D01*
X2734Y1148D02*
X2741Y1148D01*
X0Y1147D02*
X7Y1147D01*
X2734Y1147D02*
X2741Y1147D01*
X0Y1146D02*
X7Y1146D01*
X2734Y1146D02*
X2741Y1146D01*
X0Y1145D02*
X7Y1145D01*
X2734Y1145D02*
X2741Y1145D01*
X0Y1144D02*
X7Y1144D01*
X2734Y1144D02*
X2741Y1144D01*
X0Y1143D02*
X7Y1143D01*
X2734Y1143D02*
X2741Y1143D01*
X0Y1142D02*
X7Y1142D01*
X2734Y1142D02*
X2741Y1142D01*
X0Y1141D02*
X7Y1141D01*
X2734Y1141D02*
X2741Y1141D01*
X0Y1140D02*
X7Y1140D01*
X2734Y1140D02*
X2741Y1140D01*
X0Y1139D02*
X7Y1139D01*
X2734Y1139D02*
X2741Y1139D01*
X0Y1138D02*
X7Y1138D01*
X2734Y1138D02*
X2741Y1138D01*
X0Y1137D02*
X7Y1137D01*
X2734Y1137D02*
X2741Y1137D01*
X0Y1136D02*
X7Y1136D01*
X2734Y1136D02*
X2741Y1136D01*
X0Y1135D02*
X7Y1135D01*
X2734Y1135D02*
X2741Y1135D01*
X0Y1134D02*
X7Y1134D01*
X2734Y1134D02*
X2741Y1134D01*
X0Y1133D02*
X7Y1133D01*
X2734Y1133D02*
X2741Y1133D01*
X0Y1132D02*
X7Y1132D01*
X2734Y1132D02*
X2741Y1132D01*
X0Y1131D02*
X7Y1131D01*
X2734Y1131D02*
X2741Y1131D01*
X0Y1130D02*
X7Y1130D01*
X2734Y1130D02*
X2741Y1130D01*
X0Y1129D02*
X7Y1129D01*
X2734Y1129D02*
X2741Y1129D01*
X0Y1128D02*
X7Y1128D01*
X2734Y1128D02*
X2741Y1128D01*
X0Y1127D02*
X7Y1127D01*
X2734Y1127D02*
X2741Y1127D01*
X0Y1126D02*
X7Y1126D01*
X2734Y1126D02*
X2741Y1126D01*
X0Y1125D02*
X7Y1125D01*
X2734Y1125D02*
X2741Y1125D01*
X0Y1124D02*
X7Y1124D01*
X2734Y1124D02*
X2741Y1124D01*
X0Y1123D02*
X7Y1123D01*
X2734Y1123D02*
X2741Y1123D01*
X0Y1122D02*
X7Y1122D01*
X2734Y1122D02*
X2741Y1122D01*
X0Y1121D02*
X7Y1121D01*
X2734Y1121D02*
X2741Y1121D01*
X0Y1120D02*
X7Y1120D01*
X2734Y1120D02*
X2741Y1120D01*
X0Y1119D02*
X7Y1119D01*
X2734Y1119D02*
X2741Y1119D01*
X0Y1118D02*
X7Y1118D01*
X2734Y1118D02*
X2741Y1118D01*
X0Y1117D02*
X7Y1117D01*
X2734Y1117D02*
X2741Y1117D01*
X0Y1116D02*
X7Y1116D01*
X2734Y1116D02*
X2741Y1116D01*
X0Y1115D02*
X7Y1115D01*
X2734Y1115D02*
X2741Y1115D01*
X0Y1114D02*
X7Y1114D01*
X2734Y1114D02*
X2741Y1114D01*
X0Y1113D02*
X7Y1113D01*
X2734Y1113D02*
X2741Y1113D01*
X0Y1112D02*
X7Y1112D01*
X2734Y1112D02*
X2741Y1112D01*
X0Y1111D02*
X7Y1111D01*
X2734Y1111D02*
X2741Y1111D01*
X0Y1110D02*
X7Y1110D01*
X2734Y1110D02*
X2741Y1110D01*
X0Y1109D02*
X7Y1109D01*
X2734Y1109D02*
X2741Y1109D01*
X0Y1108D02*
X7Y1108D01*
X2734Y1108D02*
X2741Y1108D01*
X0Y1107D02*
X7Y1107D01*
X2734Y1107D02*
X2741Y1107D01*
X0Y1106D02*
X7Y1106D01*
X2734Y1106D02*
X2741Y1106D01*
X0Y1105D02*
X7Y1105D01*
X2734Y1105D02*
X2741Y1105D01*
X0Y1104D02*
X7Y1104D01*
X2734Y1104D02*
X2741Y1104D01*
X0Y1103D02*
X7Y1103D01*
X2734Y1103D02*
X2741Y1103D01*
X0Y1102D02*
X7Y1102D01*
X2734Y1102D02*
X2741Y1102D01*
X0Y1101D02*
X7Y1101D01*
X2734Y1101D02*
X2741Y1101D01*
X0Y1100D02*
X7Y1100D01*
X2734Y1100D02*
X2741Y1100D01*
X0Y1099D02*
X7Y1099D01*
X2734Y1099D02*
X2741Y1099D01*
X0Y1098D02*
X7Y1098D01*
X2734Y1098D02*
X2741Y1098D01*
X0Y1097D02*
X7Y1097D01*
X2734Y1097D02*
X2741Y1097D01*
X0Y1096D02*
X7Y1096D01*
X2734Y1096D02*
X2741Y1096D01*
X0Y1095D02*
X7Y1095D01*
X2734Y1095D02*
X2741Y1095D01*
X0Y1094D02*
X7Y1094D01*
X2734Y1094D02*
X2741Y1094D01*
X0Y1093D02*
X7Y1093D01*
X2734Y1093D02*
X2741Y1093D01*
X0Y1092D02*
X7Y1092D01*
X2734Y1092D02*
X2741Y1092D01*
X0Y1091D02*
X7Y1091D01*
X2734Y1091D02*
X2741Y1091D01*
X0Y1090D02*
X7Y1090D01*
X2734Y1090D02*
X2741Y1090D01*
X0Y1089D02*
X7Y1089D01*
X2734Y1089D02*
X2741Y1089D01*
X0Y1088D02*
X7Y1088D01*
X2734Y1088D02*
X2741Y1088D01*
X0Y1087D02*
X7Y1087D01*
X2734Y1087D02*
X2741Y1087D01*
X0Y1086D02*
X7Y1086D01*
X2734Y1086D02*
X2741Y1086D01*
X0Y1085D02*
X7Y1085D01*
X2734Y1085D02*
X2741Y1085D01*
X0Y1084D02*
X7Y1084D01*
X2734Y1084D02*
X2741Y1084D01*
X0Y1083D02*
X7Y1083D01*
X2734Y1083D02*
X2741Y1083D01*
X0Y1082D02*
X7Y1082D01*
X2734Y1082D02*
X2741Y1082D01*
X0Y1081D02*
X7Y1081D01*
X2734Y1081D02*
X2741Y1081D01*
X0Y1080D02*
X7Y1080D01*
X2734Y1080D02*
X2741Y1080D01*
X0Y1079D02*
X7Y1079D01*
X2734Y1079D02*
X2741Y1079D01*
X0Y1078D02*
X7Y1078D01*
X2734Y1078D02*
X2741Y1078D01*
X0Y1077D02*
X7Y1077D01*
X2734Y1077D02*
X2741Y1077D01*
X0Y1076D02*
X7Y1076D01*
X2734Y1076D02*
X2741Y1076D01*
X0Y1075D02*
X7Y1075D01*
X2734Y1075D02*
X2741Y1075D01*
X0Y1074D02*
X7Y1074D01*
X2734Y1074D02*
X2741Y1074D01*
X0Y1073D02*
X7Y1073D01*
X2734Y1073D02*
X2741Y1073D01*
X0Y1072D02*
X7Y1072D01*
X2734Y1072D02*
X2741Y1072D01*
X0Y1071D02*
X7Y1071D01*
X2734Y1071D02*
X2741Y1071D01*
X0Y1070D02*
X7Y1070D01*
X2734Y1070D02*
X2741Y1070D01*
X0Y1069D02*
X7Y1069D01*
X2734Y1069D02*
X2741Y1069D01*
X0Y1068D02*
X7Y1068D01*
X2734Y1068D02*
X2741Y1068D01*
X0Y1067D02*
X7Y1067D01*
X2734Y1067D02*
X2741Y1067D01*
X0Y1066D02*
X7Y1066D01*
X2734Y1066D02*
X2741Y1066D01*
X0Y1065D02*
X7Y1065D01*
X2734Y1065D02*
X2741Y1065D01*
X0Y1064D02*
X7Y1064D01*
X2734Y1064D02*
X2741Y1064D01*
X0Y1063D02*
X7Y1063D01*
X2734Y1063D02*
X2741Y1063D01*
X0Y1062D02*
X7Y1062D01*
X2734Y1062D02*
X2741Y1062D01*
X0Y1061D02*
X7Y1061D01*
X2734Y1061D02*
X2741Y1061D01*
X0Y1060D02*
X7Y1060D01*
X2734Y1060D02*
X2741Y1060D01*
X0Y1059D02*
X7Y1059D01*
X2734Y1059D02*
X2741Y1059D01*
X0Y1058D02*
X7Y1058D01*
X2734Y1058D02*
X2741Y1058D01*
X0Y1057D02*
X7Y1057D01*
X2734Y1057D02*
X2741Y1057D01*
X0Y1056D02*
X7Y1056D01*
X2734Y1056D02*
X2741Y1056D01*
X0Y1055D02*
X7Y1055D01*
X2734Y1055D02*
X2741Y1055D01*
X0Y1054D02*
X7Y1054D01*
X2734Y1054D02*
X2741Y1054D01*
X0Y1053D02*
X7Y1053D01*
X2734Y1053D02*
X2741Y1053D01*
X0Y1052D02*
X7Y1052D01*
X2734Y1052D02*
X2741Y1052D01*
X0Y1051D02*
X7Y1051D01*
X2734Y1051D02*
X2741Y1051D01*
X0Y1050D02*
X7Y1050D01*
X2734Y1050D02*
X2741Y1050D01*
X0Y1049D02*
X7Y1049D01*
X2734Y1049D02*
X2741Y1049D01*
X0Y1048D02*
X7Y1048D01*
X2734Y1048D02*
X2741Y1048D01*
X0Y1047D02*
X7Y1047D01*
X2734Y1047D02*
X2741Y1047D01*
X0Y1046D02*
X7Y1046D01*
X2734Y1046D02*
X2741Y1046D01*
X0Y1045D02*
X7Y1045D01*
X2734Y1045D02*
X2741Y1045D01*
X0Y1044D02*
X7Y1044D01*
X2734Y1044D02*
X2741Y1044D01*
X0Y1043D02*
X7Y1043D01*
X2734Y1043D02*
X2741Y1043D01*
X0Y1042D02*
X7Y1042D01*
X2734Y1042D02*
X2741Y1042D01*
X0Y1041D02*
X7Y1041D01*
X2734Y1041D02*
X2741Y1041D01*
X0Y1040D02*
X7Y1040D01*
X2734Y1040D02*
X2741Y1040D01*
X0Y1039D02*
X7Y1039D01*
X2734Y1039D02*
X2741Y1039D01*
X0Y1038D02*
X7Y1038D01*
X2734Y1038D02*
X2741Y1038D01*
X0Y1037D02*
X7Y1037D01*
X2734Y1037D02*
X2741Y1037D01*
X0Y1036D02*
X7Y1036D01*
X2734Y1036D02*
X2741Y1036D01*
X0Y1035D02*
X7Y1035D01*
X2734Y1035D02*
X2741Y1035D01*
X0Y1034D02*
X7Y1034D01*
X2734Y1034D02*
X2741Y1034D01*
X0Y1033D02*
X7Y1033D01*
X2734Y1033D02*
X2741Y1033D01*
X0Y1032D02*
X7Y1032D01*
X2734Y1032D02*
X2741Y1032D01*
X0Y1031D02*
X7Y1031D01*
X2734Y1031D02*
X2741Y1031D01*
X0Y1030D02*
X7Y1030D01*
X2734Y1030D02*
X2741Y1030D01*
X0Y1029D02*
X7Y1029D01*
X2734Y1029D02*
X2741Y1029D01*
X0Y1028D02*
X7Y1028D01*
X2734Y1028D02*
X2741Y1028D01*
X0Y1027D02*
X7Y1027D01*
X2734Y1027D02*
X2741Y1027D01*
X0Y1026D02*
X7Y1026D01*
X2734Y1026D02*
X2741Y1026D01*
X0Y1025D02*
X7Y1025D01*
X2734Y1025D02*
X2741Y1025D01*
X0Y1024D02*
X7Y1024D01*
X2734Y1024D02*
X2741Y1024D01*
X0Y1023D02*
X7Y1023D01*
X2734Y1023D02*
X2741Y1023D01*
X0Y1022D02*
X7Y1022D01*
X2734Y1022D02*
X2741Y1022D01*
X0Y1021D02*
X7Y1021D01*
X2734Y1021D02*
X2741Y1021D01*
X0Y1020D02*
X7Y1020D01*
X2734Y1020D02*
X2741Y1020D01*
X0Y1019D02*
X7Y1019D01*
X2734Y1019D02*
X2741Y1019D01*
X0Y1018D02*
X7Y1018D01*
X2734Y1018D02*
X2741Y1018D01*
X0Y1017D02*
X7Y1017D01*
X2734Y1017D02*
X2741Y1017D01*
X0Y1016D02*
X7Y1016D01*
X2734Y1016D02*
X2741Y1016D01*
X0Y1015D02*
X7Y1015D01*
X2734Y1015D02*
X2741Y1015D01*
X0Y1014D02*
X7Y1014D01*
X2734Y1014D02*
X2741Y1014D01*
X0Y1013D02*
X7Y1013D01*
X2734Y1013D02*
X2741Y1013D01*
X0Y1012D02*
X7Y1012D01*
X2734Y1012D02*
X2741Y1012D01*
X0Y1011D02*
X7Y1011D01*
X2734Y1011D02*
X2741Y1011D01*
X0Y1010D02*
X7Y1010D01*
X2734Y1010D02*
X2741Y1010D01*
X0Y1009D02*
X7Y1009D01*
X2734Y1009D02*
X2741Y1009D01*
X0Y1008D02*
X7Y1008D01*
X2734Y1008D02*
X2741Y1008D01*
X0Y1007D02*
X7Y1007D01*
X2734Y1007D02*
X2741Y1007D01*
X0Y1006D02*
X7Y1006D01*
X2734Y1006D02*
X2741Y1006D01*
X0Y1005D02*
X7Y1005D01*
X2734Y1005D02*
X2741Y1005D01*
X0Y1004D02*
X7Y1004D01*
X2734Y1004D02*
X2741Y1004D01*
X0Y1003D02*
X7Y1003D01*
X2734Y1003D02*
X2741Y1003D01*
X0Y1002D02*
X7Y1002D01*
X2734Y1002D02*
X2741Y1002D01*
X0Y1001D02*
X7Y1001D01*
X2734Y1001D02*
X2741Y1001D01*
X0Y1000D02*
X7Y1000D01*
X2734Y1000D02*
X2741Y1000D01*
X0Y999D02*
X7Y999D01*
X2734Y999D02*
X2741Y999D01*
X0Y998D02*
X7Y998D01*
X2734Y998D02*
X2741Y998D01*
X0Y997D02*
X7Y997D01*
X2734Y997D02*
X2741Y997D01*
X0Y996D02*
X7Y996D01*
X2734Y996D02*
X2741Y996D01*
X0Y995D02*
X7Y995D01*
X2734Y995D02*
X2741Y995D01*
X0Y994D02*
X7Y994D01*
X2734Y994D02*
X2741Y994D01*
X0Y993D02*
X7Y993D01*
X2734Y993D02*
X2741Y993D01*
X0Y992D02*
X7Y992D01*
X2734Y992D02*
X2741Y992D01*
X0Y991D02*
X7Y991D01*
X2734Y991D02*
X2741Y991D01*
X0Y990D02*
X7Y990D01*
X2734Y990D02*
X2741Y990D01*
X0Y989D02*
X7Y989D01*
X2734Y989D02*
X2741Y989D01*
X0Y988D02*
X7Y988D01*
X2734Y988D02*
X2741Y988D01*
X0Y987D02*
X7Y987D01*
X2734Y987D02*
X2741Y987D01*
X0Y986D02*
X7Y986D01*
X2734Y986D02*
X2741Y986D01*
X0Y985D02*
X7Y985D01*
X2734Y985D02*
X2741Y985D01*
X0Y984D02*
X7Y984D01*
X2734Y984D02*
X2741Y984D01*
X0Y983D02*
X7Y983D01*
X2734Y983D02*
X2741Y983D01*
X0Y982D02*
X7Y982D01*
X2734Y982D02*
X2741Y982D01*
X0Y981D02*
X7Y981D01*
X2734Y981D02*
X2741Y981D01*
X0Y980D02*
X7Y980D01*
X2734Y980D02*
X2741Y980D01*
X0Y979D02*
X7Y979D01*
X2734Y979D02*
X2741Y979D01*
X0Y978D02*
X7Y978D01*
X2734Y978D02*
X2741Y978D01*
X0Y977D02*
X7Y977D01*
X2734Y977D02*
X2741Y977D01*
X0Y976D02*
X7Y976D01*
X2734Y976D02*
X2741Y976D01*
X0Y975D02*
X7Y975D01*
X2734Y975D02*
X2741Y975D01*
X0Y974D02*
X7Y974D01*
X2734Y974D02*
X2741Y974D01*
X0Y973D02*
X7Y973D01*
X2734Y973D02*
X2741Y973D01*
X0Y972D02*
X7Y972D01*
X2734Y972D02*
X2741Y972D01*
X0Y971D02*
X7Y971D01*
X2734Y971D02*
X2741Y971D01*
X0Y970D02*
X7Y970D01*
X2734Y970D02*
X2741Y970D01*
X0Y969D02*
X7Y969D01*
X2734Y969D02*
X2741Y969D01*
X0Y968D02*
X7Y968D01*
X2734Y968D02*
X2741Y968D01*
X0Y967D02*
X7Y967D01*
X2734Y967D02*
X2741Y967D01*
X0Y966D02*
X7Y966D01*
X2734Y966D02*
X2741Y966D01*
X0Y965D02*
X7Y965D01*
X2734Y965D02*
X2741Y965D01*
X0Y964D02*
X7Y964D01*
X2734Y964D02*
X2741Y964D01*
X0Y963D02*
X7Y963D01*
X2734Y963D02*
X2741Y963D01*
X0Y962D02*
X7Y962D01*
X2734Y962D02*
X2741Y962D01*
X0Y961D02*
X7Y961D01*
X2734Y961D02*
X2741Y961D01*
X0Y960D02*
X7Y960D01*
X2734Y960D02*
X2741Y960D01*
X0Y959D02*
X7Y959D01*
X2734Y959D02*
X2741Y959D01*
X0Y958D02*
X7Y958D01*
X2734Y958D02*
X2741Y958D01*
X0Y957D02*
X7Y957D01*
X2734Y957D02*
X2741Y957D01*
X0Y956D02*
X7Y956D01*
X2734Y956D02*
X2741Y956D01*
X0Y955D02*
X7Y955D01*
X2734Y955D02*
X2741Y955D01*
X0Y954D02*
X7Y954D01*
X2734Y954D02*
X2741Y954D01*
X0Y953D02*
X7Y953D01*
X2734Y953D02*
X2741Y953D01*
X0Y952D02*
X7Y952D01*
X2734Y952D02*
X2741Y952D01*
X0Y951D02*
X7Y951D01*
X2734Y951D02*
X2741Y951D01*
X0Y950D02*
X7Y950D01*
X2734Y950D02*
X2741Y950D01*
X0Y949D02*
X7Y949D01*
X2734Y949D02*
X2741Y949D01*
X0Y948D02*
X7Y948D01*
X2734Y948D02*
X2741Y948D01*
X0Y947D02*
X7Y947D01*
X2734Y947D02*
X2741Y947D01*
X0Y946D02*
X7Y946D01*
X2734Y946D02*
X2741Y946D01*
X0Y945D02*
X7Y945D01*
X2734Y945D02*
X2741Y945D01*
X0Y944D02*
X7Y944D01*
X2734Y944D02*
X2741Y944D01*
X0Y943D02*
X7Y943D01*
X2734Y943D02*
X2741Y943D01*
X0Y942D02*
X7Y942D01*
X2734Y942D02*
X2741Y942D01*
X0Y941D02*
X7Y941D01*
X2734Y941D02*
X2741Y941D01*
X0Y940D02*
X7Y940D01*
X2734Y940D02*
X2741Y940D01*
X0Y939D02*
X7Y939D01*
X2734Y939D02*
X2741Y939D01*
X0Y938D02*
X7Y938D01*
X2734Y938D02*
X2741Y938D01*
X0Y937D02*
X7Y937D01*
X2734Y937D02*
X2741Y937D01*
X0Y936D02*
X7Y936D01*
X2734Y936D02*
X2741Y936D01*
X0Y935D02*
X7Y935D01*
X2734Y935D02*
X2741Y935D01*
X0Y934D02*
X7Y934D01*
X2734Y934D02*
X2741Y934D01*
X0Y933D02*
X7Y933D01*
X2734Y933D02*
X2741Y933D01*
X0Y932D02*
X7Y932D01*
X2734Y932D02*
X2741Y932D01*
X0Y931D02*
X7Y931D01*
X2734Y931D02*
X2741Y931D01*
X0Y930D02*
X7Y930D01*
X2734Y930D02*
X2741Y930D01*
X0Y929D02*
X7Y929D01*
X2734Y929D02*
X2741Y929D01*
X0Y928D02*
X7Y928D01*
X2734Y928D02*
X2741Y928D01*
X0Y927D02*
X7Y927D01*
X2734Y927D02*
X2741Y927D01*
X0Y926D02*
X7Y926D01*
X2734Y926D02*
X2741Y926D01*
X0Y925D02*
X7Y925D01*
X2734Y925D02*
X2741Y925D01*
X0Y924D02*
X7Y924D01*
X2734Y924D02*
X2741Y924D01*
X0Y923D02*
X7Y923D01*
X2734Y923D02*
X2741Y923D01*
X0Y922D02*
X7Y922D01*
X2734Y922D02*
X2741Y922D01*
X0Y921D02*
X7Y921D01*
X2734Y921D02*
X2741Y921D01*
X0Y920D02*
X7Y920D01*
X2734Y920D02*
X2741Y920D01*
X0Y919D02*
X7Y919D01*
X2734Y919D02*
X2741Y919D01*
X0Y918D02*
X7Y918D01*
X2734Y918D02*
X2741Y918D01*
X0Y917D02*
X7Y917D01*
X2734Y917D02*
X2741Y917D01*
X0Y916D02*
X7Y916D01*
X2734Y916D02*
X2741Y916D01*
X0Y915D02*
X7Y915D01*
X2734Y915D02*
X2741Y915D01*
X0Y914D02*
X7Y914D01*
X2734Y914D02*
X2741Y914D01*
X0Y913D02*
X7Y913D01*
X2734Y913D02*
X2741Y913D01*
X0Y912D02*
X7Y912D01*
X2734Y912D02*
X2741Y912D01*
X0Y911D02*
X7Y911D01*
X2734Y911D02*
X2741Y911D01*
X0Y910D02*
X7Y910D01*
X2734Y910D02*
X2741Y910D01*
X0Y909D02*
X7Y909D01*
X2734Y909D02*
X2741Y909D01*
X0Y908D02*
X7Y908D01*
X2734Y908D02*
X2741Y908D01*
X0Y907D02*
X7Y907D01*
X2734Y907D02*
X2741Y907D01*
X0Y906D02*
X7Y906D01*
X2734Y906D02*
X2741Y906D01*
X0Y905D02*
X7Y905D01*
X2734Y905D02*
X2741Y905D01*
X0Y904D02*
X7Y904D01*
X2734Y904D02*
X2741Y904D01*
X0Y903D02*
X7Y903D01*
X2734Y903D02*
X2741Y903D01*
X0Y902D02*
X7Y902D01*
X2734Y902D02*
X2741Y902D01*
X0Y901D02*
X7Y901D01*
X2734Y901D02*
X2741Y901D01*
X0Y900D02*
X7Y900D01*
X2734Y900D02*
X2741Y900D01*
X0Y899D02*
X7Y899D01*
X2734Y899D02*
X2741Y899D01*
X0Y898D02*
X7Y898D01*
X2734Y898D02*
X2741Y898D01*
X0Y897D02*
X7Y897D01*
X2734Y897D02*
X2741Y897D01*
X0Y896D02*
X7Y896D01*
X2734Y896D02*
X2741Y896D01*
X0Y895D02*
X7Y895D01*
X2734Y895D02*
X2741Y895D01*
X0Y894D02*
X7Y894D01*
X2734Y894D02*
X2741Y894D01*
X0Y893D02*
X7Y893D01*
X2734Y893D02*
X2741Y893D01*
X0Y892D02*
X7Y892D01*
X2734Y892D02*
X2741Y892D01*
X0Y891D02*
X7Y891D01*
X2734Y891D02*
X2741Y891D01*
X0Y890D02*
X7Y890D01*
X2734Y890D02*
X2741Y890D01*
X0Y889D02*
X7Y889D01*
X2734Y889D02*
X2741Y889D01*
X0Y888D02*
X7Y888D01*
X2734Y888D02*
X2741Y888D01*
X0Y887D02*
X7Y887D01*
X2734Y887D02*
X2741Y887D01*
X0Y886D02*
X7Y886D01*
X2734Y886D02*
X2741Y886D01*
X0Y885D02*
X7Y885D01*
X2734Y885D02*
X2741Y885D01*
X0Y884D02*
X7Y884D01*
X2734Y884D02*
X2741Y884D01*
X0Y883D02*
X7Y883D01*
X2734Y883D02*
X2741Y883D01*
X0Y882D02*
X7Y882D01*
X2734Y882D02*
X2741Y882D01*
X0Y881D02*
X7Y881D01*
X2734Y881D02*
X2741Y881D01*
X0Y880D02*
X7Y880D01*
X2734Y880D02*
X2741Y880D01*
X0Y879D02*
X7Y879D01*
X2734Y879D02*
X2741Y879D01*
X0Y878D02*
X7Y878D01*
X2734Y878D02*
X2741Y878D01*
X0Y877D02*
X7Y877D01*
X2734Y877D02*
X2741Y877D01*
X0Y876D02*
X7Y876D01*
X2734Y876D02*
X2741Y876D01*
X0Y875D02*
X7Y875D01*
X2734Y875D02*
X2741Y875D01*
X0Y874D02*
X7Y874D01*
X2734Y874D02*
X2741Y874D01*
X0Y873D02*
X7Y873D01*
X2734Y873D02*
X2741Y873D01*
X0Y872D02*
X7Y872D01*
X2734Y872D02*
X2741Y872D01*
X0Y871D02*
X7Y871D01*
X2734Y871D02*
X2741Y871D01*
X0Y870D02*
X7Y870D01*
X2734Y870D02*
X2741Y870D01*
X0Y869D02*
X7Y869D01*
X2734Y869D02*
X2741Y869D01*
X0Y868D02*
X7Y868D01*
X2734Y868D02*
X2741Y868D01*
X0Y867D02*
X7Y867D01*
X2734Y867D02*
X2741Y867D01*
X0Y866D02*
X7Y866D01*
X2734Y866D02*
X2741Y866D01*
X0Y865D02*
X7Y865D01*
X2734Y865D02*
X2741Y865D01*
X0Y864D02*
X7Y864D01*
X2734Y864D02*
X2741Y864D01*
X0Y863D02*
X7Y863D01*
X2734Y863D02*
X2741Y863D01*
X0Y862D02*
X7Y862D01*
X2734Y862D02*
X2741Y862D01*
X0Y861D02*
X7Y861D01*
X2734Y861D02*
X2741Y861D01*
X0Y860D02*
X7Y860D01*
X2734Y860D02*
X2741Y860D01*
X0Y859D02*
X7Y859D01*
X2734Y859D02*
X2741Y859D01*
X0Y858D02*
X7Y858D01*
X2734Y858D02*
X2741Y858D01*
X0Y857D02*
X7Y857D01*
X2734Y857D02*
X2741Y857D01*
X0Y856D02*
X7Y856D01*
X2734Y856D02*
X2741Y856D01*
X0Y855D02*
X7Y855D01*
X2734Y855D02*
X2741Y855D01*
X0Y854D02*
X7Y854D01*
X2734Y854D02*
X2741Y854D01*
X0Y853D02*
X7Y853D01*
X2734Y853D02*
X2741Y853D01*
X0Y852D02*
X7Y852D01*
X2734Y852D02*
X2741Y852D01*
X0Y851D02*
X7Y851D01*
X2734Y851D02*
X2741Y851D01*
X0Y850D02*
X7Y850D01*
X2734Y850D02*
X2741Y850D01*
X0Y849D02*
X7Y849D01*
X2734Y849D02*
X2741Y849D01*
X0Y848D02*
X7Y848D01*
X2734Y848D02*
X2741Y848D01*
X0Y847D02*
X7Y847D01*
X2734Y847D02*
X2741Y847D01*
X0Y846D02*
X7Y846D01*
X2734Y846D02*
X2741Y846D01*
X0Y845D02*
X7Y845D01*
X2734Y845D02*
X2741Y845D01*
X0Y844D02*
X7Y844D01*
X2734Y844D02*
X2741Y844D01*
X0Y843D02*
X7Y843D01*
X2734Y843D02*
X2741Y843D01*
X0Y842D02*
X7Y842D01*
X2734Y842D02*
X2741Y842D01*
X0Y841D02*
X7Y841D01*
X2734Y841D02*
X2741Y841D01*
X0Y840D02*
X7Y840D01*
X2734Y840D02*
X2741Y840D01*
X0Y839D02*
X7Y839D01*
X2734Y839D02*
X2741Y839D01*
X0Y838D02*
X7Y838D01*
X2734Y838D02*
X2741Y838D01*
X0Y837D02*
X7Y837D01*
X2734Y837D02*
X2741Y837D01*
X0Y836D02*
X7Y836D01*
X2734Y836D02*
X2741Y836D01*
X0Y835D02*
X7Y835D01*
X2734Y835D02*
X2741Y835D01*
X0Y834D02*
X7Y834D01*
X2734Y834D02*
X2741Y834D01*
X0Y833D02*
X7Y833D01*
X2734Y833D02*
X2741Y833D01*
X0Y832D02*
X7Y832D01*
X2734Y832D02*
X2741Y832D01*
X0Y831D02*
X7Y831D01*
X2734Y831D02*
X2741Y831D01*
X0Y830D02*
X7Y830D01*
X2734Y830D02*
X2741Y830D01*
X0Y829D02*
X7Y829D01*
X2734Y829D02*
X2741Y829D01*
X0Y828D02*
X7Y828D01*
X2734Y828D02*
X2741Y828D01*
X0Y827D02*
X7Y827D01*
X2734Y827D02*
X2741Y827D01*
X0Y826D02*
X7Y826D01*
X2734Y826D02*
X2741Y826D01*
X0Y825D02*
X7Y825D01*
X2734Y825D02*
X2741Y825D01*
X0Y824D02*
X7Y824D01*
X2734Y824D02*
X2741Y824D01*
X0Y823D02*
X7Y823D01*
X2734Y823D02*
X2741Y823D01*
X0Y822D02*
X7Y822D01*
X2734Y822D02*
X2741Y822D01*
X0Y821D02*
X7Y821D01*
X2734Y821D02*
X2741Y821D01*
X0Y820D02*
X7Y820D01*
X2734Y820D02*
X2741Y820D01*
X0Y819D02*
X7Y819D01*
X2734Y819D02*
X2741Y819D01*
X0Y818D02*
X7Y818D01*
X2734Y818D02*
X2741Y818D01*
X0Y817D02*
X7Y817D01*
X2734Y817D02*
X2741Y817D01*
X0Y816D02*
X7Y816D01*
X2734Y816D02*
X2741Y816D01*
X0Y815D02*
X7Y815D01*
X2734Y815D02*
X2741Y815D01*
X0Y814D02*
X7Y814D01*
X2734Y814D02*
X2741Y814D01*
X0Y813D02*
X7Y813D01*
X2734Y813D02*
X2741Y813D01*
X0Y812D02*
X7Y812D01*
X2734Y812D02*
X2741Y812D01*
X0Y811D02*
X7Y811D01*
X2734Y811D02*
X2741Y811D01*
X0Y810D02*
X7Y810D01*
X2734Y810D02*
X2741Y810D01*
X0Y809D02*
X7Y809D01*
X2734Y809D02*
X2741Y809D01*
X0Y808D02*
X7Y808D01*
X2734Y808D02*
X2741Y808D01*
X0Y807D02*
X7Y807D01*
X2734Y807D02*
X2741Y807D01*
X0Y806D02*
X7Y806D01*
X2734Y806D02*
X2741Y806D01*
X0Y805D02*
X7Y805D01*
X2734Y805D02*
X2741Y805D01*
X0Y804D02*
X7Y804D01*
X2734Y804D02*
X2741Y804D01*
X0Y803D02*
X7Y803D01*
X2734Y803D02*
X2741Y803D01*
X0Y802D02*
X7Y802D01*
X2734Y802D02*
X2741Y802D01*
X0Y801D02*
X7Y801D01*
X2734Y801D02*
X2741Y801D01*
X0Y800D02*
X7Y800D01*
X2734Y800D02*
X2741Y800D01*
X0Y799D02*
X7Y799D01*
X2734Y799D02*
X2741Y799D01*
X0Y798D02*
X7Y798D01*
X2734Y798D02*
X2741Y798D01*
X0Y797D02*
X7Y797D01*
X2734Y797D02*
X2741Y797D01*
X0Y796D02*
X7Y796D01*
X2734Y796D02*
X2741Y796D01*
X0Y795D02*
X7Y795D01*
X2734Y795D02*
X2741Y795D01*
X0Y794D02*
X7Y794D01*
X2734Y794D02*
X2741Y794D01*
X0Y793D02*
X7Y793D01*
X2734Y793D02*
X2741Y793D01*
X0Y792D02*
X7Y792D01*
X2734Y792D02*
X2741Y792D01*
X0Y791D02*
X7Y791D01*
X2734Y791D02*
X2741Y791D01*
X0Y790D02*
X7Y790D01*
X2734Y790D02*
X2741Y790D01*
X0Y789D02*
X7Y789D01*
X2734Y789D02*
X2741Y789D01*
X0Y788D02*
X7Y788D01*
X2734Y788D02*
X2741Y788D01*
X0Y787D02*
X7Y787D01*
X2734Y787D02*
X2741Y787D01*
X0Y786D02*
X7Y786D01*
X2734Y786D02*
X2741Y786D01*
X0Y785D02*
X7Y785D01*
X2734Y785D02*
X2741Y785D01*
X0Y784D02*
X7Y784D01*
X2734Y784D02*
X2741Y784D01*
X0Y783D02*
X7Y783D01*
X2734Y783D02*
X2741Y783D01*
X0Y782D02*
X7Y782D01*
X2734Y782D02*
X2741Y782D01*
X0Y781D02*
X7Y781D01*
X2734Y781D02*
X2741Y781D01*
X0Y780D02*
X7Y780D01*
X2734Y780D02*
X2741Y780D01*
X0Y779D02*
X7Y779D01*
X2734Y779D02*
X2741Y779D01*
X0Y778D02*
X7Y778D01*
X2734Y778D02*
X2741Y778D01*
X0Y777D02*
X7Y777D01*
X2734Y777D02*
X2741Y777D01*
X0Y776D02*
X7Y776D01*
X2734Y776D02*
X2741Y776D01*
X0Y775D02*
X7Y775D01*
X2734Y775D02*
X2741Y775D01*
X0Y774D02*
X7Y774D01*
X2734Y774D02*
X2741Y774D01*
X0Y773D02*
X7Y773D01*
X2734Y773D02*
X2741Y773D01*
X0Y772D02*
X7Y772D01*
X2734Y772D02*
X2741Y772D01*
X0Y771D02*
X7Y771D01*
X2734Y771D02*
X2741Y771D01*
X0Y770D02*
X7Y770D01*
X2734Y770D02*
X2741Y770D01*
X0Y769D02*
X7Y769D01*
X2734Y769D02*
X2741Y769D01*
X0Y768D02*
X7Y768D01*
X2734Y768D02*
X2741Y768D01*
X0Y767D02*
X7Y767D01*
X2734Y767D02*
X2741Y767D01*
X0Y766D02*
X7Y766D01*
X2734Y766D02*
X2741Y766D01*
X0Y765D02*
X7Y765D01*
X2734Y765D02*
X2741Y765D01*
X0Y764D02*
X7Y764D01*
X2734Y764D02*
X2741Y764D01*
X0Y763D02*
X7Y763D01*
X2734Y763D02*
X2741Y763D01*
X0Y762D02*
X7Y762D01*
X2734Y762D02*
X2741Y762D01*
X0Y761D02*
X7Y761D01*
X2734Y761D02*
X2741Y761D01*
X0Y760D02*
X7Y760D01*
X2734Y760D02*
X2741Y760D01*
X0Y759D02*
X7Y759D01*
X2734Y759D02*
X2741Y759D01*
X0Y758D02*
X7Y758D01*
X2734Y758D02*
X2741Y758D01*
X0Y757D02*
X7Y757D01*
X2734Y757D02*
X2741Y757D01*
X0Y756D02*
X7Y756D01*
X2734Y756D02*
X2741Y756D01*
X0Y755D02*
X7Y755D01*
X2734Y755D02*
X2741Y755D01*
X0Y754D02*
X7Y754D01*
X2734Y754D02*
X2741Y754D01*
X0Y753D02*
X7Y753D01*
X2734Y753D02*
X2741Y753D01*
X0Y752D02*
X7Y752D01*
X2734Y752D02*
X2741Y752D01*
X0Y751D02*
X7Y751D01*
X2734Y751D02*
X2741Y751D01*
X0Y750D02*
X7Y750D01*
X2734Y750D02*
X2741Y750D01*
X0Y749D02*
X7Y749D01*
X2734Y749D02*
X2741Y749D01*
X0Y748D02*
X7Y748D01*
X2734Y748D02*
X2741Y748D01*
X0Y747D02*
X7Y747D01*
X2734Y747D02*
X2741Y747D01*
X0Y746D02*
X7Y746D01*
X2734Y746D02*
X2741Y746D01*
X0Y745D02*
X7Y745D01*
X2734Y745D02*
X2741Y745D01*
X0Y744D02*
X7Y744D01*
X2734Y744D02*
X2741Y744D01*
X0Y743D02*
X7Y743D01*
X2734Y743D02*
X2741Y743D01*
X0Y742D02*
X7Y742D01*
X2734Y742D02*
X2741Y742D01*
X0Y741D02*
X7Y741D01*
X2734Y741D02*
X2741Y741D01*
X0Y740D02*
X7Y740D01*
X2734Y740D02*
X2741Y740D01*
X0Y739D02*
X7Y739D01*
X2734Y739D02*
X2741Y739D01*
X0Y738D02*
X7Y738D01*
X2734Y738D02*
X2741Y738D01*
X0Y737D02*
X7Y737D01*
X2734Y737D02*
X2741Y737D01*
X0Y736D02*
X7Y736D01*
X2734Y736D02*
X2741Y736D01*
X0Y735D02*
X7Y735D01*
X2734Y735D02*
X2741Y735D01*
X0Y734D02*
X7Y734D01*
X2734Y734D02*
X2741Y734D01*
X0Y733D02*
X7Y733D01*
X2734Y733D02*
X2741Y733D01*
X0Y732D02*
X7Y732D01*
X2734Y732D02*
X2741Y732D01*
X0Y731D02*
X7Y731D01*
X2734Y731D02*
X2741Y731D01*
X0Y730D02*
X7Y730D01*
X2734Y730D02*
X2741Y730D01*
X0Y729D02*
X7Y729D01*
X2734Y729D02*
X2741Y729D01*
X0Y728D02*
X7Y728D01*
X2734Y728D02*
X2741Y728D01*
X0Y727D02*
X7Y727D01*
X2734Y727D02*
X2741Y727D01*
X0Y726D02*
X7Y726D01*
X2734Y726D02*
X2741Y726D01*
X0Y725D02*
X7Y725D01*
X2734Y725D02*
X2741Y725D01*
X0Y724D02*
X7Y724D01*
X2734Y724D02*
X2741Y724D01*
X0Y723D02*
X7Y723D01*
X2734Y723D02*
X2741Y723D01*
X0Y722D02*
X7Y722D01*
X2734Y722D02*
X2741Y722D01*
X0Y721D02*
X7Y721D01*
X2734Y721D02*
X2741Y721D01*
X0Y720D02*
X7Y720D01*
X2734Y720D02*
X2741Y720D01*
X0Y719D02*
X7Y719D01*
X2734Y719D02*
X2741Y719D01*
X0Y718D02*
X7Y718D01*
X2734Y718D02*
X2741Y718D01*
X0Y717D02*
X7Y717D01*
X2734Y717D02*
X2741Y717D01*
X0Y716D02*
X7Y716D01*
X2734Y716D02*
X2741Y716D01*
X0Y715D02*
X7Y715D01*
X2734Y715D02*
X2741Y715D01*
X0Y714D02*
X7Y714D01*
X2734Y714D02*
X2741Y714D01*
X0Y713D02*
X7Y713D01*
X2734Y713D02*
X2741Y713D01*
X0Y712D02*
X7Y712D01*
X2734Y712D02*
X2741Y712D01*
X0Y711D02*
X7Y711D01*
X2734Y711D02*
X2741Y711D01*
X0Y710D02*
X7Y710D01*
X2734Y710D02*
X2741Y710D01*
X0Y709D02*
X7Y709D01*
X2734Y709D02*
X2741Y709D01*
X0Y708D02*
X7Y708D01*
X2734Y708D02*
X2741Y708D01*
X0Y707D02*
X7Y707D01*
X2734Y707D02*
X2741Y707D01*
X0Y706D02*
X7Y706D01*
X2734Y706D02*
X2741Y706D01*
X0Y705D02*
X7Y705D01*
X2734Y705D02*
X2741Y705D01*
X0Y704D02*
X7Y704D01*
X2734Y704D02*
X2741Y704D01*
X0Y703D02*
X7Y703D01*
X2734Y703D02*
X2741Y703D01*
X0Y702D02*
X7Y702D01*
X2734Y702D02*
X2741Y702D01*
X0Y701D02*
X7Y701D01*
X2734Y701D02*
X2741Y701D01*
X0Y700D02*
X7Y700D01*
X2734Y700D02*
X2741Y700D01*
X0Y699D02*
X7Y699D01*
X2734Y699D02*
X2741Y699D01*
X0Y698D02*
X7Y698D01*
X2734Y698D02*
X2741Y698D01*
X0Y697D02*
X7Y697D01*
X2734Y697D02*
X2741Y697D01*
X0Y696D02*
X7Y696D01*
X2734Y696D02*
X2741Y696D01*
X0Y695D02*
X7Y695D01*
X2734Y695D02*
X2741Y695D01*
X0Y694D02*
X7Y694D01*
X2734Y694D02*
X2741Y694D01*
X0Y693D02*
X7Y693D01*
X2734Y693D02*
X2741Y693D01*
X0Y692D02*
X7Y692D01*
X2734Y692D02*
X2741Y692D01*
X0Y691D02*
X7Y691D01*
X2734Y691D02*
X2741Y691D01*
X0Y690D02*
X7Y690D01*
X2734Y690D02*
X2741Y690D01*
X0Y689D02*
X7Y689D01*
X2734Y689D02*
X2741Y689D01*
X0Y688D02*
X7Y688D01*
X2734Y688D02*
X2741Y688D01*
X0Y687D02*
X7Y687D01*
X2734Y687D02*
X2741Y687D01*
X0Y686D02*
X7Y686D01*
X2734Y686D02*
X2741Y686D01*
X0Y685D02*
X7Y685D01*
X2734Y685D02*
X2741Y685D01*
X0Y684D02*
X7Y684D01*
X2734Y684D02*
X2741Y684D01*
X0Y683D02*
X7Y683D01*
X2734Y683D02*
X2741Y683D01*
X0Y682D02*
X7Y682D01*
X2734Y682D02*
X2741Y682D01*
X0Y681D02*
X7Y681D01*
X2734Y681D02*
X2741Y681D01*
X0Y680D02*
X7Y680D01*
X2734Y680D02*
X2741Y680D01*
X0Y679D02*
X7Y679D01*
X2734Y679D02*
X2741Y679D01*
X0Y678D02*
X7Y678D01*
X2734Y678D02*
X2741Y678D01*
X0Y677D02*
X7Y677D01*
X2734Y677D02*
X2741Y677D01*
X0Y676D02*
X7Y676D01*
X2734Y676D02*
X2741Y676D01*
X0Y675D02*
X7Y675D01*
X2734Y675D02*
X2741Y675D01*
X0Y674D02*
X7Y674D01*
X2734Y674D02*
X2741Y674D01*
X0Y673D02*
X7Y673D01*
X2734Y673D02*
X2741Y673D01*
X0Y672D02*
X7Y672D01*
X2734Y672D02*
X2741Y672D01*
X0Y671D02*
X7Y671D01*
X2734Y671D02*
X2741Y671D01*
X0Y670D02*
X7Y670D01*
X2734Y670D02*
X2741Y670D01*
X0Y669D02*
X7Y669D01*
X2734Y669D02*
X2741Y669D01*
X0Y668D02*
X7Y668D01*
X2734Y668D02*
X2741Y668D01*
X0Y667D02*
X7Y667D01*
X2734Y667D02*
X2741Y667D01*
X0Y666D02*
X7Y666D01*
X2734Y666D02*
X2741Y666D01*
X0Y665D02*
X7Y665D01*
X2734Y665D02*
X2741Y665D01*
X0Y664D02*
X7Y664D01*
X2734Y664D02*
X2741Y664D01*
X0Y663D02*
X7Y663D01*
X2734Y663D02*
X2741Y663D01*
X0Y662D02*
X7Y662D01*
X2734Y662D02*
X2741Y662D01*
X0Y661D02*
X7Y661D01*
X2734Y661D02*
X2741Y661D01*
X0Y660D02*
X7Y660D01*
X2734Y660D02*
X2741Y660D01*
X0Y659D02*
X7Y659D01*
X2734Y659D02*
X2741Y659D01*
X0Y658D02*
X7Y658D01*
X2734Y658D02*
X2741Y658D01*
X0Y657D02*
X7Y657D01*
X2734Y657D02*
X2741Y657D01*
X0Y656D02*
X7Y656D01*
X2734Y656D02*
X2741Y656D01*
X0Y655D02*
X7Y655D01*
X2734Y655D02*
X2741Y655D01*
X0Y654D02*
X7Y654D01*
X2734Y654D02*
X2741Y654D01*
X0Y653D02*
X7Y653D01*
X2734Y653D02*
X2741Y653D01*
X0Y652D02*
X7Y652D01*
X2734Y652D02*
X2741Y652D01*
X0Y651D02*
X7Y651D01*
X2734Y651D02*
X2741Y651D01*
X0Y650D02*
X7Y650D01*
X2734Y650D02*
X2741Y650D01*
X0Y649D02*
X7Y649D01*
X2734Y649D02*
X2741Y649D01*
X0Y648D02*
X7Y648D01*
X2734Y648D02*
X2741Y648D01*
X0Y647D02*
X7Y647D01*
X2734Y647D02*
X2741Y647D01*
X0Y646D02*
X7Y646D01*
X2734Y646D02*
X2741Y646D01*
X0Y645D02*
X7Y645D01*
X2734Y645D02*
X2741Y645D01*
X0Y644D02*
X7Y644D01*
X2734Y644D02*
X2741Y644D01*
X0Y643D02*
X7Y643D01*
X2734Y643D02*
X2741Y643D01*
X0Y642D02*
X7Y642D01*
X2734Y642D02*
X2741Y642D01*
X0Y641D02*
X7Y641D01*
X2734Y641D02*
X2741Y641D01*
X0Y640D02*
X7Y640D01*
X2734Y640D02*
X2741Y640D01*
X0Y639D02*
X7Y639D01*
X2734Y639D02*
X2741Y639D01*
X0Y638D02*
X7Y638D01*
X2734Y638D02*
X2741Y638D01*
X0Y637D02*
X7Y637D01*
X2734Y637D02*
X2741Y637D01*
X0Y636D02*
X7Y636D01*
X2734Y636D02*
X2741Y636D01*
X0Y635D02*
X7Y635D01*
X2734Y635D02*
X2741Y635D01*
X0Y634D02*
X7Y634D01*
X2734Y634D02*
X2741Y634D01*
X0Y633D02*
X7Y633D01*
X2734Y633D02*
X2741Y633D01*
X0Y632D02*
X7Y632D01*
X2734Y632D02*
X2741Y632D01*
X0Y631D02*
X7Y631D01*
X2734Y631D02*
X2741Y631D01*
X0Y630D02*
X7Y630D01*
X2734Y630D02*
X2741Y630D01*
X0Y629D02*
X7Y629D01*
X2734Y629D02*
X2741Y629D01*
X0Y628D02*
X7Y628D01*
X2734Y628D02*
X2741Y628D01*
X0Y627D02*
X7Y627D01*
X2734Y627D02*
X2741Y627D01*
X0Y626D02*
X7Y626D01*
X2734Y626D02*
X2741Y626D01*
X0Y625D02*
X7Y625D01*
X2734Y625D02*
X2741Y625D01*
X0Y624D02*
X7Y624D01*
X2734Y624D02*
X2741Y624D01*
X0Y623D02*
X7Y623D01*
X2734Y623D02*
X2741Y623D01*
X0Y622D02*
X7Y622D01*
X2734Y622D02*
X2741Y622D01*
X0Y621D02*
X7Y621D01*
X2734Y621D02*
X2741Y621D01*
X0Y620D02*
X7Y620D01*
X2734Y620D02*
X2741Y620D01*
X0Y619D02*
X7Y619D01*
X2734Y619D02*
X2741Y619D01*
X0Y618D02*
X7Y618D01*
X2734Y618D02*
X2741Y618D01*
X0Y617D02*
X7Y617D01*
X2734Y617D02*
X2741Y617D01*
X0Y616D02*
X7Y616D01*
X2734Y616D02*
X2741Y616D01*
X0Y615D02*
X7Y615D01*
X2734Y615D02*
X2741Y615D01*
X0Y614D02*
X7Y614D01*
X2734Y614D02*
X2741Y614D01*
X0Y613D02*
X7Y613D01*
X2734Y613D02*
X2741Y613D01*
X0Y612D02*
X7Y612D01*
X2734Y612D02*
X2741Y612D01*
X0Y611D02*
X7Y611D01*
X2734Y611D02*
X2741Y611D01*
X0Y610D02*
X7Y610D01*
X2734Y610D02*
X2741Y610D01*
X0Y609D02*
X7Y609D01*
X2734Y609D02*
X2741Y609D01*
X0Y608D02*
X7Y608D01*
X2734Y608D02*
X2741Y608D01*
X0Y607D02*
X7Y607D01*
X2734Y607D02*
X2741Y607D01*
X0Y606D02*
X7Y606D01*
X2734Y606D02*
X2741Y606D01*
X0Y605D02*
X7Y605D01*
X2734Y605D02*
X2741Y605D01*
X0Y604D02*
X7Y604D01*
X2734Y604D02*
X2741Y604D01*
X0Y603D02*
X7Y603D01*
X2734Y603D02*
X2741Y603D01*
X0Y602D02*
X7Y602D01*
X2734Y602D02*
X2741Y602D01*
X0Y601D02*
X7Y601D01*
X2734Y601D02*
X2741Y601D01*
X0Y600D02*
X7Y600D01*
X2734Y600D02*
X2741Y600D01*
X0Y599D02*
X7Y599D01*
X2734Y599D02*
X2741Y599D01*
X0Y598D02*
X7Y598D01*
X2734Y598D02*
X2741Y598D01*
X0Y597D02*
X7Y597D01*
X2734Y597D02*
X2741Y597D01*
X0Y596D02*
X7Y596D01*
X2734Y596D02*
X2741Y596D01*
X0Y595D02*
X7Y595D01*
X2734Y595D02*
X2741Y595D01*
X0Y594D02*
X7Y594D01*
X2734Y594D02*
X2741Y594D01*
X0Y593D02*
X7Y593D01*
X2734Y593D02*
X2741Y593D01*
X0Y592D02*
X7Y592D01*
X2734Y592D02*
X2741Y592D01*
X0Y591D02*
X7Y591D01*
X2734Y591D02*
X2741Y591D01*
X0Y590D02*
X7Y590D01*
X2734Y590D02*
X2741Y590D01*
X0Y589D02*
X7Y589D01*
X2734Y589D02*
X2741Y589D01*
X0Y588D02*
X7Y588D01*
X2734Y588D02*
X2741Y588D01*
X0Y587D02*
X7Y587D01*
X2734Y587D02*
X2741Y587D01*
X0Y586D02*
X7Y586D01*
X2734Y586D02*
X2741Y586D01*
X0Y585D02*
X7Y585D01*
X2734Y585D02*
X2741Y585D01*
X0Y584D02*
X7Y584D01*
X2734Y584D02*
X2741Y584D01*
X0Y583D02*
X7Y583D01*
X2734Y583D02*
X2741Y583D01*
X0Y582D02*
X7Y582D01*
X2734Y582D02*
X2741Y582D01*
X0Y581D02*
X7Y581D01*
X2734Y581D02*
X2741Y581D01*
X0Y580D02*
X7Y580D01*
X2734Y580D02*
X2741Y580D01*
X0Y579D02*
X7Y579D01*
X2734Y579D02*
X2741Y579D01*
X0Y578D02*
X7Y578D01*
X2734Y578D02*
X2741Y578D01*
X0Y577D02*
X7Y577D01*
X2734Y577D02*
X2741Y577D01*
X0Y576D02*
X7Y576D01*
X2734Y576D02*
X2741Y576D01*
X0Y575D02*
X7Y575D01*
X2734Y575D02*
X2741Y575D01*
X0Y574D02*
X7Y574D01*
X2734Y574D02*
X2741Y574D01*
X0Y573D02*
X7Y573D01*
X2734Y573D02*
X2741Y573D01*
X0Y572D02*
X7Y572D01*
X2734Y572D02*
X2741Y572D01*
X0Y571D02*
X7Y571D01*
X2734Y571D02*
X2741Y571D01*
X0Y570D02*
X7Y570D01*
X2734Y570D02*
X2741Y570D01*
X0Y569D02*
X7Y569D01*
X2734Y569D02*
X2741Y569D01*
X0Y568D02*
X7Y568D01*
X2734Y568D02*
X2741Y568D01*
X0Y567D02*
X7Y567D01*
X2734Y567D02*
X2741Y567D01*
X0Y566D02*
X7Y566D01*
X2734Y566D02*
X2741Y566D01*
X0Y565D02*
X7Y565D01*
X2734Y565D02*
X2741Y565D01*
X0Y564D02*
X7Y564D01*
X2734Y564D02*
X2741Y564D01*
X0Y563D02*
X7Y563D01*
X2734Y563D02*
X2741Y563D01*
X0Y562D02*
X7Y562D01*
X2734Y562D02*
X2741Y562D01*
X0Y561D02*
X7Y561D01*
X2734Y561D02*
X2741Y561D01*
X0Y560D02*
X7Y560D01*
X2734Y560D02*
X2741Y560D01*
X0Y559D02*
X7Y559D01*
X2734Y559D02*
X2741Y559D01*
X0Y558D02*
X7Y558D01*
X2734Y558D02*
X2741Y558D01*
X0Y557D02*
X7Y557D01*
X2734Y557D02*
X2741Y557D01*
X0Y556D02*
X7Y556D01*
X2734Y556D02*
X2741Y556D01*
X0Y555D02*
X7Y555D01*
X2734Y555D02*
X2741Y555D01*
X0Y554D02*
X7Y554D01*
X2734Y554D02*
X2741Y554D01*
X0Y553D02*
X7Y553D01*
X2734Y553D02*
X2741Y553D01*
X0Y552D02*
X7Y552D01*
X2734Y552D02*
X2741Y552D01*
X0Y551D02*
X7Y551D01*
X2734Y551D02*
X2741Y551D01*
X0Y550D02*
X7Y550D01*
X2734Y550D02*
X2741Y550D01*
X0Y549D02*
X7Y549D01*
X2734Y549D02*
X2741Y549D01*
X0Y548D02*
X7Y548D01*
X2734Y548D02*
X2741Y548D01*
X0Y547D02*
X7Y547D01*
X2734Y547D02*
X2741Y547D01*
X0Y546D02*
X7Y546D01*
X2734Y546D02*
X2741Y546D01*
X0Y545D02*
X7Y545D01*
X2734Y545D02*
X2741Y545D01*
X0Y544D02*
X7Y544D01*
X2734Y544D02*
X2741Y544D01*
X0Y543D02*
X7Y543D01*
X2734Y543D02*
X2741Y543D01*
X0Y542D02*
X7Y542D01*
X2734Y542D02*
X2741Y542D01*
X0Y541D02*
X7Y541D01*
X2734Y541D02*
X2741Y541D01*
X0Y540D02*
X7Y540D01*
X2734Y540D02*
X2741Y540D01*
X0Y539D02*
X7Y539D01*
X2734Y539D02*
X2741Y539D01*
X0Y538D02*
X7Y538D01*
X2734Y538D02*
X2741Y538D01*
X0Y537D02*
X7Y537D01*
X2734Y537D02*
X2741Y537D01*
X0Y536D02*
X7Y536D01*
X2734Y536D02*
X2741Y536D01*
X0Y535D02*
X7Y535D01*
X2734Y535D02*
X2741Y535D01*
X0Y534D02*
X7Y534D01*
X2734Y534D02*
X2741Y534D01*
X0Y533D02*
X7Y533D01*
X2734Y533D02*
X2741Y533D01*
X0Y532D02*
X7Y532D01*
X2734Y532D02*
X2741Y532D01*
X0Y531D02*
X7Y531D01*
X2734Y531D02*
X2741Y531D01*
X0Y530D02*
X7Y530D01*
X2734Y530D02*
X2741Y530D01*
X0Y529D02*
X7Y529D01*
X2734Y529D02*
X2741Y529D01*
X0Y528D02*
X7Y528D01*
X2734Y528D02*
X2741Y528D01*
X0Y527D02*
X7Y527D01*
X2734Y527D02*
X2741Y527D01*
X0Y526D02*
X7Y526D01*
X2734Y526D02*
X2741Y526D01*
X0Y525D02*
X7Y525D01*
X2734Y525D02*
X2741Y525D01*
X0Y524D02*
X7Y524D01*
X2734Y524D02*
X2741Y524D01*
X0Y523D02*
X7Y523D01*
X2734Y523D02*
X2741Y523D01*
X0Y522D02*
X7Y522D01*
X2734Y522D02*
X2741Y522D01*
X0Y521D02*
X7Y521D01*
X2734Y521D02*
X2741Y521D01*
X0Y520D02*
X7Y520D01*
X2734Y520D02*
X2741Y520D01*
X0Y519D02*
X7Y519D01*
X2734Y519D02*
X2741Y519D01*
X0Y518D02*
X7Y518D01*
X2734Y518D02*
X2741Y518D01*
X0Y517D02*
X7Y517D01*
X2734Y517D02*
X2741Y517D01*
X0Y516D02*
X7Y516D01*
X2734Y516D02*
X2741Y516D01*
X0Y515D02*
X7Y515D01*
X2734Y515D02*
X2741Y515D01*
X0Y514D02*
X7Y514D01*
X2734Y514D02*
X2741Y514D01*
X0Y513D02*
X7Y513D01*
X2734Y513D02*
X2741Y513D01*
X0Y512D02*
X7Y512D01*
X2734Y512D02*
X2741Y512D01*
X0Y511D02*
X7Y511D01*
X2734Y511D02*
X2741Y511D01*
X0Y510D02*
X7Y510D01*
X2734Y510D02*
X2741Y510D01*
X0Y509D02*
X7Y509D01*
X2734Y509D02*
X2741Y509D01*
X0Y508D02*
X7Y508D01*
X2734Y508D02*
X2741Y508D01*
X0Y507D02*
X7Y507D01*
X2734Y507D02*
X2741Y507D01*
X0Y506D02*
X7Y506D01*
X2734Y506D02*
X2741Y506D01*
X0Y505D02*
X7Y505D01*
X2734Y505D02*
X2741Y505D01*
X0Y504D02*
X7Y504D01*
X2734Y504D02*
X2741Y504D01*
X0Y503D02*
X7Y503D01*
X2734Y503D02*
X2741Y503D01*
X0Y502D02*
X7Y502D01*
X2734Y502D02*
X2741Y502D01*
X0Y501D02*
X7Y501D01*
X2734Y501D02*
X2741Y501D01*
X0Y500D02*
X7Y500D01*
X2734Y500D02*
X2741Y500D01*
X0Y499D02*
X7Y499D01*
X2734Y499D02*
X2741Y499D01*
X0Y498D02*
X7Y498D01*
X2734Y498D02*
X2741Y498D01*
X0Y497D02*
X7Y497D01*
X2734Y497D02*
X2741Y497D01*
X0Y496D02*
X7Y496D01*
X2734Y496D02*
X2741Y496D01*
X0Y495D02*
X7Y495D01*
X2734Y495D02*
X2741Y495D01*
X0Y494D02*
X7Y494D01*
X2734Y494D02*
X2741Y494D01*
X0Y493D02*
X7Y493D01*
X2734Y493D02*
X2741Y493D01*
X0Y492D02*
X7Y492D01*
X2734Y492D02*
X2741Y492D01*
X0Y491D02*
X7Y491D01*
X2734Y491D02*
X2741Y491D01*
X0Y490D02*
X7Y490D01*
X2734Y490D02*
X2741Y490D01*
X0Y489D02*
X7Y489D01*
X2734Y489D02*
X2741Y489D01*
X0Y488D02*
X7Y488D01*
X2734Y488D02*
X2741Y488D01*
X0Y487D02*
X7Y487D01*
X2734Y487D02*
X2741Y487D01*
X0Y486D02*
X7Y486D01*
X2734Y486D02*
X2741Y486D01*
X0Y485D02*
X7Y485D01*
X2734Y485D02*
X2741Y485D01*
X0Y484D02*
X7Y484D01*
X2734Y484D02*
X2741Y484D01*
X0Y483D02*
X7Y483D01*
X2734Y483D02*
X2741Y483D01*
X0Y482D02*
X7Y482D01*
X2734Y482D02*
X2741Y482D01*
X0Y481D02*
X7Y481D01*
X2734Y481D02*
X2741Y481D01*
X0Y480D02*
X7Y480D01*
X2734Y480D02*
X2741Y480D01*
X0Y479D02*
X7Y479D01*
X2734Y479D02*
X2741Y479D01*
X0Y478D02*
X7Y478D01*
X2734Y478D02*
X2741Y478D01*
X0Y477D02*
X7Y477D01*
X2734Y477D02*
X2741Y477D01*
X0Y476D02*
X7Y476D01*
X2734Y476D02*
X2741Y476D01*
X0Y475D02*
X7Y475D01*
X2734Y475D02*
X2741Y475D01*
X0Y474D02*
X7Y474D01*
X2734Y474D02*
X2741Y474D01*
X0Y473D02*
X7Y473D01*
X2734Y473D02*
X2741Y473D01*
X0Y472D02*
X7Y472D01*
X2734Y472D02*
X2741Y472D01*
X0Y471D02*
X7Y471D01*
X2734Y471D02*
X2741Y471D01*
X0Y470D02*
X7Y470D01*
X2734Y470D02*
X2741Y470D01*
X0Y469D02*
X7Y469D01*
X2734Y469D02*
X2741Y469D01*
X0Y468D02*
X7Y468D01*
X2734Y468D02*
X2741Y468D01*
X0Y467D02*
X7Y467D01*
X2734Y467D02*
X2741Y467D01*
X0Y466D02*
X7Y466D01*
X2734Y466D02*
X2741Y466D01*
X0Y465D02*
X7Y465D01*
X2734Y465D02*
X2741Y465D01*
X0Y464D02*
X7Y464D01*
X2734Y464D02*
X2741Y464D01*
X0Y463D02*
X7Y463D01*
X2734Y463D02*
X2741Y463D01*
X0Y462D02*
X7Y462D01*
X2734Y462D02*
X2741Y462D01*
X0Y461D02*
X7Y461D01*
X2734Y461D02*
X2741Y461D01*
X0Y460D02*
X7Y460D01*
X2734Y460D02*
X2741Y460D01*
X0Y459D02*
X7Y459D01*
X2734Y459D02*
X2741Y459D01*
X0Y458D02*
X7Y458D01*
X2734Y458D02*
X2741Y458D01*
X0Y457D02*
X7Y457D01*
X2734Y457D02*
X2741Y457D01*
X0Y456D02*
X7Y456D01*
X2734Y456D02*
X2741Y456D01*
X0Y455D02*
X7Y455D01*
X2734Y455D02*
X2741Y455D01*
X0Y454D02*
X7Y454D01*
X2734Y454D02*
X2741Y454D01*
X0Y453D02*
X7Y453D01*
X2734Y453D02*
X2741Y453D01*
X0Y452D02*
X7Y452D01*
X2734Y452D02*
X2741Y452D01*
X0Y451D02*
X7Y451D01*
X2734Y451D02*
X2741Y451D01*
X0Y450D02*
X7Y450D01*
X2734Y450D02*
X2741Y450D01*
X0Y449D02*
X7Y449D01*
X2734Y449D02*
X2741Y449D01*
X0Y448D02*
X7Y448D01*
X2734Y448D02*
X2741Y448D01*
X0Y447D02*
X7Y447D01*
X2734Y447D02*
X2741Y447D01*
X0Y446D02*
X7Y446D01*
X2734Y446D02*
X2741Y446D01*
X0Y445D02*
X7Y445D01*
X2734Y445D02*
X2741Y445D01*
X0Y444D02*
X7Y444D01*
X2734Y444D02*
X2741Y444D01*
X0Y443D02*
X7Y443D01*
X2734Y443D02*
X2741Y443D01*
X0Y442D02*
X7Y442D01*
X2734Y442D02*
X2741Y442D01*
X0Y441D02*
X7Y441D01*
X2734Y441D02*
X2741Y441D01*
X0Y440D02*
X7Y440D01*
X2734Y440D02*
X2741Y440D01*
X0Y439D02*
X7Y439D01*
X2734Y439D02*
X2741Y439D01*
X0Y438D02*
X7Y438D01*
X2734Y438D02*
X2741Y438D01*
X0Y437D02*
X7Y437D01*
X2734Y437D02*
X2741Y437D01*
X0Y436D02*
X7Y436D01*
X2734Y436D02*
X2741Y436D01*
X0Y435D02*
X7Y435D01*
X2734Y435D02*
X2741Y435D01*
X0Y434D02*
X7Y434D01*
X2734Y434D02*
X2741Y434D01*
X0Y433D02*
X7Y433D01*
X2734Y433D02*
X2741Y433D01*
X0Y432D02*
X7Y432D01*
X2734Y432D02*
X2741Y432D01*
X0Y431D02*
X7Y431D01*
X2734Y431D02*
X2741Y431D01*
X0Y430D02*
X7Y430D01*
X2734Y430D02*
X2741Y430D01*
X0Y429D02*
X7Y429D01*
X2734Y429D02*
X2741Y429D01*
X0Y428D02*
X7Y428D01*
X2734Y428D02*
X2741Y428D01*
X0Y427D02*
X7Y427D01*
X2734Y427D02*
X2741Y427D01*
X0Y426D02*
X7Y426D01*
X2734Y426D02*
X2741Y426D01*
X0Y425D02*
X7Y425D01*
X2734Y425D02*
X2741Y425D01*
X0Y424D02*
X7Y424D01*
X2734Y424D02*
X2741Y424D01*
X0Y423D02*
X7Y423D01*
X2734Y423D02*
X2741Y423D01*
X0Y422D02*
X7Y422D01*
X2734Y422D02*
X2741Y422D01*
X0Y421D02*
X7Y421D01*
X2734Y421D02*
X2741Y421D01*
X0Y420D02*
X7Y420D01*
X2734Y420D02*
X2741Y420D01*
X0Y419D02*
X7Y419D01*
X2734Y419D02*
X2741Y419D01*
X0Y418D02*
X7Y418D01*
X2734Y418D02*
X2741Y418D01*
X0Y417D02*
X7Y417D01*
X2734Y417D02*
X2741Y417D01*
X0Y416D02*
X7Y416D01*
X2734Y416D02*
X2741Y416D01*
X0Y415D02*
X7Y415D01*
X2734Y415D02*
X2741Y415D01*
X0Y414D02*
X7Y414D01*
X2734Y414D02*
X2741Y414D01*
X0Y413D02*
X7Y413D01*
X2734Y413D02*
X2741Y413D01*
X0Y412D02*
X7Y412D01*
X2734Y412D02*
X2741Y412D01*
X0Y411D02*
X7Y411D01*
X2734Y411D02*
X2741Y411D01*
X0Y410D02*
X7Y410D01*
X2734Y410D02*
X2741Y410D01*
X0Y409D02*
X7Y409D01*
X2734Y409D02*
X2741Y409D01*
X0Y408D02*
X7Y408D01*
X2734Y408D02*
X2741Y408D01*
X0Y407D02*
X7Y407D01*
X2734Y407D02*
X2741Y407D01*
X0Y406D02*
X7Y406D01*
X2734Y406D02*
X2741Y406D01*
X0Y405D02*
X7Y405D01*
X2734Y405D02*
X2741Y405D01*
X0Y404D02*
X7Y404D01*
X2734Y404D02*
X2741Y404D01*
X0Y403D02*
X7Y403D01*
X2734Y403D02*
X2741Y403D01*
X0Y402D02*
X7Y402D01*
X2734Y402D02*
X2741Y402D01*
X0Y401D02*
X7Y401D01*
X2734Y401D02*
X2741Y401D01*
X0Y400D02*
X7Y400D01*
X2734Y400D02*
X2741Y400D01*
X0Y399D02*
X7Y399D01*
X2734Y399D02*
X2741Y399D01*
X0Y398D02*
X7Y398D01*
X2734Y398D02*
X2741Y398D01*
X0Y397D02*
X7Y397D01*
X2734Y397D02*
X2741Y397D01*
X0Y396D02*
X7Y396D01*
X2734Y396D02*
X2741Y396D01*
X0Y395D02*
X7Y395D01*
X2734Y395D02*
X2741Y395D01*
X0Y394D02*
X7Y394D01*
X2734Y394D02*
X2741Y394D01*
X0Y393D02*
X7Y393D01*
X2734Y393D02*
X2741Y393D01*
X0Y392D02*
X7Y392D01*
X2734Y392D02*
X2741Y392D01*
X0Y391D02*
X7Y391D01*
X2734Y391D02*
X2741Y391D01*
X0Y390D02*
X7Y390D01*
X2734Y390D02*
X2741Y390D01*
X0Y389D02*
X7Y389D01*
X2734Y389D02*
X2741Y389D01*
X0Y388D02*
X7Y388D01*
X2734Y388D02*
X2741Y388D01*
X0Y387D02*
X7Y387D01*
X2734Y387D02*
X2741Y387D01*
X0Y386D02*
X7Y386D01*
X2734Y386D02*
X2741Y386D01*
X0Y385D02*
X7Y385D01*
X2734Y385D02*
X2741Y385D01*
X0Y384D02*
X7Y384D01*
X2734Y384D02*
X2741Y384D01*
X0Y383D02*
X7Y383D01*
X2734Y383D02*
X2741Y383D01*
X0Y382D02*
X7Y382D01*
X2734Y382D02*
X2741Y382D01*
X0Y381D02*
X7Y381D01*
X2734Y381D02*
X2741Y381D01*
X0Y380D02*
X7Y380D01*
X2734Y380D02*
X2741Y380D01*
X0Y379D02*
X7Y379D01*
X2734Y379D02*
X2741Y379D01*
X0Y378D02*
X7Y378D01*
X2734Y378D02*
X2741Y378D01*
X0Y377D02*
X7Y377D01*
X2734Y377D02*
X2741Y377D01*
X0Y376D02*
X7Y376D01*
X2734Y376D02*
X2741Y376D01*
X0Y375D02*
X7Y375D01*
X2734Y375D02*
X2741Y375D01*
X0Y374D02*
X7Y374D01*
X2734Y374D02*
X2741Y374D01*
X0Y373D02*
X7Y373D01*
X2734Y373D02*
X2741Y373D01*
X0Y372D02*
X7Y372D01*
X2734Y372D02*
X2741Y372D01*
X0Y371D02*
X7Y371D01*
X2734Y371D02*
X2741Y371D01*
X0Y370D02*
X7Y370D01*
X2734Y370D02*
X2741Y370D01*
X0Y369D02*
X7Y369D01*
X2734Y369D02*
X2741Y369D01*
X0Y368D02*
X7Y368D01*
X2734Y368D02*
X2741Y368D01*
X0Y367D02*
X7Y367D01*
X2734Y367D02*
X2741Y367D01*
X0Y366D02*
X7Y366D01*
X2734Y366D02*
X2741Y366D01*
X0Y365D02*
X7Y365D01*
X2734Y365D02*
X2741Y365D01*
X0Y364D02*
X7Y364D01*
X2734Y364D02*
X2741Y364D01*
X0Y363D02*
X7Y363D01*
X2734Y363D02*
X2741Y363D01*
X0Y362D02*
X7Y362D01*
X2734Y362D02*
X2741Y362D01*
X0Y361D02*
X7Y361D01*
X2734Y361D02*
X2741Y361D01*
X0Y360D02*
X7Y360D01*
X2734Y360D02*
X2741Y360D01*
X0Y359D02*
X7Y359D01*
X2734Y359D02*
X2741Y359D01*
X0Y358D02*
X7Y358D01*
X2734Y358D02*
X2741Y358D01*
X0Y357D02*
X7Y357D01*
X2734Y357D02*
X2741Y357D01*
X0Y356D02*
X7Y356D01*
X2734Y356D02*
X2741Y356D01*
X0Y355D02*
X7Y355D01*
X2734Y355D02*
X2741Y355D01*
X0Y354D02*
X7Y354D01*
X2734Y354D02*
X2741Y354D01*
X0Y353D02*
X7Y353D01*
X2734Y353D02*
X2741Y353D01*
X0Y352D02*
X7Y352D01*
X2734Y352D02*
X2741Y352D01*
X0Y351D02*
X7Y351D01*
X2734Y351D02*
X2741Y351D01*
X0Y350D02*
X7Y350D01*
X2734Y350D02*
X2741Y350D01*
X0Y349D02*
X7Y349D01*
X2734Y349D02*
X2741Y349D01*
X0Y348D02*
X7Y348D01*
X2734Y348D02*
X2741Y348D01*
X0Y347D02*
X7Y347D01*
X2734Y347D02*
X2741Y347D01*
X0Y346D02*
X7Y346D01*
X2734Y346D02*
X2741Y346D01*
X0Y345D02*
X7Y345D01*
X2734Y345D02*
X2741Y345D01*
X0Y344D02*
X7Y344D01*
X2734Y344D02*
X2741Y344D01*
X0Y343D02*
X7Y343D01*
X2734Y343D02*
X2741Y343D01*
X0Y342D02*
X7Y342D01*
X2734Y342D02*
X2741Y342D01*
X0Y341D02*
X7Y341D01*
X2734Y341D02*
X2741Y341D01*
X0Y340D02*
X7Y340D01*
X2734Y340D02*
X2741Y340D01*
X0Y339D02*
X7Y339D01*
X2734Y339D02*
X2741Y339D01*
X0Y338D02*
X7Y338D01*
X2734Y338D02*
X2741Y338D01*
X0Y337D02*
X7Y337D01*
X2734Y337D02*
X2741Y337D01*
X0Y336D02*
X7Y336D01*
X2734Y336D02*
X2741Y336D01*
X0Y335D02*
X7Y335D01*
X2734Y335D02*
X2741Y335D01*
X0Y334D02*
X7Y334D01*
X2734Y334D02*
X2741Y334D01*
X0Y333D02*
X7Y333D01*
X2734Y333D02*
X2741Y333D01*
X0Y332D02*
X7Y332D01*
X2734Y332D02*
X2741Y332D01*
X0Y331D02*
X7Y331D01*
X2734Y331D02*
X2741Y331D01*
X0Y330D02*
X7Y330D01*
X2734Y330D02*
X2741Y330D01*
X0Y329D02*
X7Y329D01*
X2734Y329D02*
X2741Y329D01*
X0Y328D02*
X7Y328D01*
X2734Y328D02*
X2741Y328D01*
X0Y327D02*
X7Y327D01*
X2734Y327D02*
X2741Y327D01*
X0Y326D02*
X7Y326D01*
X2734Y326D02*
X2741Y326D01*
X0Y325D02*
X7Y325D01*
X2734Y325D02*
X2741Y325D01*
X0Y324D02*
X7Y324D01*
X2734Y324D02*
X2741Y324D01*
X0Y323D02*
X7Y323D01*
X2734Y323D02*
X2741Y323D01*
X0Y322D02*
X7Y322D01*
X2734Y322D02*
X2741Y322D01*
X0Y321D02*
X7Y321D01*
X2734Y321D02*
X2741Y321D01*
X0Y320D02*
X7Y320D01*
X2734Y320D02*
X2741Y320D01*
X0Y319D02*
X7Y319D01*
X2734Y319D02*
X2741Y319D01*
X0Y318D02*
X7Y318D01*
X2734Y318D02*
X2741Y318D01*
X0Y317D02*
X7Y317D01*
X2734Y317D02*
X2741Y317D01*
X0Y316D02*
X7Y316D01*
X2734Y316D02*
X2741Y316D01*
X0Y315D02*
X7Y315D01*
X2734Y315D02*
X2741Y315D01*
X0Y314D02*
X7Y314D01*
X2734Y314D02*
X2741Y314D01*
X0Y313D02*
X7Y313D01*
X2734Y313D02*
X2741Y313D01*
X0Y312D02*
X7Y312D01*
X2734Y312D02*
X2741Y312D01*
X0Y311D02*
X7Y311D01*
X2734Y311D02*
X2741Y311D01*
X0Y310D02*
X7Y310D01*
X2734Y310D02*
X2741Y310D01*
X0Y309D02*
X7Y309D01*
X2734Y309D02*
X2741Y309D01*
X0Y308D02*
X7Y308D01*
X2734Y308D02*
X2741Y308D01*
X0Y307D02*
X7Y307D01*
X2734Y307D02*
X2741Y307D01*
X0Y306D02*
X7Y306D01*
X2734Y306D02*
X2741Y306D01*
X0Y305D02*
X7Y305D01*
X2734Y305D02*
X2741Y305D01*
X0Y304D02*
X7Y304D01*
X2734Y304D02*
X2741Y304D01*
X0Y303D02*
X7Y303D01*
X2734Y303D02*
X2741Y303D01*
X0Y302D02*
X7Y302D01*
X2734Y302D02*
X2741Y302D01*
X0Y301D02*
X7Y301D01*
X2734Y301D02*
X2741Y301D01*
X0Y300D02*
X7Y300D01*
X2734Y300D02*
X2741Y300D01*
X0Y299D02*
X7Y299D01*
X2734Y299D02*
X2741Y299D01*
X0Y298D02*
X7Y298D01*
X2734Y298D02*
X2741Y298D01*
X0Y297D02*
X7Y297D01*
X2734Y297D02*
X2741Y297D01*
X0Y296D02*
X7Y296D01*
X2734Y296D02*
X2741Y296D01*
X0Y295D02*
X7Y295D01*
X2734Y295D02*
X2741Y295D01*
X0Y294D02*
X7Y294D01*
X2734Y294D02*
X2741Y294D01*
X0Y293D02*
X7Y293D01*
X2734Y293D02*
X2741Y293D01*
X0Y292D02*
X7Y292D01*
X2734Y292D02*
X2741Y292D01*
X0Y291D02*
X7Y291D01*
X2734Y291D02*
X2741Y291D01*
X0Y290D02*
X7Y290D01*
X2734Y290D02*
X2741Y290D01*
X0Y289D02*
X7Y289D01*
X2734Y289D02*
X2741Y289D01*
X0Y288D02*
X7Y288D01*
X2734Y288D02*
X2741Y288D01*
X0Y287D02*
X7Y287D01*
X2734Y287D02*
X2741Y287D01*
X0Y286D02*
X7Y286D01*
X2734Y286D02*
X2741Y286D01*
X0Y285D02*
X7Y285D01*
X2734Y285D02*
X2741Y285D01*
X0Y284D02*
X7Y284D01*
X2734Y284D02*
X2741Y284D01*
X0Y283D02*
X7Y283D01*
X2734Y283D02*
X2741Y283D01*
X0Y282D02*
X7Y282D01*
X2734Y282D02*
X2741Y282D01*
X0Y281D02*
X7Y281D01*
X2734Y281D02*
X2741Y281D01*
X0Y280D02*
X7Y280D01*
X2734Y280D02*
X2741Y280D01*
X0Y279D02*
X7Y279D01*
X2734Y279D02*
X2741Y279D01*
X0Y278D02*
X7Y278D01*
X2734Y278D02*
X2741Y278D01*
X0Y277D02*
X7Y277D01*
X2734Y277D02*
X2741Y277D01*
X0Y276D02*
X7Y276D01*
X2734Y276D02*
X2741Y276D01*
X0Y275D02*
X7Y275D01*
X2734Y275D02*
X2741Y275D01*
X0Y274D02*
X7Y274D01*
X2734Y274D02*
X2741Y274D01*
X0Y273D02*
X7Y273D01*
X2734Y273D02*
X2741Y273D01*
X0Y272D02*
X7Y272D01*
X2734Y272D02*
X2741Y272D01*
X0Y271D02*
X7Y271D01*
X2734Y271D02*
X2741Y271D01*
X0Y270D02*
X7Y270D01*
X2734Y270D02*
X2741Y270D01*
X0Y269D02*
X7Y269D01*
X2734Y269D02*
X2741Y269D01*
X0Y268D02*
X7Y268D01*
X2734Y268D02*
X2741Y268D01*
X0Y267D02*
X7Y267D01*
X2734Y267D02*
X2741Y267D01*
X0Y266D02*
X7Y266D01*
X2734Y266D02*
X2741Y266D01*
X0Y265D02*
X7Y265D01*
X2734Y265D02*
X2741Y265D01*
X0Y264D02*
X7Y264D01*
X2734Y264D02*
X2741Y264D01*
X0Y263D02*
X7Y263D01*
X2734Y263D02*
X2741Y263D01*
X0Y262D02*
X7Y262D01*
X2734Y262D02*
X2741Y262D01*
X0Y261D02*
X7Y261D01*
X2734Y261D02*
X2741Y261D01*
X0Y260D02*
X7Y260D01*
X2734Y260D02*
X2741Y260D01*
X0Y259D02*
X7Y259D01*
X2734Y259D02*
X2741Y259D01*
X0Y258D02*
X7Y258D01*
X2734Y258D02*
X2741Y258D01*
X0Y257D02*
X7Y257D01*
X2734Y257D02*
X2741Y257D01*
X0Y256D02*
X7Y256D01*
X2734Y256D02*
X2741Y256D01*
X0Y255D02*
X7Y255D01*
X2734Y255D02*
X2741Y255D01*
X0Y254D02*
X7Y254D01*
X2734Y254D02*
X2741Y254D01*
X0Y253D02*
X7Y253D01*
X2734Y253D02*
X2741Y253D01*
X0Y252D02*
X7Y252D01*
X2734Y252D02*
X2741Y252D01*
X0Y251D02*
X7Y251D01*
X2734Y251D02*
X2741Y251D01*
X0Y250D02*
X7Y250D01*
X2734Y250D02*
X2741Y250D01*
X0Y249D02*
X7Y249D01*
X2734Y249D02*
X2741Y249D01*
X0Y248D02*
X7Y248D01*
X2734Y248D02*
X2741Y248D01*
X0Y247D02*
X7Y247D01*
X2734Y247D02*
X2741Y247D01*
X0Y246D02*
X7Y246D01*
X2734Y246D02*
X2741Y246D01*
X0Y245D02*
X7Y245D01*
X2734Y245D02*
X2741Y245D01*
X0Y244D02*
X7Y244D01*
X2734Y244D02*
X2741Y244D01*
X0Y243D02*
X7Y243D01*
X2734Y243D02*
X2741Y243D01*
X0Y242D02*
X7Y242D01*
X2734Y242D02*
X2741Y242D01*
X0Y241D02*
X7Y241D01*
X2734Y241D02*
X2741Y241D01*
X0Y240D02*
X7Y240D01*
X2734Y240D02*
X2741Y240D01*
X0Y239D02*
X7Y239D01*
X2734Y239D02*
X2741Y239D01*
X0Y238D02*
X7Y238D01*
X2734Y238D02*
X2741Y238D01*
X0Y237D02*
X7Y237D01*
X2734Y237D02*
X2741Y237D01*
X0Y236D02*
X7Y236D01*
X2734Y236D02*
X2741Y236D01*
X0Y235D02*
X7Y235D01*
X2734Y235D02*
X2741Y235D01*
X0Y234D02*
X7Y234D01*
X2734Y234D02*
X2741Y234D01*
X0Y233D02*
X7Y233D01*
X2734Y233D02*
X2741Y233D01*
X0Y232D02*
X7Y232D01*
X2734Y232D02*
X2741Y232D01*
X0Y231D02*
X7Y231D01*
X2734Y231D02*
X2741Y231D01*
X0Y230D02*
X7Y230D01*
X2734Y230D02*
X2741Y230D01*
X0Y229D02*
X7Y229D01*
X2734Y229D02*
X2741Y229D01*
X0Y228D02*
X7Y228D01*
X2734Y228D02*
X2741Y228D01*
X0Y227D02*
X7Y227D01*
X2734Y227D02*
X2741Y227D01*
X0Y226D02*
X7Y226D01*
X2734Y226D02*
X2741Y226D01*
X0Y225D02*
X7Y225D01*
X2734Y225D02*
X2741Y225D01*
X0Y224D02*
X7Y224D01*
X2734Y224D02*
X2741Y224D01*
X0Y223D02*
X7Y223D01*
X2734Y223D02*
X2741Y223D01*
X0Y222D02*
X7Y222D01*
X2734Y222D02*
X2741Y222D01*
X0Y221D02*
X7Y221D01*
X2734Y221D02*
X2741Y221D01*
X0Y220D02*
X7Y220D01*
X2734Y220D02*
X2741Y220D01*
X0Y219D02*
X7Y219D01*
X2734Y219D02*
X2741Y219D01*
X0Y218D02*
X7Y218D01*
X2734Y218D02*
X2741Y218D01*
X0Y217D02*
X7Y217D01*
X2734Y217D02*
X2741Y217D01*
X0Y216D02*
X7Y216D01*
X2734Y216D02*
X2741Y216D01*
X0Y215D02*
X7Y215D01*
X2734Y215D02*
X2741Y215D01*
X0Y214D02*
X7Y214D01*
X2734Y214D02*
X2741Y214D01*
X0Y213D02*
X7Y213D01*
X2734Y213D02*
X2741Y213D01*
X0Y212D02*
X7Y212D01*
X2734Y212D02*
X2741Y212D01*
X0Y211D02*
X7Y211D01*
X2734Y211D02*
X2741Y211D01*
X0Y210D02*
X7Y210D01*
X2734Y210D02*
X2741Y210D01*
X0Y209D02*
X7Y209D01*
X2734Y209D02*
X2741Y209D01*
X0Y208D02*
X7Y208D01*
X2734Y208D02*
X2741Y208D01*
X0Y207D02*
X7Y207D01*
X2734Y207D02*
X2741Y207D01*
X0Y206D02*
X7Y206D01*
X2734Y206D02*
X2741Y206D01*
X0Y205D02*
X7Y205D01*
X2734Y205D02*
X2741Y205D01*
X0Y204D02*
X7Y204D01*
X2734Y204D02*
X2741Y204D01*
X0Y203D02*
X7Y203D01*
X2734Y203D02*
X2741Y203D01*
X0Y202D02*
X7Y202D01*
X2734Y202D02*
X2741Y202D01*
X0Y201D02*
X7Y201D01*
X2734Y201D02*
X2741Y201D01*
X0Y200D02*
X7Y200D01*
X2734Y200D02*
X2741Y200D01*
X0Y199D02*
X7Y199D01*
X2734Y199D02*
X2741Y199D01*
X0Y198D02*
X7Y198D01*
X2734Y198D02*
X2741Y198D01*
X0Y197D02*
X7Y197D01*
X2734Y197D02*
X2741Y197D01*
X0Y196D02*
X7Y196D01*
X2734Y196D02*
X2741Y196D01*
X0Y195D02*
X7Y195D01*
X2734Y195D02*
X2741Y195D01*
X0Y194D02*
X7Y194D01*
X2734Y194D02*
X2741Y194D01*
X0Y193D02*
X7Y193D01*
X2734Y193D02*
X2741Y193D01*
X0Y192D02*
X7Y192D01*
X2734Y192D02*
X2741Y192D01*
X0Y191D02*
X7Y191D01*
X2734Y191D02*
X2741Y191D01*
X0Y190D02*
X7Y190D01*
X2734Y190D02*
X2741Y190D01*
X0Y189D02*
X7Y189D01*
X2734Y189D02*
X2741Y189D01*
X0Y188D02*
X7Y188D01*
X2734Y188D02*
X2741Y188D01*
X0Y187D02*
X7Y187D01*
X2734Y187D02*
X2741Y187D01*
X0Y186D02*
X7Y186D01*
X2734Y186D02*
X2741Y186D01*
X0Y185D02*
X7Y185D01*
X2734Y185D02*
X2741Y185D01*
X0Y184D02*
X7Y184D01*
X2734Y184D02*
X2741Y184D01*
X0Y183D02*
X7Y183D01*
X2734Y183D02*
X2741Y183D01*
X0Y182D02*
X7Y182D01*
X2734Y182D02*
X2741Y182D01*
X0Y181D02*
X7Y181D01*
X2734Y181D02*
X2741Y181D01*
X0Y180D02*
X7Y180D01*
X2734Y180D02*
X2741Y180D01*
X0Y179D02*
X7Y179D01*
X2734Y179D02*
X2741Y179D01*
X0Y178D02*
X7Y178D01*
X2734Y178D02*
X2741Y178D01*
X0Y177D02*
X7Y177D01*
X2734Y177D02*
X2741Y177D01*
X0Y176D02*
X7Y176D01*
X2734Y176D02*
X2741Y176D01*
X0Y175D02*
X7Y175D01*
X2734Y175D02*
X2741Y175D01*
X0Y174D02*
X7Y174D01*
X2734Y174D02*
X2741Y174D01*
X0Y173D02*
X7Y173D01*
X2734Y173D02*
X2741Y173D01*
X0Y172D02*
X7Y172D01*
X2734Y172D02*
X2741Y172D01*
X0Y171D02*
X7Y171D01*
X2734Y171D02*
X2741Y171D01*
X0Y170D02*
X7Y170D01*
X2734Y170D02*
X2741Y170D01*
X0Y169D02*
X7Y169D01*
X2734Y169D02*
X2741Y169D01*
X0Y168D02*
X7Y168D01*
X2734Y168D02*
X2741Y168D01*
X0Y167D02*
X7Y167D01*
X2734Y167D02*
X2741Y167D01*
X0Y166D02*
X7Y166D01*
X2734Y166D02*
X2741Y166D01*
X0Y165D02*
X7Y165D01*
X2734Y165D02*
X2741Y165D01*
X0Y164D02*
X7Y164D01*
X2734Y164D02*
X2741Y164D01*
X0Y163D02*
X7Y163D01*
X2734Y163D02*
X2741Y163D01*
X0Y162D02*
X7Y162D01*
X2734Y162D02*
X2741Y162D01*
X0Y161D02*
X7Y161D01*
X2734Y161D02*
X2741Y161D01*
X0Y160D02*
X7Y160D01*
X2734Y160D02*
X2741Y160D01*
X0Y159D02*
X7Y159D01*
X2734Y159D02*
X2741Y159D01*
X0Y158D02*
X7Y158D01*
X2734Y158D02*
X2741Y158D01*
X0Y157D02*
X7Y157D01*
X2734Y157D02*
X2741Y157D01*
X0Y156D02*
X7Y156D01*
X2734Y156D02*
X2741Y156D01*
X0Y155D02*
X7Y155D01*
X2734Y155D02*
X2741Y155D01*
X0Y154D02*
X7Y154D01*
X2734Y154D02*
X2741Y154D01*
X0Y153D02*
X7Y153D01*
X2734Y153D02*
X2741Y153D01*
X0Y152D02*
X7Y152D01*
X2734Y152D02*
X2741Y152D01*
X0Y151D02*
X7Y151D01*
X2734Y151D02*
X2741Y151D01*
X0Y150D02*
X7Y150D01*
X2734Y150D02*
X2741Y150D01*
X0Y149D02*
X7Y149D01*
X2734Y149D02*
X2741Y149D01*
X0Y148D02*
X7Y148D01*
X2734Y148D02*
X2741Y148D01*
X0Y147D02*
X7Y147D01*
X2734Y147D02*
X2741Y147D01*
X0Y146D02*
X7Y146D01*
X2734Y146D02*
X2741Y146D01*
X0Y145D02*
X7Y145D01*
X2734Y145D02*
X2741Y145D01*
X0Y144D02*
X7Y144D01*
X2734Y144D02*
X2741Y144D01*
X0Y143D02*
X7Y143D01*
X2734Y143D02*
X2741Y143D01*
X0Y142D02*
X7Y142D01*
X2734Y142D02*
X2741Y142D01*
X0Y141D02*
X7Y141D01*
X2734Y141D02*
X2741Y141D01*
X0Y140D02*
X7Y140D01*
X2734Y140D02*
X2741Y140D01*
X0Y139D02*
X7Y139D01*
X2734Y139D02*
X2741Y139D01*
X0Y138D02*
X7Y138D01*
X2734Y138D02*
X2741Y138D01*
X0Y137D02*
X7Y137D01*
X2734Y137D02*
X2741Y137D01*
X0Y136D02*
X7Y136D01*
X2734Y136D02*
X2741Y136D01*
X0Y135D02*
X7Y135D01*
X2734Y135D02*
X2741Y135D01*
X0Y134D02*
X7Y134D01*
X2734Y134D02*
X2741Y134D01*
X0Y133D02*
X7Y133D01*
X2734Y133D02*
X2741Y133D01*
X0Y132D02*
X7Y132D01*
X2734Y132D02*
X2741Y132D01*
X0Y131D02*
X7Y131D01*
X2734Y131D02*
X2741Y131D01*
X0Y130D02*
X7Y130D01*
X2734Y130D02*
X2741Y130D01*
X0Y129D02*
X7Y129D01*
X2734Y129D02*
X2741Y129D01*
X0Y128D02*
X7Y128D01*
X2734Y128D02*
X2741Y128D01*
X0Y127D02*
X7Y127D01*
X2734Y127D02*
X2741Y127D01*
X0Y126D02*
X7Y126D01*
X2734Y126D02*
X2741Y126D01*
X0Y125D02*
X7Y125D01*
X2734Y125D02*
X2741Y125D01*
X0Y124D02*
X7Y124D01*
X2734Y124D02*
X2741Y124D01*
X0Y123D02*
X7Y123D01*
X2734Y123D02*
X2741Y123D01*
X0Y122D02*
X7Y122D01*
X2734Y122D02*
X2741Y122D01*
X0Y121D02*
X7Y121D01*
X2734Y121D02*
X2741Y121D01*
X0Y120D02*
X7Y120D01*
X2734Y120D02*
X2741Y120D01*
X0Y119D02*
X7Y119D01*
X2734Y119D02*
X2741Y119D01*
X0Y118D02*
X7Y118D01*
X2734Y118D02*
X2741Y118D01*
X0Y117D02*
X7Y117D01*
X2734Y117D02*
X2741Y117D01*
X0Y116D02*
X7Y116D01*
X2734Y116D02*
X2741Y116D01*
X0Y115D02*
X7Y115D01*
X2734Y115D02*
X2741Y115D01*
X0Y114D02*
X7Y114D01*
X2734Y114D02*
X2741Y114D01*
X0Y113D02*
X7Y113D01*
X2734Y113D02*
X2741Y113D01*
X0Y112D02*
X7Y112D01*
X2734Y112D02*
X2741Y112D01*
X0Y111D02*
X7Y111D01*
X2734Y111D02*
X2741Y111D01*
X0Y110D02*
X7Y110D01*
X2734Y110D02*
X2741Y110D01*
X0Y109D02*
X7Y109D01*
X2734Y109D02*
X2741Y109D01*
X0Y108D02*
X7Y108D01*
X2734Y108D02*
X2741Y108D01*
X0Y107D02*
X7Y107D01*
X2734Y107D02*
X2741Y107D01*
X0Y106D02*
X7Y106D01*
X2734Y106D02*
X2741Y106D01*
X0Y105D02*
X7Y105D01*
X2734Y105D02*
X2741Y105D01*
X0Y104D02*
X7Y104D01*
X2734Y104D02*
X2741Y104D01*
X0Y103D02*
X7Y103D01*
X2734Y103D02*
X2741Y103D01*
X0Y102D02*
X7Y102D01*
X2734Y102D02*
X2741Y102D01*
X0Y101D02*
X7Y101D01*
X2734Y101D02*
X2741Y101D01*
X0Y100D02*
X7Y100D01*
X2734Y100D02*
X2741Y100D01*
X0Y99D02*
X7Y99D01*
X2734Y99D02*
X2741Y99D01*
X0Y98D02*
X7Y98D01*
X2734Y98D02*
X2741Y98D01*
X0Y97D02*
X7Y97D01*
X2734Y97D02*
X2741Y97D01*
X0Y96D02*
X7Y96D01*
X2734Y96D02*
X2741Y96D01*
X0Y95D02*
X7Y95D01*
X2734Y95D02*
X2741Y95D01*
X0Y94D02*
X7Y94D01*
X2734Y94D02*
X2741Y94D01*
X0Y93D02*
X7Y93D01*
X2734Y93D02*
X2741Y93D01*
X0Y92D02*
X7Y92D01*
X2734Y92D02*
X2741Y92D01*
X0Y91D02*
X7Y91D01*
X2734Y91D02*
X2741Y91D01*
X0Y90D02*
X7Y90D01*
X2734Y90D02*
X2741Y90D01*
X0Y89D02*
X7Y89D01*
X2734Y89D02*
X2741Y89D01*
X0Y88D02*
X7Y88D01*
X2734Y88D02*
X2741Y88D01*
X0Y87D02*
X7Y87D01*
X2734Y87D02*
X2741Y87D01*
X0Y86D02*
X7Y86D01*
X2734Y86D02*
X2741Y86D01*
X0Y85D02*
X7Y85D01*
X2734Y85D02*
X2741Y85D01*
X0Y84D02*
X7Y84D01*
X2734Y84D02*
X2741Y84D01*
X0Y83D02*
X7Y83D01*
X2734Y83D02*
X2741Y83D01*
X0Y82D02*
X7Y82D01*
X2734Y82D02*
X2741Y82D01*
X0Y81D02*
X7Y81D01*
X2734Y81D02*
X2741Y81D01*
X0Y80D02*
X7Y80D01*
X2734Y80D02*
X2741Y80D01*
X0Y79D02*
X7Y79D01*
X2734Y79D02*
X2741Y79D01*
X0Y78D02*
X7Y78D01*
X2734Y78D02*
X2741Y78D01*
X0Y77D02*
X7Y77D01*
X2734Y77D02*
X2741Y77D01*
X0Y76D02*
X7Y76D01*
X2734Y76D02*
X2741Y76D01*
X0Y75D02*
X7Y75D01*
X2734Y75D02*
X2741Y75D01*
X0Y74D02*
X7Y74D01*
X2734Y74D02*
X2741Y74D01*
X0Y73D02*
X7Y73D01*
X2734Y73D02*
X2741Y73D01*
X0Y72D02*
X7Y72D01*
X2734Y72D02*
X2741Y72D01*
X0Y71D02*
X7Y71D01*
X2734Y71D02*
X2741Y71D01*
X0Y70D02*
X7Y70D01*
X2734Y70D02*
X2741Y70D01*
X0Y69D02*
X7Y69D01*
X2734Y69D02*
X2741Y69D01*
X0Y68D02*
X7Y68D01*
X2734Y68D02*
X2741Y68D01*
X0Y67D02*
X7Y67D01*
X2734Y67D02*
X2741Y67D01*
X0Y66D02*
X7Y66D01*
X2734Y66D02*
X2741Y66D01*
X0Y65D02*
X7Y65D01*
X2734Y65D02*
X2741Y65D01*
X0Y64D02*
X7Y64D01*
X2734Y64D02*
X2741Y64D01*
X0Y63D02*
X7Y63D01*
X2734Y63D02*
X2741Y63D01*
X0Y62D02*
X7Y62D01*
X2734Y62D02*
X2741Y62D01*
X0Y61D02*
X7Y61D01*
X2734Y61D02*
X2741Y61D01*
X0Y60D02*
X7Y60D01*
X2734Y60D02*
X2741Y60D01*
X0Y59D02*
X7Y59D01*
X2734Y59D02*
X2741Y59D01*
X0Y58D02*
X7Y58D01*
X2734Y58D02*
X2741Y58D01*
X0Y57D02*
X7Y57D01*
X2734Y57D02*
X2741Y57D01*
X0Y56D02*
X7Y56D01*
X2734Y56D02*
X2741Y56D01*
X0Y55D02*
X7Y55D01*
X2734Y55D02*
X2741Y55D01*
X0Y54D02*
X7Y54D01*
X2734Y54D02*
X2741Y54D01*
X0Y53D02*
X7Y53D01*
X2734Y53D02*
X2741Y53D01*
X0Y52D02*
X7Y52D01*
X2734Y52D02*
X2741Y52D01*
X0Y51D02*
X7Y51D01*
X2734Y51D02*
X2741Y51D01*
X0Y50D02*
X7Y50D01*
X2734Y50D02*
X2741Y50D01*
X0Y49D02*
X7Y49D01*
X2734Y49D02*
X2741Y49D01*
X0Y48D02*
X7Y48D01*
X2734Y48D02*
X2741Y48D01*
X0Y47D02*
X7Y47D01*
X2734Y47D02*
X2741Y47D01*
X0Y46D02*
X7Y46D01*
X2734Y46D02*
X2741Y46D01*
X0Y45D02*
X7Y45D01*
X2734Y45D02*
X2741Y45D01*
X0Y44D02*
X7Y44D01*
X2734Y44D02*
X2741Y44D01*
X0Y43D02*
X7Y43D01*
X2734Y43D02*
X2741Y43D01*
X0Y42D02*
X7Y42D01*
X2734Y42D02*
X2741Y42D01*
X0Y41D02*
X7Y41D01*
X2734Y41D02*
X2741Y41D01*
X0Y40D02*
X7Y40D01*
X2734Y40D02*
X2741Y40D01*
X0Y39D02*
X7Y39D01*
X2734Y39D02*
X2741Y39D01*
X0Y38D02*
X7Y38D01*
X2734Y38D02*
X2741Y38D01*
X0Y37D02*
X7Y37D01*
X2734Y37D02*
X2741Y37D01*
X0Y36D02*
X7Y36D01*
X2734Y36D02*
X2741Y36D01*
X0Y35D02*
X7Y35D01*
X2734Y35D02*
X2741Y35D01*
X0Y34D02*
X7Y34D01*
X2734Y34D02*
X2741Y34D01*
X0Y33D02*
X7Y33D01*
X2734Y33D02*
X2741Y33D01*
X0Y32D02*
X7Y32D01*
X2734Y32D02*
X2741Y32D01*
X0Y31D02*
X7Y31D01*
X2734Y31D02*
X2741Y31D01*
X0Y30D02*
X7Y30D01*
X2734Y30D02*
X2741Y30D01*
X0Y29D02*
X7Y29D01*
X2734Y29D02*
X2741Y29D01*
X0Y28D02*
X7Y28D01*
X2734Y28D02*
X2741Y28D01*
X0Y27D02*
X7Y27D01*
X2734Y27D02*
X2741Y27D01*
X0Y26D02*
X7Y26D01*
X2734Y26D02*
X2741Y26D01*
X0Y25D02*
X7Y25D01*
X2734Y25D02*
X2741Y25D01*
X0Y24D02*
X7Y24D01*
X2734Y24D02*
X2741Y24D01*
X0Y23D02*
X7Y23D01*
X2734Y23D02*
X2741Y23D01*
X0Y22D02*
X7Y22D01*
X2734Y22D02*
X2741Y22D01*
X0Y21D02*
X7Y21D01*
X2734Y21D02*
X2741Y21D01*
X0Y20D02*
X7Y20D01*
X2734Y20D02*
X2741Y20D01*
X0Y19D02*
X7Y19D01*
X2734Y19D02*
X2741Y19D01*
X0Y18D02*
X7Y18D01*
X2734Y18D02*
X2741Y18D01*
X0Y17D02*
X7Y17D01*
X2734Y17D02*
X2741Y17D01*
X0Y16D02*
X7Y16D01*
X2734Y16D02*
X2741Y16D01*
X0Y15D02*
X7Y15D01*
X2734Y15D02*
X2741Y15D01*
X0Y14D02*
X7Y14D01*
X2734Y14D02*
X2741Y14D01*
X0Y13D02*
X7Y13D01*
X2734Y13D02*
X2741Y13D01*
X0Y12D02*
X7Y12D01*
X2734Y12D02*
X2741Y12D01*
X0Y11D02*
X7Y11D01*
X2734Y11D02*
X2741Y11D01*
X0Y10D02*
X7Y10D01*
X2734Y10D02*
X2741Y10D01*
X0Y9D02*
X7Y9D01*
X2734Y9D02*
X2741Y9D01*
X0Y8D02*
X2741Y8D01*
X0Y7D02*
X2741Y7D01*
X0Y6D02*
X2741Y6D01*
X0Y5D02*
X2741Y5D01*
X0Y4D02*
X2741Y4D01*
X0Y3D02*
X2741Y3D01*
X0Y2D02*
X2741Y2D01*
X0Y1D02*
X2741Y1D01*
D02*
G04 End of Silk0*
M02*