<svg xmlns="http://www.w3.org/2000/svg" xmlns:xlink="http://www.w3.org/1999/xlink" version="1.1" x="0px" y="0px" viewBox="0 0 100 100" enable-background="new 0 0 100 100" xml:space="preserve"><path fill-rule="evenodd" clip-rule="evenodd" d="M41.161,30.947l3.535,3.535c2.924-2.924,7.684-2.925,10.607,0l3.535-3.536  C53.966,26.073,46.034,26.073,41.161,30.947z"></path><path fill-rule="evenodd" clip-rule="evenodd" d="M65.91,23.876c-8.772-8.771-23.048-8.772-31.82,0l3.535,3.536  c6.824-6.824,17.928-6.823,24.75-0.001L65.91,23.876z"></path><path fill-rule="evenodd" clip-rule="evenodd" d="M50,12.286c7.346,0,14.251,2.86,19.445,8.054l3.535-3.535  C66.843,10.666,58.682,7.286,50,7.286c-8.681,0-16.843,3.381-22.98,9.519l3.535,3.535C35.748,15.146,42.654,12.286,50,12.286z"></path><path fill-rule="evenodd" clip-rule="evenodd" d="M81.49,55.923c0-1.348-1.091-2.438-2.438-2.438h-4.317  c-0.099-0.171-0.198-0.341-0.299-0.51c-5.048-8.465-7.769-12.532-14.363-12.532h-8.694h-2.758h-8.693  c-6.596,0-9.316,4.067-14.364,12.532c-0.101,0.169-0.2,0.339-0.298,0.51h-4.318c-1.345,0-2.438,1.091-2.438,2.438  c0,1.347,1.093,2.438,2.438,2.438h1.874C20.96,62.72,20.1,66.676,20.1,69.176v19.722c0,0.466,0.121,0.902,0.332,1.283  c0.528,1.476,1.934,2.534,3.592,2.534c2.107,0,3.816-1.709,3.816-3.817V85.08h20.781h2.758H72.16v3.817  c0,2.108,1.709,3.817,3.816,3.817c1.658,0,3.065-1.059,3.592-2.534c0.211-0.381,0.332-0.817,0.332-1.283V69.176  c0-2.5-0.86-6.456-2.722-10.814h1.874C80.399,58.361,81.49,57.27,81.49,55.923z M30.117,55.69c5.045-8.46,6.513-9.946,9.811-9.946  h8.693h2.758h8.694c3.298,0,4.765,1.486,9.811,9.946c1.357,2.274,2.374,4.494,3.109,6.488H51.379h-2.758H27.007  C27.742,60.185,28.761,57.965,30.117,55.69z M29.113,75.043c-1.797,0-3.252-1.455-3.252-3.252c0-1.796,1.455-3.251,3.252-3.251  c1.795,0,3.251,1.455,3.251,3.251S30.908,75.043,29.113,75.043z M60.568,73.771h-9.189h-2.758h-9.189  c-1.17,0-2.119-0.949-2.119-2.12s0.949-2.121,2.119-2.121h9.189h2.758h9.189c1.171,0,2.119,0.95,2.119,2.121  S61.739,73.771,60.568,73.771z M70.888,75.043c-1.796,0-3.251-1.455-3.251-3.252c0-1.796,1.455-3.251,3.251-3.251  c1.797,0,3.251,1.455,3.251,3.251S72.684,75.043,70.888,75.043z"></path></svg>